<svg xmlns="http://www.w3.org/2000/svg" xmlns:xlink="http://www.w3.org/1999/xlink" xmlns:s="https://github.com/nturley/netlistsvg" width="869" height="210.5">
  <style>svg {
    stroke:#000;
    fill:none;
    background-color: white;
  }
  text {
    fill:#000;
    stroke:none;
    font-size:10px;
    font-weight: bold;
    font-family: "Courier New", monospace;
  }
  line {
      stroke-linecap: round;
  }
  .nodelabel {
    text-anchor: middle;
  }
  .inputPortLabel {
    text-anchor: end;
  }
  .splitjoinBody {
    fill:#000;
  }
  /* --- Brandon 的客製化顏色區隔 --- */
  /* 多路選擇器 (Mux) - 淺藍色 */
  [s\:type^="mux"] path { fill: #e1f5fe; }
  /* 邏輯閘 (And, Or, Xor, Not) - 淺綠色 */
  [s\:type="and"], [s\:type="nand"], [s\:type="andnot"],
  [s\:type="or"], [s\:type="reduce_nor"], [s\:type="ornot"],
  [s\:type="reduce_xor"], [s\:type="reduce_nxor"],
  [s\:type="not"], [s\:type="buf"] path { fill: #e8f5e9; }
  /* 觸發器 (DFF) - 淺橘色 */
  [s\:type^="dff"] rect, [s\:type^="dlatch"] rect { fill: #fff3e0; }
  /* 算術運算 (Add, Sub, Mul, Shl, Shr) - 淺紫色 */
  [s\:type="add"] circle, [s\:type="sub"] circle, [s\:type="mul"] circle,
  [s\:type="div"] circle, [s\:type="shl"] circle, [s\:type="shr"] circle,
  [s\:type="sshl"] circle, [s\:type="sshr"] circle { fill: #f3e5f5; }
  /* 輸入輸出端點 - 淺灰色 */
  [s\:type="inputExt"] path, [s\:type="outputExt"] path { fill: #eceff1; }</style>
  <g s:type="generic" transform="translate(90,93)" s:width="30" s:height="40" id="cell_$auto$ff.cc:337:slice$83">
    <text x="15" y="-4" class="nodelabel cell_$auto$ff.cc:337:slice$83" s:attribute="ref">$_SDFF_PN0_</text>
    <rect width="30" height="60" s:generic="body" class="cell_$auto$ff.cc:337:slice$83" fill="#fafafa"/>
    <g transform="translate(0,10)" s:x="0" s:y="10" s:pid="in0" id="port_$auto$ff.cc:337:slice$83~C">
      <text x="-3" y="-4" class="inputPortLabel cell_$auto$ff.cc:337:slice$83">C</text>
    </g>
    <g transform="translate(0,30)" s:x="0" s:y="10" s:pid="in0" id="port_$auto$ff.cc:337:slice$83~D">
      <text x="-3" y="-4" class="inputPortLabel cell_$auto$ff.cc:337:slice$83">D</text>
    </g>
    <g transform="translate(0,50)" s:x="0" s:y="10" s:pid="in0" id="port_$auto$ff.cc:337:slice$83~R">
      <text x="-3" y="-4" class="inputPortLabel cell_$auto$ff.cc:337:slice$83">R</text>
    </g>
    <g transform="translate(30,10)" s:x="30" s:y="10" s:pid="out0" id="port_$auto$ff.cc:337:slice$83~Q">
      <text x="5" y="-4" style="fill:#000; stroke:none" class="cell_$auto$ff.cc:337:slice$83">Q</text>
    </g>
  </g>
  <g s:type="generic" transform="translate(276,73)" s:width="30" s:height="40" id="cell_$auto$ff.cc:337:slice$84">
    <text x="15" y="-4" class="nodelabel cell_$auto$ff.cc:337:slice$84" s:attribute="ref">$_SDFF_PN0_</text>
    <rect width="30" height="60" s:generic="body" class="cell_$auto$ff.cc:337:slice$84" fill="#fafafa"/>
    <g transform="translate(0,10)" s:x="0" s:y="10" s:pid="in0" id="port_$auto$ff.cc:337:slice$84~C">
      <text x="-3" y="-4" class="inputPortLabel cell_$auto$ff.cc:337:slice$84">C</text>
    </g>
    <g transform="translate(0,30)" s:x="0" s:y="10" s:pid="in0" id="port_$auto$ff.cc:337:slice$84~D">
      <text x="-3" y="-4" class="inputPortLabel cell_$auto$ff.cc:337:slice$84">D</text>
    </g>
    <g transform="translate(0,50)" s:x="0" s:y="10" s:pid="in0" id="port_$auto$ff.cc:337:slice$84~R">
      <text x="-3" y="-4" class="inputPortLabel cell_$auto$ff.cc:337:slice$84">R</text>
    </g>
    <g transform="translate(30,10)" s:x="30" s:y="10" s:pid="out0" id="port_$auto$ff.cc:337:slice$84~Q">
      <text x="5" y="-4" style="fill:#000; stroke:none" class="cell_$auto$ff.cc:337:slice$84">Q</text>
    </g>
  </g>
  <g s:type="generic" transform="translate(462,53)" s:width="30" s:height="40" id="cell_$auto$ff.cc:337:slice$85">
    <text x="15" y="-4" class="nodelabel cell_$auto$ff.cc:337:slice$85" s:attribute="ref">$_SDFF_PN0_</text>
    <rect width="30" height="60" s:generic="body" class="cell_$auto$ff.cc:337:slice$85" fill="#fafafa"/>
    <g transform="translate(0,10)" s:x="0" s:y="10" s:pid="in0" id="port_$auto$ff.cc:337:slice$85~C">
      <text x="-3" y="-4" class="inputPortLabel cell_$auto$ff.cc:337:slice$85">C</text>
    </g>
    <g transform="translate(0,30)" s:x="0" s:y="10" s:pid="in0" id="port_$auto$ff.cc:337:slice$85~D">
      <text x="-3" y="-4" class="inputPortLabel cell_$auto$ff.cc:337:slice$85">D</text>
    </g>
    <g transform="translate(0,50)" s:x="0" s:y="10" s:pid="in0" id="port_$auto$ff.cc:337:slice$85~R">
      <text x="-3" y="-4" class="inputPortLabel cell_$auto$ff.cc:337:slice$85">R</text>
    </g>
    <g transform="translate(30,10)" s:x="30" s:y="10" s:pid="out0" id="port_$auto$ff.cc:337:slice$85~Q">
      <text x="5" y="-4" style="fill:#000; stroke:none" class="cell_$auto$ff.cc:337:slice$85">Q</text>
    </g>
  </g>
  <g s:type="generic" transform="translate(648,33)" s:width="30" s:height="40" id="cell_$auto$ff.cc:337:slice$86">
    <text x="15" y="-4" class="nodelabel cell_$auto$ff.cc:337:slice$86" s:attribute="ref">$_SDFF_PN0_</text>
    <rect width="30" height="60" s:generic="body" class="cell_$auto$ff.cc:337:slice$86" fill="#fafafa"/>
    <g transform="translate(0,10)" s:x="0" s:y="10" s:pid="in0" id="port_$auto$ff.cc:337:slice$86~C">
      <text x="-3" y="-4" class="inputPortLabel cell_$auto$ff.cc:337:slice$86">C</text>
    </g>
    <g transform="translate(0,30)" s:x="0" s:y="10" s:pid="in0" id="port_$auto$ff.cc:337:slice$86~D">
      <text x="-3" y="-4" class="inputPortLabel cell_$auto$ff.cc:337:slice$86">D</text>
    </g>
    <g transform="translate(0,50)" s:x="0" s:y="10" s:pid="in0" id="port_$auto$ff.cc:337:slice$86~R">
      <text x="-3" y="-4" class="inputPortLabel cell_$auto$ff.cc:337:slice$86">R</text>
    </g>
    <g transform="translate(30,10)" s:x="30" s:y="10" s:pid="out0" id="port_$auto$ff.cc:337:slice$86~Q">
      <text x="5" y="-4" style="fill:#000; stroke:none" class="cell_$auto$ff.cc:337:slice$86">Q</text>
    </g>
  </g>
  <g s:type="inputExt" transform="translate(12,22)" s:width="30" s:height="20" id="cell_clk">
    <text x="15" y="-4" class="nodelabel cell_clk" s:attribute="ref">clk</text>
    <s:alias val="$_inputExt_"/>
    <path d="M0,0 L0,20 L15,20 L30,10 L15,0 Z" class="cell_clk" fill="#eceff1"/>
    <g s:x="30" s:y="10" s:pid="Y"/>
  </g>
  <g s:type="inputExt" transform="translate(12,178.5)" s:width="30" s:height="20" id="cell_resetn">
    <text x="15" y="-4" class="nodelabel cell_resetn" s:attribute="ref">resetn</text>
    <s:alias val="$_inputExt_"/>
    <path d="M0,0 L0,20 L15,20 L30,10 L15,0 Z" class="cell_resetn" fill="#eceff1"/>
    <g s:x="30" s:y="10" s:pid="Y"/>
  </g>
  <g s:type="inputExt" transform="translate(12,113.5)" s:width="30" s:height="20" id="cell_in">
    <text x="15" y="-4" class="nodelabel cell_in" s:attribute="ref">in</text>
    <s:alias val="$_inputExt_"/>
    <path d="M0,0 L0,20 L15,20 L30,10 L15,0 Z" class="cell_in" fill="#eceff1"/>
    <g s:x="30" s:y="10" s:pid="Y"/>
  </g>
  <g s:type="outputExt" transform="translate(827,33.5)" s:width="30" s:height="20" id="cell_out">
    <text x="15" y="-4" class="nodelabel cell_out" s:attribute="ref">out</text>
    <s:alias val="$_outputExt_"/>
    <path d="M30,0 L30,20 L15,20 L0,10 L15,0 Z" class="cell_out" fill="#eceff1"/>
    <g s:x="0" s:y="10" s:pid="A"/>
  </g>
  <line x1="42" x2="58" y1="32" y2="32" class="net_2"/>
  <line x1="58" x2="58" y1="32" y2="103.5" class="net_2"/>
  <circle cx="58" cy="32" r="2" style="fill:#000" class="net_2"/>
  <line x1="58" x2="90" y1="103.5" y2="103.5" class="net_2"/>
  <line x1="42" x2="244" y1="32" y2="32" class="net_2"/>
  <line x1="244" x2="244" y1="32" y2="83.5" class="net_2"/>
  <circle cx="244" cy="32" r="2" style="fill:#000" class="net_2"/>
  <line x1="244" x2="276" y1="83.5" y2="83.5" class="net_2"/>
  <line x1="42" x2="430" y1="32" y2="32" class="net_2"/>
  <line x1="430" x2="430" y1="32" y2="63.5" class="net_2"/>
  <circle cx="430" cy="32" r="2" style="fill:#000" class="net_2"/>
  <line x1="430" x2="462" y1="63.5" y2="63.5" class="net_2"/>
  <line x1="42" x2="616" y1="32" y2="32" class="net_2"/>
  <line x1="616" x2="616" y1="32" y2="43.5" class="net_2"/>
  <line x1="616" x2="648" y1="43.5" y2="43.5" class="net_2"/>
  <line x1="42" x2="90" y1="123.5" y2="123.5" class="net_4"/>
  <line x1="42" x2="58" y1="188.5" y2="188.5" class="net_3"/>
  <line x1="58" x2="58" y1="188.5" y2="143.5" class="net_3"/>
  <circle cx="58" cy="188.5" r="2" style="fill:#000" class="net_3"/>
  <line x1="58" x2="90" y1="143.5" y2="143.5" class="net_3"/>
  <line x1="42" x2="244" y1="188.5" y2="188.5" class="net_3"/>
  <line x1="244" x2="244" y1="188.5" y2="123.5" class="net_3"/>
  <circle cx="244" cy="188.5" r="2" style="fill:#000" class="net_3"/>
  <line x1="244" x2="276" y1="123.5" y2="123.5" class="net_3"/>
  <line x1="42" x2="430" y1="188.5" y2="188.5" class="net_3"/>
  <line x1="430" x2="430" y1="188.5" y2="103.5" class="net_3"/>
  <circle cx="430" cy="188.5" r="2" style="fill:#000" class="net_3"/>
  <line x1="430" x2="462" y1="103.5" y2="103.5" class="net_3"/>
  <line x1="42" x2="616" y1="188.5" y2="188.5" class="net_3"/>
  <line x1="616" x2="616" y1="188.5" y2="83.5" class="net_3"/>
  <line x1="616" x2="648" y1="83.5" y2="83.5" class="net_3"/>
  <line x1="121" x2="276" y1="103.5" y2="103.5" class="net_6"/>
  <line x1="307" x2="462" y1="83.5" y2="83.5" class="net_7"/>
  <line x1="493" x2="648" y1="63.5" y2="63.5" class="net_8"/>
  <line x1="679" x2="827" y1="43.5" y2="43.5" class="net_5"/>
</svg>
