<svg xmlns="http://www.w3.org/2000/svg" xmlns:xlink="http://www.w3.org/1999/xlink" xmlns:s="https://github.com/nturley/netlistsvg" width="267" height="224.5">
  <style>svg {
    stroke:#000;
    fill:none;
    background-color: white;
  }
  text {
    fill:#000;
    stroke:none;
    font-size:10px;
    font-weight: bold;
    font-family: "Courier New", monospace;
  }
  line {
      stroke-linecap: round;
  }
  .nodelabel {
    text-anchor: middle;
  }
  .inputPortLabel {
    text-anchor: end;
  }
  .splitjoinBody {
    fill:#000;
  }
  /* --- Brandon 的客製化顏色區隔 --- */
  /* 多路選擇器 (Mux) - 淺藍色 */
  [s\:type^="mux"] path { fill: #e1f5fe; }
  /* 邏輯閘 (And, Or, Xor, Not) - 淺綠色 */
  [s\:type="and"], [s\:type="nand"], [s\:type="andnot"],
  [s\:type="or"], [s\:type="reduce_nor"], [s\:type="ornot"],
  [s\:type="reduce_xor"], [s\:type="reduce_nxor"],
  [s\:type="not"], [s\:type="buf"] path { fill: #e8f5e9; }
  /* 觸發器 (DFF) - 淺橘色 */
  [s\:type^="dff"] rect, [s\:type^="dlatch"] rect { fill: #fff3e0; }
  /* 算術運算 (Add, Sub, Mul, Shl, Shr) - 淺紫色 */
  [s\:type="add"] circle, [s\:type="sub"] circle, [s\:type="mul"] circle,
  [s\:type="div"] circle, [s\:type="shl"] circle, [s\:type="shr"] circle,
  [s\:type="sshl"] circle, [s\:type="sshr"] circle { fill: #f3e5f5; }
  /* 輸入輸出端點 - 淺灰色 */
  [s\:type="inputExt"] path, [s\:type="outputExt"] path { fill: #eceff1; }</style>
  <g s:type="dff" transform="translate(84,107.5)" s:width="30" s:height="40" id="cell_$auto$ff.cc:337:slice$7">
    <s:alias val="$dff"/>
    <s:alias val="$_DFF_"/>
    <s:alias val="$_DFF_P_"/>
    <s:alias val="$adff"/>
    <s:alias val="$_DFF_"/>
    <s:alias val="$_DFF_P_"/>
    <s:alias val="$sdff"/>
    <s:alias val="$_DFF_"/>
    <s:alias val="$_DFF_P_"/>
    <rect width="30" height="40" x="0" y="0" class="cell_$auto$ff.cc:337:slice$7" fill="#fff3e0"/>
    <path d="M0,35 L5,30 L0,25" class="cell_$auto$ff.cc:337:slice$7"/>
    <g s:x="31" s:y="10" s:pid="Q"/>
    <g s:x="-1" s:y="30" s:pid="CLK"/>
    <g s:x="-1" s:y="30" s:pid="C"/>
    <g s:x="-1" s:y="10" s:pid="D"/>
    <g s:x="15" s:y="40" s:pid="ARST"/>
    <g s:x="15" s:y="40" s:pid="SRST"/>
  </g>
  <g s:type="inputExt" transform="translate(12,127.5)" s:width="30" s:height="20" id="cell_clk">
    <text x="15" y="-4" class="nodelabel cell_clk" s:attribute="ref">clk</text>
    <s:alias val="$_inputExt_"/>
    <path d="M0,0 L0,20 L15,20 L30,10 L15,0 Z" class="cell_clk" fill="#eceff1"/>
    <g s:x="30" s:y="10" s:pid="Y"/>
  </g>
  <g s:type="inputExt" transform="translate(12,192.5)" s:width="30" s:height="20" id="cell_resetn">
    <text x="15" y="-4" class="nodelabel cell_resetn" s:attribute="ref">resetn</text>
    <s:alias val="$_inputExt_"/>
    <path d="M0,0 L0,20 L15,20 L30,10 L15,0 Z" class="cell_resetn" fill="#eceff1"/>
    <g s:x="30" s:y="10" s:pid="Y"/>
  </g>
  <g s:type="inputExt" transform="translate(150,33)" s:width="30" s:height="20" id="cell_in">
    <text x="15" y="-4" class="nodelabel cell_in" s:attribute="ref">in</text>
    <s:alias val="$_inputExt_"/>
    <path d="M0,0 L0,20 L15,20 L30,10 L15,0 Z" class="cell_in" fill="#eceff1"/>
    <g s:x="30" s:y="10" s:pid="Y"/>
  </g>
  <g s:type="outputExt" transform="translate(215,117.5)" s:width="30" s:height="20" id="cell_out">
    <text x="15" y="-4" class="nodelabel cell_out" s:attribute="ref">out</text>
    <s:alias val="$_outputExt_"/>
    <path d="M30,0 L30,20 L15,20 L0,10 L15,0 Z" class="cell_out" fill="#eceff1"/>
    <g s:x="0" s:y="10" s:pid="A"/>
  </g>
  <g s:type="join" transform="translate(222,32.5)" s:width="4" s:height="40" id="cell_$join$,4,6,7,8,">
    <rect width="5" height="40" class="splitjoinBody" s:generic="body"/>
    <s:alias val="$_join_"/>
    <g s:x="5" s:y="20" s:pid="out"/>
    <g transform="translate(0,10)" s:x="0" s:y="10" s:pid="in0">
      <text x="-3" y="-4" class="inputPortLabel">0</text>
    </g>
    <g transform="translate(0,30)" s:x="0" s:y="10" s:pid="in0">
      <text x="-3" y="-4" class="inputPortLabel">1:3</text>
    </g>
  </g>
  <g s:type="split" transform="translate(156,97)" s:width="5" s:height="40" id="cell_$split$,6,7,8,5,">
    <rect width="5" height="40" class="splitjoinBody" s:generic="body"/>
    <s:alias val="$_split_"/>
    <g s:x="0" s:y="20" s:pid="in"/>
    <g transform="translate(4,10)" s:x="4" s:y="10" s:pid="out0">
      <text x="5" y="-4">0:2</text>
    </g>
    <g transform="translate(4,30)" s:x="4" s:y="10" s:pid="out0">
      <text x="5" y="-4">3</text>
    </g>
  </g>
  <line x1="42" x2="83" y1="137.5" y2="137.5" class="net_2"/>
  <line x1="228" x2="255" y1="53" y2="53" class="net_4,6,7,8"/>
  <line x1="255" x2="255" y1="53" y2="12" class="net_4,6,7,8"/>
  <line x1="255" x2="58" y1="12" y2="12" class="net_4,6,7,8"/>
  <line x1="58" x2="58" y1="12" y2="117.5" class="net_4,6,7,8"/>
  <line x1="58" x2="83" y1="117.5" y2="117.5" class="net_4,6,7,8"/>
  <line x1="42" x2="99" y1="202.5" y2="202.5" class="net_3"/>
  <line x1="99" x2="99" y1="202.5" y2="147.5" class="net_3"/>
  <line x1="161" x2="215" y1="127.5" y2="127.5" class="net_5"/>
  <line x1="180" x2="222" y1="43" y2="43" class="net_4"/>
  <line x1="161" x2="190" y1="107.5" y2="107.5" class="net_6,7,8"/>
  <line x1="190" x2="190" y1="107.5" y2="63" class="net_6,7,8"/>
  <line x1="190" x2="222" y1="63" y2="63" class="net_6,7,8"/>
  <line x1="115" x2="156" y1="117.5" y2="117.5" class="net_6,7,8,5"/>
</svg>
