<svg xmlns="http://www.w3.org/2000/svg" xmlns:xlink="http://www.w3.org/1999/xlink" xmlns:s="https://github.com/nturley/netlistsvg" width="578" height="290">
  <style>svg {
    stroke:#000;
    fill:none;
    background-color: white;
  }
  text {
    fill:#000;
    stroke:none;
    font-size:10px;
    font-weight: bold;
    font-family: "Courier New", monospace;
  }
  line {
      stroke-linecap: round;
  }
  .nodelabel {
    text-anchor: middle;
  }
  .inputPortLabel {
    text-anchor: end;
  }
  .splitjoinBody {
    fill:#000;
  }
  /* --- Brandon 的客製化顏色區隔 --- */
  /* 多路選擇器 (Mux) - 淺藍色 */
  [s\:type^="mux"] path { fill: #e1f5fe; }
  /* 邏輯閘 (And, Or, Xor, Not) - 淺綠色 */
  [s\:type="and"], [s\:type="nand"], [s\:type="andnot"],
  [s\:type="or"], [s\:type="reduce_nor"], [s\:type="ornot"],
  [s\:type="reduce_xor"], [s\:type="reduce_nxor"],
  [s\:type="not"], [s\:type="buf"] path { fill: #e8f5e9; }
  /* 觸發器 (DFF) - 淺橘色 */
  [s\:type^="dff"] rect, [s\:type^="dlatch"] rect { fill: #fff3e0; }
  /* 算術運算 (Add, Sub, Mul, Shl, Shr) - 淺紫色 */
  [s\:type="add"] circle, [s\:type="sub"] circle, [s\:type="mul"] circle,
  [s\:type="div"] circle, [s\:type="shl"] circle, [s\:type="shr"] circle,
  [s\:type="sshl"] circle, [s\:type="sshr"] circle { fill: #f3e5f5; }
  /* 輸入輸出端點 - 淺灰色 */
  [s\:type="inputExt"] path, [s\:type="outputExt"] path { fill: #eceff1; }</style>
  <g s:type="dff" transform="translate(270,94)" s:width="30" s:height="40" id="cell_$auto$ff.cc:337:slice$87">
    <s:alias val="$dff"/>
    <s:alias val="$_DFF_"/>
    <s:alias val="$_DFF_P_"/>
    <s:alias val="$adff"/>
    <s:alias val="$_DFF_"/>
    <s:alias val="$_DFF_P_"/>
    <s:alias val="$sdff"/>
    <s:alias val="$_DFF_"/>
    <s:alias val="$_DFF_P_"/>
    <rect width="30" height="40" x="0" y="0" class="cell_$auto$ff.cc:337:slice$87" fill="#fff3e0"/>
    <path d="M0,35 L5,30 L0,25" class="cell_$auto$ff.cc:337:slice$87"/>
    <g s:x="31" s:y="10" s:pid="Q"/>
    <g s:x="-1" s:y="30" s:pid="CLK"/>
    <g s:x="-1" s:y="30" s:pid="C"/>
    <g s:x="-1" s:y="10" s:pid="D"/>
    <g s:x="15" s:y="40" s:pid="ARST"/>
    <g s:x="15" s:y="40" s:pid="SRST"/>
  </g>
  <g s:type="dff" transform="translate(392,115)" s:width="30" s:height="40" id="cell_$auto$ff.cc:337:slice$88">
    <s:alias val="$dff"/>
    <s:alias val="$_DFF_"/>
    <s:alias val="$_DFF_P_"/>
    <s:alias val="$adff"/>
    <s:alias val="$_DFF_"/>
    <s:alias val="$_DFF_P_"/>
    <s:alias val="$sdff"/>
    <s:alias val="$_DFF_"/>
    <s:alias val="$_DFF_P_"/>
    <rect width="30" height="40" x="0" y="0" class="cell_$auto$ff.cc:337:slice$88" fill="#fff3e0"/>
    <path d="M0,35 L5,30 L0,25" class="cell_$auto$ff.cc:337:slice$88"/>
    <g s:x="31" s:y="10" s:pid="Q"/>
    <g s:x="-1" s:y="30" s:pid="CLK"/>
    <g s:x="-1" s:y="30" s:pid="C"/>
    <g s:x="-1" s:y="10" s:pid="D"/>
    <g s:x="15" s:y="40" s:pid="ARST"/>
    <g s:x="15" s:y="40" s:pid="SRST"/>
  </g>
  <g s:type="dff" transform="translate(143,33)" s:width="30" s:height="40" id="cell_$auto$ff.cc:337:slice$89">
    <s:alias val="$dff"/>
    <s:alias val="$_DFF_"/>
    <s:alias val="$_DFF_P_"/>
    <s:alias val="$adff"/>
    <s:alias val="$_DFF_"/>
    <s:alias val="$_DFF_P_"/>
    <s:alias val="$sdff"/>
    <s:alias val="$_DFF_"/>
    <s:alias val="$_DFF_P_"/>
    <rect width="30" height="40" x="0" y="0" class="cell_$auto$ff.cc:337:slice$89" fill="#fff3e0"/>
    <path d="M0,35 L5,30 L0,25" class="cell_$auto$ff.cc:337:slice$89"/>
    <g s:x="31" s:y="10" s:pid="Q"/>
    <g s:x="-1" s:y="30" s:pid="CLK"/>
    <g s:x="-1" s:y="30" s:pid="C"/>
    <g s:x="-1" s:y="10" s:pid="D"/>
    <g s:x="15" s:y="40" s:pid="ARST"/>
    <g s:x="15" s:y="40" s:pid="SRST"/>
  </g>
  <g s:type="reduce_xor" transform="translate(458,23)" s:width="33" s:height="25" id="cell_$auto$simplemap.cc:106:simplemap_bitop$83">
    <s:alias val="$xor"/>
    <s:alias val="$reduce_xor"/>
    <s:alias val="$_XOR_"/>
    <path d="M3,0 A30 25 0 0 1 3,25 A30 25 0 0 0 33,12.5 A30 25 0 0 0 3,0" class="cell_$auto$simplemap.cc:106:simplemap_bitop$83" fill="#e8f5e9"/>
    <path d="M0,0 A30 25 0 0 1 0,25" class="cell_$auto$simplemap.cc:106:simplemap_bitop$83"/>
    <g s:x="2" s:y="5" s:pid="A"/>
    <g s:x="2" s:y="20" s:pid="B"/>
    <g s:x="33" s:y="12.5" s:pid="Y"/>
  </g>
  <g s:type="mux" transform="translate(214,176)" s:width="20" s:height="40" id="cell_$auto$simplemap.cc:298:simplemap_mux$84">
    <s:alias val="$pmux"/>
    <s:alias val="$mux"/>
    <s:alias val="$_MUX_"/>
    <path d="M0,0 L20,10 L20,30 L0,40 Z" class="cell_$auto$simplemap.cc:298:simplemap_mux$84" fill="#e1f5fe"/>
    <text x="5" y="32" class="nodelabel cell_$auto$simplemap.cc:298:simplemap_mux$84" s:attribute="">1</text>
    <text x="5" y="13" class="nodelabel cell_$auto$simplemap.cc:298:simplemap_mux$84" s:attribute="">0</text>
    <g s:x="0" s:y="10" s:pid="A"/>
    <g s:x="0" s:y="30" s:pid="B"/>
    <g s:x="10" s:y="35" s:pid="S"/>
    <g s:x="20" s:y="20" s:pid="Y"/>
  </g>
  <g s:type="mux" transform="translate(336,217)" s:width="20" s:height="40" id="cell_$auto$simplemap.cc:298:simplemap_mux$85">
    <s:alias val="$pmux"/>
    <s:alias val="$mux"/>
    <s:alias val="$_MUX_"/>
    <path d="M0,0 L20,10 L20,30 L0,40 Z" class="cell_$auto$simplemap.cc:298:simplemap_mux$85" fill="#e1f5fe"/>
    <text x="5" y="32" class="nodelabel cell_$auto$simplemap.cc:298:simplemap_mux$85" s:attribute="">1</text>
    <text x="5" y="13" class="nodelabel cell_$auto$simplemap.cc:298:simplemap_mux$85" s:attribute="">0</text>
    <g s:x="0" s:y="10" s:pid="A"/>
    <g s:x="0" s:y="30" s:pid="B"/>
    <g s:x="10" s:y="35" s:pid="S"/>
    <g s:x="20" s:y="20" s:pid="Y"/>
  </g>
  <g s:type="mux" transform="translate(526,25.5)" s:width="20" s:height="40" id="cell_$auto$simplemap.cc:298:simplemap_mux$86">
    <s:alias val="$pmux"/>
    <s:alias val="$mux"/>
    <s:alias val="$_MUX_"/>
    <path d="M0,0 L20,10 L20,30 L0,40 Z" class="cell_$auto$simplemap.cc:298:simplemap_mux$86" fill="#e1f5fe"/>
    <text x="5" y="32" class="nodelabel cell_$auto$simplemap.cc:298:simplemap_mux$86" s:attribute="">1</text>
    <text x="5" y="13" class="nodelabel cell_$auto$simplemap.cc:298:simplemap_mux$86" s:attribute="">0</text>
    <g s:x="0" s:y="10" s:pid="A"/>
    <g s:x="0" s:y="30" s:pid="B"/>
    <g s:x="10" s:y="35" s:pid="S"/>
    <g s:x="20" s:y="20" s:pid="Y"/>
  </g>
  <g s:type="inputExt" transform="translate(77,227)" s:width="30" s:height="20" id="cell_SW">
    <text x="15" y="-4" class="nodelabel cell_SW" s:attribute="ref">SW</text>
    <s:alias val="$_inputExt_"/>
    <path d="M0,0 L0,20 L15,20 L30,10 L15,0 Z" class="cell_SW" fill="#eceff1"/>
    <g s:x="30" s:y="10" s:pid="Y"/>
  </g>
  <g s:type="inputExt" transform="translate(12,63)" s:width="30" s:height="20" id="cell_KEY">
    <text x="15" y="-4" class="nodelabel cell_KEY" s:attribute="ref">KEY</text>
    <s:alias val="$_inputExt_"/>
    <path d="M0,0 L0,20 L15,20 L30,10 L15,0 Z" class="cell_KEY" fill="#eceff1"/>
    <g s:x="30" s:y="10" s:pid="Y"/>
  </g>
  <g s:type="outputExt" transform="translate(526,185)" s:width="30" s:height="20" id="cell_LEDR">
    <text x="15" y="-4" class="nodelabel cell_LEDR" s:attribute="ref">LEDR</text>
    <s:alias val="$_outputExt_"/>
    <path d="M30,0 L30,20 L15,20 L0,10 L15,0 Z" class="cell_LEDR" fill="#eceff1"/>
    <g s:x="0" s:y="10" s:pid="A"/>
  </g>
  <g s:type="join" transform="translate(468.75,93.5)" s:width="4" s:height="40" id="cell_$join$,7,8,9,">
    <rect width="5" height="60" class="splitjoinBody" s:generic="body"/>
    <s:alias val="$_join_"/>
    <g s:x="5" s:y="20" s:pid="out"/>
    <g transform="translate(0,10)" s:x="0" s:y="10" s:pid="in0">
      <text x="-3" y="-4" class="inputPortLabel">0</text>
    </g>
    <g transform="translate(0,30)" s:x="0" s:y="10" s:pid="in0">
      <text x="-3" y="-4" class="inputPortLabel">1</text>
    </g>
    <g transform="translate(0,50)" s:x="0" s:y="10" s:pid="in0">
      <text x="-3" y="-4" class="inputPortLabel">2</text>
    </g>
  </g>
  <g s:type="split" transform="translate(91.33333333333333,52.5)" s:width="5" s:height="40" id="cell_$split$,5,6,">
    <rect width="5" height="40" class="splitjoinBody" s:generic="body"/>
    <s:alias val="$_split_"/>
    <g s:x="0" s:y="20" s:pid="in"/>
    <g transform="translate(4,10)" s:x="4" s:y="10" s:pid="out0">
      <text x="5" y="-4">0</text>
    </g>
    <g transform="translate(4,30)" s:x="4" s:y="10" s:pid="out0">
      <text x="5" y="-4">1</text>
    </g>
  </g>
  <g s:type="split" transform="translate(158.75,216.5)" s:width="5" s:height="40" id="cell_$split$,2,3,4,">
    <rect width="5" height="60" class="splitjoinBody" s:generic="body"/>
    <s:alias val="$_split_"/>
    <g s:x="0" s:y="20" s:pid="in"/>
    <g transform="translate(4,10)" s:x="4" s:y="10" s:pid="out0">
      <text x="5" y="-4">0</text>
    </g>
    <g transform="translate(4,30)" s:x="4" s:y="10" s:pid="out0">
      <text x="5" y="-4">1</text>
    </g>
    <g transform="translate(4,50)" s:x="4" s:y="10" s:pid="out0">
      <text x="5" y="-4">2</text>
    </g>
  </g>
  <line x1="96.33333333333333" x2="127" y1="63" y2="63" class="net_5"/>
  <line x1="127" x2="127" y1="63" y2="83" class="net_5"/>
  <line x1="127" x2="254" y1="83" y2="83" class="net_5"/>
  <line x1="254" x2="254" y1="83" y2="124" class="net_5"/>
  <circle cx="127" cy="63" r="2" style="fill:#000" class="net_5"/>
  <circle cx="254" cy="83" r="2" style="fill:#000" class="net_5"/>
  <line x1="254" x2="269" y1="124" y2="124" class="net_5"/>
  <line x1="96.33333333333333" x2="127" y1="63" y2="63" class="net_5"/>
  <line x1="127" x2="127" y1="63" y2="83" class="net_5"/>
  <line x1="127" x2="376" y1="83" y2="83" class="net_5"/>
  <line x1="376" x2="376" y1="83" y2="145" class="net_5"/>
  <line x1="376" x2="391" y1="145" y2="145" class="net_5"/>
  <line x1="96.33333333333333" x2="142" y1="63" y2="63" class="net_5"/>
  <line x1="234" x2="244" y1="196" y2="196" class="net_10"/>
  <line x1="244" x2="244" y1="196" y2="104" class="net_10"/>
  <line x1="244" x2="269" y1="104" y2="104" class="net_10"/>
  <line x1="356" x2="366" y1="237" y2="237" class="net_11"/>
  <line x1="366" x2="366" y1="237" y2="125" class="net_11"/>
  <line x1="366" x2="391" y1="125" y2="125" class="net_11"/>
  <line x1="546" x2="566" y1="45.5" y2="45.5" class="net_12"/>
  <line x1="566" x2="566" y1="45.5" y2="12" class="net_12"/>
  <line x1="566" x2="127" y1="12" y2="12" class="net_12"/>
  <line x1="127" x2="127" y1="12" y2="43" class="net_12"/>
  <line x1="127" x2="142" y1="43" y2="43" class="net_12"/>
  <line x1="423" x2="433" y1="125" y2="125" class="net_8"/>
  <line x1="433" x2="433" y1="125" y2="28" class="net_8"/>
  <line x1="433" x2="460" y1="28" y2="28" class="net_8"/>
  <line x1="423" x2="433" y1="125" y2="125" class="net_8"/>
  <line x1="433" x2="433" y1="125" y2="124" class="net_8"/>
  <circle cx="433" cy="124" r="2" style="fill:#000" class="net_8"/>
  <line x1="433" x2="468.75" y1="124" y2="124" class="net_8"/>
  <line x1="174" x2="460" y1="43" y2="43" class="net_9"/>
  <line x1="174" x2="204" y1="43" y2="43" class="net_9"/>
  <line x1="204" x2="204" y1="43" y2="186" class="net_9"/>
  <circle cx="204" cy="43" r="2" style="fill:#000" class="net_9"/>
  <line x1="204" x2="214" y1="186" y2="186" class="net_9"/>
  <line x1="174" x2="443" y1="43" y2="43" class="net_9"/>
  <line x1="443" x2="443" y1="43" y2="144" class="net_9"/>
  <circle cx="443" cy="43" r="2" style="fill:#000" class="net_9"/>
  <line x1="443" x2="468.75" y1="144" y2="144" class="net_9"/>
  <line x1="163.75" x2="184" y1="227" y2="227" class="net_2"/>
  <line x1="184" x2="184" y1="227" y2="206" class="net_2"/>
  <line x1="184" x2="214" y1="206" y2="206" class="net_2"/>
  <line x1="96.33333333333333" x2="117" y1="83" y2="83" class="net_6"/>
  <line x1="117" x2="117" y1="83" y2="165" class="net_6"/>
  <line x1="117" x2="194" y1="165" y2="165" class="net_6"/>
  <line x1="194" x2="194" y1="165" y2="237" class="net_6"/>
  <line x1="194" x2="224" y1="237" y2="237" class="net_6"/>
  <line x1="224" x2="224" y1="237" y2="211" class="net_6"/>
  <line x1="96.33333333333333" x2="117" y1="83" y2="83" class="net_6"/>
  <line x1="117" x2="117" y1="83" y2="165" class="net_6"/>
  <line x1="117" x2="194" y1="165" y2="165" class="net_6"/>
  <line x1="194" x2="194" y1="165" y2="226" class="net_6"/>
  <line x1="194" x2="254" y1="226" y2="226" class="net_6"/>
  <line x1="254" x2="254" y1="226" y2="165" class="net_6"/>
  <line x1="254" x2="311" y1="165" y2="165" class="net_6"/>
  <line x1="311" x2="311" y1="165" y2="267" class="net_6"/>
  <line x1="311" x2="346" y1="267" y2="267" class="net_6"/>
  <circle cx="194" cy="165" r="2" style="fill:#000" class="net_6"/>
  <circle cx="194" cy="226" r="2" style="fill:#000" class="net_6"/>
  <circle cx="254" cy="165" r="2" style="fill:#000" class="net_6"/>
  <circle cx="311" cy="165" r="2" style="fill:#000" class="net_6"/>
  <line x1="346" x2="346" y1="267" y2="252" class="net_6"/>
  <line x1="96.33333333333333" x2="117" y1="83" y2="83" class="net_6"/>
  <line x1="117" x2="117" y1="83" y2="165" class="net_6"/>
  <line x1="117" x2="536" y1="165" y2="165" class="net_6"/>
  <line x1="536" x2="536" y1="165" y2="60.5" class="net_6"/>
  <line x1="301" x2="321" y1="104" y2="104" class="net_7"/>
  <line x1="321" x2="321" y1="104" y2="227" class="net_7"/>
  <circle cx="321" cy="104" r="2" style="fill:#000" class="net_7"/>
  <line x1="321" x2="336" y1="227" y2="227" class="net_7"/>
  <line x1="301" x2="468.75" y1="104" y2="104" class="net_7"/>
  <line x1="163.75" x2="336" y1="247" y2="247" class="net_3"/>
  <line x1="491" x2="526" y1="35.5" y2="35.5" class="net_13"/>
  <line x1="163.75" x2="184" y1="267" y2="267" class="net_4"/>
  <line x1="184" x2="184" y1="267" y2="277" class="net_4"/>
  <line x1="184" x2="501" y1="277" y2="277" class="net_4"/>
  <line x1="501" x2="501" y1="277" y2="55.5" class="net_4"/>
  <line x1="501" x2="526" y1="55.5" y2="55.5" class="net_4"/>
  <line x1="474.75" x2="511" y1="114" y2="114" class="net_7,8,9"/>
  <line x1="511" x2="511" y1="114" y2="195" class="net_7,8,9"/>
  <line x1="511" x2="526" y1="195" y2="195" class="net_7,8,9"/>
  <line x1="42" x2="91.33333333333333" y1="73" y2="73" class="net_5,6"/>
  <line x1="107" x2="158.75" y1="237" y2="237" class="net_2,3,4"/>
</svg>
