<svg xmlns="http://www.w3.org/2000/svg" xmlns:xlink="http://www.w3.org/1999/xlink" xmlns:s="https://github.com/nturley/netlistsvg" width="344" height="333">
  <style>svg {
    stroke:#000;
    fill:none;
    background-color: white;
  }
  text {
    fill:#000;
    stroke:none;
    font-size:10px;
    font-weight: bold;
    font-family: "Courier New", monospace;
  }
  line {
      stroke-linecap: round;
  }
  .nodelabel {
    text-anchor: middle;
  }
  .inputPortLabel {
    text-anchor: end;
  }
  .splitjoinBody {
    fill:#000;
  }
  /* --- Brandon 的客製化顏色區隔 --- */
  /* 多路選擇器 (Mux) - 淺藍色 */
  [s\:type^="mux"] path { fill: #e1f5fe; }
  /* 邏輯閘 (And, Or, Xor, Not) - 淺綠色 */
  [s\:type="and"], [s\:type="nand"], [s\:type="andnot"],
  [s\:type="or"], [s\:type="reduce_nor"], [s\:type="ornot"],
  [s\:type="reduce_xor"], [s\:type="reduce_nxor"],
  [s\:type="not"], [s\:type="buf"] path { fill: #e8f5e9; }
  /* 觸發器 (DFF) - 淺橘色 */
  [s\:type^="dff"] rect, [s\:type^="dlatch"] rect { fill: #fff3e0; }
  /* 算術運算 (Add, Sub, Mul, Shl, Shr) - 淺紫色 */
  [s\:type="add"] circle, [s\:type="sub"] circle, [s\:type="mul"] circle,
  [s\:type="div"] circle, [s\:type="shl"] circle, [s\:type="shr"] circle,
  [s\:type="sshl"] circle, [s\:type="sshr"] circle { fill: #f3e5f5; }
  /* 輸入輸出端點 - 淺灰色 */
  [s\:type="inputExt"] path, [s\:type="outputExt"] path { fill: #eceff1; }</style>
  <g s:type="dff" transform="translate(236,34.5)" s:width="30" s:height="40" id="cell_$auto$ff.cc:337:slice$10">
    <s:alias val="$dff"/>
    <s:alias val="$_DFF_"/>
    <s:alias val="$_DFF_P_"/>
    <s:alias val="$adff"/>
    <s:alias val="$_DFF_"/>
    <s:alias val="$_DFF_P_"/>
    <s:alias val="$sdff"/>
    <s:alias val="$_DFF_"/>
    <s:alias val="$_DFF_P_"/>
    <rect width="30" height="40" x="0" y="0" class="cell_$auto$ff.cc:337:slice$10" fill="#fff3e0"/>
    <path d="M0,35 L5,30 L0,25" class="cell_$auto$ff.cc:337:slice$10"/>
    <g s:x="31" s:y="10" s:pid="Q"/>
    <g s:x="-1" s:y="30" s:pid="CLK"/>
    <g s:x="-1" s:y="30" s:pid="C"/>
    <g s:x="-1" s:y="10" s:pid="D"/>
    <g s:x="15" s:y="40" s:pid="ARST"/>
    <g s:x="15" s:y="40" s:pid="SRST"/>
  </g>
  <g s:type="reduce_xor" transform="translate(97,165)" s:width="33" s:height="25" id="cell_$xor$../rtl/top.v:18$2">
    <s:alias val="$xor"/>
    <s:alias val="$reduce_xor"/>
    <s:alias val="$_XOR_"/>
    <path d="M3,0 A30 25 0 0 1 3,25 A30 25 0 0 0 33,12.5 A30 25 0 0 0 3,0" class="cell_$xor$../rtl/top.v:18$2" fill="#e8f5e9"/>
    <path d="M0,0 A30 25 0 0 1 0,25" class="cell_$xor$../rtl/top.v:18$2"/>
    <g s:x="2" s:y="5" s:pid="A"/>
    <g s:x="2" s:y="20" s:pid="B"/>
    <g s:x="33" s:y="12.5" s:pid="Y"/>
  </g>
  <g s:type="reduce_xor" transform="translate(97,225)" s:width="33" s:height="25" id="cell_$xor$../rtl/top.v:18$3">
    <s:alias val="$xor"/>
    <s:alias val="$reduce_xor"/>
    <s:alias val="$_XOR_"/>
    <path d="M3,0 A30 25 0 0 1 3,25 A30 25 0 0 0 33,12.5 A30 25 0 0 0 3,0" class="cell_$xor$../rtl/top.v:18$3" fill="#e8f5e9"/>
    <path d="M0,0 A30 25 0 0 1 0,25" class="cell_$xor$../rtl/top.v:18$3"/>
    <g s:x="2" s:y="5" s:pid="A"/>
    <g s:x="2" s:y="20" s:pid="B"/>
    <g s:x="33" s:y="12.5" s:pid="Y"/>
  </g>
  <g s:type="reduce_xor" transform="translate(97,285)" s:width="33" s:height="25" id="cell_$xor$../rtl/top.v:18$4">
    <s:alias val="$xor"/>
    <s:alias val="$reduce_xor"/>
    <s:alias val="$_XOR_"/>
    <path d="M3,0 A30 25 0 0 1 3,25 A30 25 0 0 0 33,12.5 A30 25 0 0 0 3,0" class="cell_$xor$../rtl/top.v:18$4" fill="#e8f5e9"/>
    <path d="M0,0 A30 25 0 0 1 0,25" class="cell_$xor$../rtl/top.v:18$4"/>
    <g s:x="2" s:y="5" s:pid="A"/>
    <g s:x="2" s:y="20" s:pid="B"/>
    <g s:x="33" s:y="12.5" s:pid="Y"/>
  </g>
  <g s:type="inputExt" transform="translate(170,174)" s:width="30" s:height="20" id="cell_clk">
    <text x="15" y="-4" class="nodelabel cell_clk" s:attribute="ref">clk</text>
    <s:alias val="$_inputExt_"/>
    <path d="M0,0 L0,20 L15,20 L30,10 L15,0 Z" class="cell_clk" fill="#eceff1"/>
    <g s:x="30" s:y="10" s:pid="Y"/>
  </g>
  <g s:type="inputExt" transform="translate(170,239)" s:width="30" s:height="20" id="cell_reset">
    <text x="15" y="-4" class="nodelabel cell_reset" s:attribute="ref">reset</text>
    <s:alias val="$_inputExt_"/>
    <path d="M0,0 L0,20 L15,20 L30,10 L15,0 Z" class="cell_reset" fill="#eceff1"/>
    <g s:x="30" s:y="10" s:pid="Y"/>
  </g>
  <g s:type="outputExt" transform="translate(302,34.5)" s:width="30" s:height="20" id="cell_q">
    <text x="15" y="-4" class="nodelabel cell_q" s:attribute="ref">q</text>
    <s:alias val="$_outputExt_"/>
    <path d="M30,0 L30,20 L15,20 L0,10 L15,0 Z" class="cell_q" fill="#eceff1"/>
    <g s:x="0" s:y="10" s:pid="A"/>
  </g>
  <g s:type="join" transform="translate(175.2,24)" s:width="4" s:height="40" id="cell_$join$,36,37,7,8,9,10,11,12,13,14,15,16,17,18,19,20,21,22,23,24,25,38,27,28,29,30,31,32,33,34,35,4,">
    <rect width="5" height="120" class="splitjoinBody" s:generic="body"/>
    <s:alias val="$_join_"/>
    <g s:x="5" s:y="20" s:pid="out"/>
    <g transform="translate(0,10)" s:x="0" s:y="10" s:pid="in0">
      <text x="-3" y="-4" class="inputPortLabel">0</text>
    </g>
    <g transform="translate(0,30)" s:x="0" s:y="10" s:pid="in0">
      <text x="-3" y="-4" class="inputPortLabel">1</text>
    </g>
    <g transform="translate(0,50)" s:x="0" s:y="10" s:pid="in0">
      <text x="-3" y="-4" class="inputPortLabel">2:20</text>
    </g>
    <g transform="translate(0,70)" s:x="0" s:y="10" s:pid="in0">
      <text x="-3" y="-4" class="inputPortLabel">21</text>
    </g>
    <g transform="translate(0,90)" s:x="0" s:y="10" s:pid="in0">
      <text x="-3" y="-4" class="inputPortLabel">22:30</text>
    </g>
    <g transform="translate(0,110)" s:x="0" s:y="10" s:pid="in0">
      <text x="-3" y="-4" class="inputPortLabel">31</text>
    </g>
  </g>
  <g s:type="split" transform="translate(32,114.5)" s:width="5" s:height="40" id="cell_$split$,4,5,6,7,8,9,10,11,12,13,14,15,16,17,18,19,20,21,22,23,24,25,26,27,28,29,30,31,32,33,34,35,">
    <rect width="5" height="120" class="splitjoinBody" s:generic="body"/>
    <s:alias val="$_split_"/>
    <g s:x="0" s:y="20" s:pid="in"/>
    <g transform="translate(4,10)" s:x="4" s:y="10" s:pid="out0">
      <text x="5" y="-4">3:21</text>
    </g>
    <g transform="translate(4,30)" s:x="4" s:y="10" s:pid="out0">
      <text x="5" y="-4">23:31</text>
    </g>
    <g transform="translate(4,50)" s:x="4" s:y="10" s:pid="out0">
      <text x="5" y="-4">0</text>
    </g>
    <g transform="translate(4,70)" s:x="4" s:y="10" s:pid="out0">
      <text x="5" y="-4">1</text>
    </g>
    <g transform="translate(4,90)" s:x="4" s:y="10" s:pid="out0">
      <text x="5" y="-4">2</text>
    </g>
    <g transform="translate(4,110)" s:x="4" s:y="10" s:pid="out0">
      <text x="5" y="-4">22</text>
    </g>
  </g>
  <line x1="200" x2="210" y1="184" y2="184" class="net_2"/>
  <line x1="210" x2="210" y1="184" y2="64.5" class="net_2"/>
  <line x1="210" x2="235" y1="64.5" y2="64.5" class="net_2"/>
  <line x1="181.2" x2="235" y1="44.5" y2="44.5" class="net_36,37,7,8,9,10,11,12,13,14,15,16,17,18,19,20,21,22,23,24,25,38,27,28,29,30,31,32,33,34,35,4"/>
  <line x1="200" x2="251" y1="249" y2="249" class="net_3"/>
  <line x1="251" x2="251" y1="249" y2="74.5" class="net_3"/>
  <line x1="37" x2="82" y1="165" y2="165" class="net_4"/>
  <line x1="82" x2="82" y1="165" y2="170" class="net_4"/>
  <circle cx="82" cy="165" r="2" style="fill:#000" class="net_4"/>
  <circle cx="82" cy="170" r="2" style="fill:#000" class="net_4"/>
  <line x1="82" x2="99" y1="170" y2="170" class="net_4"/>
  <line x1="37" x2="82" y1="165" y2="165" class="net_4"/>
  <line x1="82" x2="82" y1="165" y2="230" class="net_4"/>
  <circle cx="82" cy="230" r="2" style="fill:#000" class="net_4"/>
  <line x1="82" x2="99" y1="230" y2="230" class="net_4"/>
  <line x1="37" x2="82" y1="165" y2="165" class="net_4"/>
  <line x1="82" x2="82" y1="165" y2="305" class="net_4"/>
  <line x1="82" x2="99" y1="305" y2="305" class="net_4"/>
  <line x1="37" x2="82" y1="165" y2="165" class="net_4"/>
  <line x1="82" x2="82" y1="165" y2="154" class="net_4"/>
  <line x1="82" x2="175.7" y1="154" y2="154" class="net_4"/>
  <line x1="175.7" x2="175.7" y1="154" y2="135" class="net_4"/>
  <line x1="37" x2="99" y1="185" y2="185" class="net_5"/>
  <line x1="37" x2="72" y1="205" y2="205" class="net_6"/>
  <line x1="72" x2="72" y1="205" y2="245" class="net_6"/>
  <line x1="72" x2="99" y1="245" y2="245" class="net_6"/>
  <line x1="36.5" x2="36.5" y1="225.5" y2="290" class="net_26"/>
  <line x1="36.5" x2="99" y1="290" y2="290" class="net_26"/>
  <line x1="267" x2="302" y1="44.5" y2="44.5" class="net_4,5,6,7,8,9,10,11,12,13,14,15,16,17,18,19,20,21,22,23,24,25,26,27,28,29,30,31,32,33,34,35"/>
  <line x1="267" x2="277" y1="44.5" y2="44.5" class="net_4,5,6,7,8,9,10,11,12,13,14,15,16,17,18,19,20,21,22,23,24,25,26,27,28,29,30,31,32,33,34,35"/>
  <line x1="277" x2="277" y1="44.5" y2="320" class="net_4,5,6,7,8,9,10,11,12,13,14,15,16,17,18,19,20,21,22,23,24,25,26,27,28,29,30,31,32,33,34,35"/>
  <line x1="277" x2="12" y1="320" y2="320" class="net_4,5,6,7,8,9,10,11,12,13,14,15,16,17,18,19,20,21,22,23,24,25,26,27,28,29,30,31,32,33,34,35"/>
  <line x1="12" x2="12" y1="320" y2="135" class="net_4,5,6,7,8,9,10,11,12,13,14,15,16,17,18,19,20,21,22,23,24,25,26,27,28,29,30,31,32,33,34,35"/>
  <circle cx="277" cy="44.5" r="2" style="fill:#000" class="net_4,5,6,7,8,9,10,11,12,13,14,15,16,17,18,19,20,21,22,23,24,25,26,27,28,29,30,31,32,33,34,35"/>
  <line x1="12" x2="32" y1="135" y2="135" class="net_4,5,6,7,8,9,10,11,12,13,14,15,16,17,18,19,20,21,22,23,24,25,26,27,28,29,30,31,32,33,34,35"/>
  <line x1="130" x2="140" y1="177.5" y2="177.5" class="net_36"/>
  <line x1="140" x2="140" y1="177.5" y2="12" class="net_36"/>
  <line x1="140" x2="175.7" y1="12" y2="12" class="net_36"/>
  <line x1="175.7" x2="175.7" y1="12" y2="34" class="net_36"/>
  <line x1="130" x2="150" y1="237.5" y2="237.5" class="net_37"/>
  <line x1="150" x2="150" y1="237.5" y2="54.5" class="net_37"/>
  <line x1="150" x2="175.2" y1="54.5" y2="54.5" class="net_37"/>
  <line x1="36.5" x2="36.5" y1="124.5" y2="74.5" class="net_7,8,9,10,11,12,13,14,15,16,17,18,19,20,21,22,23,24,25"/>
  <line x1="36.5" x2="175.2" y1="74.5" y2="74.5" class="net_7,8,9,10,11,12,13,14,15,16,17,18,19,20,21,22,23,24,25"/>
  <line x1="130" x2="160" y1="297.5" y2="297.5" class="net_38"/>
  <line x1="160" x2="160" y1="297.5" y2="94.5" class="net_38"/>
  <line x1="160" x2="175.2" y1="94.5" y2="94.5" class="net_38"/>
  <line x1="37" x2="72" y1="145" y2="145" class="net_27,28,29,30,31,32,33,34,35"/>
  <line x1="72" x2="72" y1="145" y2="114.5" class="net_27,28,29,30,31,32,33,34,35"/>
  <line x1="72" x2="175.2" y1="114.5" y2="114.5" class="net_27,28,29,30,31,32,33,34,35"/>
</svg>
