<svg xmlns="http://www.w3.org/2000/svg" xmlns:xlink="http://www.w3.org/1999/xlink" xmlns:s="https://github.com/nturley/netlistsvg" width="519" height="269">
  <style>svg {
    stroke:#000;
    fill:none;
    background-color: white;
  }
  text {
    fill:#000;
    stroke:none;
    font-size:10px;
    font-weight: bold;
    font-family: "Courier New", monospace;
  }
  line {
      stroke-linecap: round;
  }
  .nodelabel {
    text-anchor: middle;
  }
  .inputPortLabel {
    text-anchor: end;
  }
  .splitjoinBody {
    fill:#000;
  }
  /* --- Brandon 的客製化顏色區隔 --- */
  /* 多路選擇器 (Mux) - 淺藍色 */
  [s\:type^="mux"] path { fill: #e1f5fe; }
  /* 邏輯閘 (And, Or, Xor, Not) - 淺綠色 */
  [s\:type="and"], [s\:type="nand"], [s\:type="andnot"],
  [s\:type="or"], [s\:type="reduce_nor"], [s\:type="ornot"],
  [s\:type="reduce_xor"], [s\:type="reduce_nxor"],
  [s\:type="not"], [s\:type="buf"] path { fill: #e8f5e9; }
  /* 觸發器 (DFF) - 淺橘色 */
  [s\:type^="dff"] rect, [s\:type^="dlatch"] rect { fill: #fff3e0; }
  /* 算術運算 (Add, Sub, Mul, Shl, Shr) - 淺紫色 */
  [s\:type="add"] circle, [s\:type="sub"] circle, [s\:type="mul"] circle,
  [s\:type="div"] circle, [s\:type="shl"] circle, [s\:type="shr"] circle,
  [s\:type="sshl"] circle, [s\:type="sshr"] circle { fill: #f3e5f5; }
  /* 輸入輸出端點 - 淺灰色 */
  [s\:type="inputExt"] path, [s\:type="outputExt"] path { fill: #eceff1; }</style>
  <g s:type="add" transform="translate(467,27)" s:width="25" s:height="25" id="cell_$add$../rtl/fpga_project.v:59$3">
    <s:alias val="$add"/>
    <circle r="12.5" cx="12.5" cy="12.5" class="cell_$add$../rtl/fpga_project.v:59$3" fill="#f3e5f5"/>
    <line x1="7.5" x2="17.5" y1="12.5" y2="12.5" class="cell_$add$../rtl/fpga_project.v:59$3"/>
    <line x1="12.5" x2="12.5" y1="7.5" y2="17.5" class="cell_$add$../rtl/fpga_project.v:59$3"/>
    <g s:x="2" s:y="5" s:pid="A"/>
    <g s:x="2" s:y="20" s:pid="B"/>
    <g s:x="26" s:y="12.5" s:pid="Y"/>
  </g>
  <g s:type="dff" transform="translate(203,22)" s:width="30" s:height="40" id="cell_$procdff$10">
    <s:alias val="$dff"/>
    <s:alias val="$_DFF_"/>
    <s:alias val="$_DFF_P_"/>
    <s:alias val="$adff"/>
    <s:alias val="$_DFF_"/>
    <s:alias val="$_DFF_P_"/>
    <s:alias val="$sdff"/>
    <s:alias val="$_DFF_"/>
    <s:alias val="$_DFF_P_"/>
    <rect width="30" height="40" x="0" y="0" class="cell_$procdff$10" fill="#fff3e0"/>
    <path d="M0,35 L5,30 L0,25" class="cell_$procdff$10"/>
    <g s:x="31" s:y="10" s:pid="Q"/>
    <g s:x="-1" s:y="30" s:pid="CLK"/>
    <g s:x="-1" s:y="30" s:pid="C"/>
    <g s:x="-1" s:y="10" s:pid="D"/>
    <g s:x="15" s:y="40" s:pid="ARST"/>
    <g s:x="15" s:y="40" s:pid="SRST"/>
  </g>
  <g s:type="shl" transform="translate(337,163)" s:width="25" s:height="25" id="cell_$shl$../rtl/fpga_project.v:62$4">
    <s:alias val="$shl"/>
    <circle r="12" cx="12" cy="12" class="cell_$shl$../rtl/fpga_project.v:62$4" fill="#e0f2f1"/>
    <line x1="6" x2="11" y1="12" y2="7" class="cell_$shl$../rtl/fpga_project.v:62$4"/>
    <line x1="6" x2="11" y1="12" y2="17" class="cell_$shl$../rtl/fpga_project.v:62$4"/>
    <line x1="12" x2="17" y1="12" y2="7" class="cell_$shl$../rtl/fpga_project.v:62$4"/>
    <line x1="12" x2="17" y1="12" y2="17" class="cell_$shl$../rtl/fpga_project.v:62$4"/>
    <g s:x="2" s:y="5" s:pid="A"/>
    <g s:x="2" s:y="20" s:pid="B"/>
    <g s:x="25" s:y="12.5" s:pid="Y"/>
  </g>
  <g s:type="mux" transform="translate(404.6666666666667,108)" s:width="20" s:height="40" id="cell_$ternary$../rtl/fpga_project.v:62$5">
    <s:alias val="$pmux"/>
    <s:alias val="$mux"/>
    <s:alias val="$_MUX_"/>
    <path d="M0,0 L20,10 L20,30 L0,40 Z" class="cell_$ternary$../rtl/fpga_project.v:62$5" fill="#e1f5fe"/>
    <text x="5" y="32" class="nodelabel cell_$ternary$../rtl/fpga_project.v:62$5" s:attribute="">1</text>
    <text x="5" y="13" class="nodelabel cell_$ternary$../rtl/fpga_project.v:62$5" s:attribute="">0</text>
    <g s:x="0" s:y="10" s:pid="A"/>
    <g s:x="0" s:y="30" s:pid="B"/>
    <g s:x="10" s:y="35" s:pid="S"/>
    <g s:x="20" s:y="20" s:pid="Y"/>
  </g>
  <g s:type="inputExt" transform="translate(119,42)" s:width="30" s:height="20" id="cell_CLOCK_50">
    <text x="15" y="-4" class="nodelabel cell_CLOCK_50" s:attribute="ref">CLOCK_50</text>
    <s:alias val="$_inputExt_"/>
    <path d="M0,0 L0,20 L15,20 L30,10 L15,0 Z" class="cell_CLOCK_50" fill="#eceff1"/>
    <g s:x="30" s:y="10" s:pid="Y"/>
  </g>
  <g s:type="outputExt" transform="translate(467,118)" s:width="30" s:height="20" id="cell_LED">
    <text x="15" y="-4" class="nodelabel cell_LED" s:attribute="ref">LED</text>
    <s:alias val="$_outputExt_"/>
    <path d="M30,0 L30,20 L15,20 L0,10 L15,0 Z" class="cell_LED" fill="#eceff1"/>
    <g s:x="0" s:y="10" s:pid="A"/>
  </g>
  <g s:type="inputExt" transform="translate(54,120)" s:width="30" s:height="20" id="cell_KEY">
    <text x="15" y="-4" class="nodelabel cell_KEY" s:attribute="ref">KEY</text>
    <s:alias val="$_inputExt_"/>
    <path d="M0,0 L0,20 L15,20 L30,10 L15,0 Z" class="cell_KEY" fill="#eceff1"/>
    <g s:x="30" s:y="10" s:pid="Y"/>
  </g>
  <g s:type="inputExt" transform="translate(12,22)" s:width="30" s:height="20" id="cell_SW">
    <text x="15" y="-4" class="nodelabel cell_SW" s:attribute="ref">SW</text>
    <s:alias val="$_inputExt_"/>
    <path d="M0,0 L0,20 L15,20 L30,10 L15,0 Z" class="cell_SW" fill="#eceff1"/>
    <g s:x="30" s:y="10" s:pid="Y"/>
  </g>
  <g s:type="constant" transform="translate(401,53)" s:width="30" s:height="20" id="cell_00000000000000000000000000000001">
    <text x="15" y="-4" class="nodelabel cell_00000000000000000000000000000001" s:attribute="ref">0x1</text>
    <s:alias val="$_constant_"/>
    <rect width="30" height="20" class="cell_00000000000000000000000000000001" fill="#eceff1"/>
    <g s:x="31" s:y="10" s:pid="Y"/>
  </g>
  <g s:type="constant" transform="translate(269,158)" s:width="30" s:height="20" id="cell_00000001">
    <text x="15" y="-4" class="nodelabel cell_00000001" s:attribute="ref">0x1</text>
    <s:alias val="$_constant_"/>
    <rect width="30" height="20" class="cell_00000001" fill="#eceff1"/>
    <g s:x="31" s:y="10" s:pid="Y"/>
  </g>
  <g s:type="constant" transform="translate(335,108)" s:width="30" s:height="20" id="cell_00000000">
    <text x="15" y="-4" class="nodelabel cell_00000000" s:attribute="ref">0x0</text>
    <s:alias val="$_constant_"/>
    <rect width="30" height="20" class="cell_00000000" fill="#eceff1"/>
    <g s:x="31" s:y="10" s:pid="Y"/>
  </g>
  <g s:type="split" transform="translate(144,97)" s:width="5" s:height="40" id="cell_$split$,11,12,">
    <rect width="5" height="20" class="splitjoinBody" s:generic="body"/>
    <s:alias val="$_split_"/>
    <g s:x="0" s:y="20" s:pid="in"/>
    <g transform="translate(4,10)" s:x="4" s:y="10" s:pid="out0">
      <text x="5" y="-4">0</text>
    </g>
  </g>
  <g s:type="split" transform="translate(276,213)" s:width="5" s:height="40" id="cell_$split$,17,18,19,20,21,22,23,24,25,26,27,28,29,30,31,32,33,34,35,36,37,38,39,40,41,42,43,44,45,46,47,48,">
    <rect width="5" height="20" class="splitjoinBody" s:generic="body"/>
    <s:alias val="$_split_"/>
    <g s:x="0" s:y="20" s:pid="in"/>
    <g transform="translate(4,10)" s:x="4" s:y="10" s:pid="out0">
      <text x="5" y="-4">1:3</text>
    </g>
  </g>
  <line x1="234" x2="469" y1="32" y2="32" class="net_17,18,19,20,21,22,23,24,25,26,27,28,29,30,31,32,33,34,35,36,37,38,39,40,41,42,43,44,45,46,47,48"/>
  <line x1="234" x2="244" y1="32" y2="32" class="net_17,18,19,20,21,22,23,24,25,26,27,28,29,30,31,32,33,34,35,36,37,38,39,40,41,42,43,44,45,46,47,48"/>
  <line x1="244" x2="244" y1="32" y2="246" class="net_17,18,19,20,21,22,23,24,25,26,27,28,29,30,31,32,33,34,35,36,37,38,39,40,41,42,43,44,45,46,47,48"/>
  <line x1="244" x2="276.5" y1="246" y2="246" class="net_17,18,19,20,21,22,23,24,25,26,27,28,29,30,31,32,33,34,35,36,37,38,39,40,41,42,43,44,45,46,47,48"/>
  <circle cx="244" cy="32" r="2" style="fill:#000" class="net_17,18,19,20,21,22,23,24,25,26,27,28,29,30,31,32,33,34,35,36,37,38,39,40,41,42,43,44,45,46,47,48"/>
  <line x1="276.5" x2="276.5" y1="246" y2="234" class="net_17,18,19,20,21,22,23,24,25,26,27,28,29,30,31,32,33,34,35,36,37,38,39,40,41,42,43,44,45,46,47,48"/>
  <line x1="432" x2="442" y1="63" y2="63" class="net_89,90,91,92,93,94,95,96,97,98,99,100,101,102,103,104,105,106,107,108,109,110,111,112,113,114,115,116,117,118,119,120"/>
  <line x1="442" x2="442" y1="63" y2="47" class="net_89,90,91,92,93,94,95,96,97,98,99,100,101,102,103,104,105,106,107,108,109,110,111,112,113,114,115,116,117,118,119,120"/>
  <line x1="442" x2="469" y1="47" y2="47" class="net_89,90,91,92,93,94,95,96,97,98,99,100,101,102,103,104,105,106,107,108,109,110,111,112,113,114,115,116,117,118,119,120"/>
  <line x1="149" x2="218" y1="107.5" y2="107.5" class="net_11"/>
  <line x1="218" x2="218" y1="107.5" y2="62" class="net_11"/>
  <line x1="149" x2="177" y1="107.5" y2="107.5" class="net_11"/>
  <line x1="177" x2="177" y1="107.5" y2="256" class="net_11"/>
  <line x1="177" x2="414.6666666666667" y1="256" y2="256" class="net_11"/>
  <circle cx="177" cy="107.5" r="2" style="fill:#000" class="net_11"/>
  <line x1="414.6666666666667" x2="414.6666666666667" y1="256" y2="143" class="net_11"/>
  <line x1="149" x2="202" y1="52" y2="52" class="net_2"/>
  <line x1="493" x2="507" y1="39.5" y2="39.5" class="net_49,50,51,52,53,54,55,56,57,58,59,60,61,62,63,64,65,66,67,68,69,70,71,72,73,74,75,76,77,78,79,80"/>
  <line x1="507" x2="507" y1="39.5" y2="12" class="net_49,50,51,52,53,54,55,56,57,58,59,60,61,62,63,64,65,66,67,68,69,70,71,72,73,74,75,76,77,78,79,80"/>
  <line x1="507" x2="177" y1="12" y2="12" class="net_49,50,51,52,53,54,55,56,57,58,59,60,61,62,63,64,65,66,67,68,69,70,71,72,73,74,75,76,77,78,79,80"/>
  <line x1="177" x2="177" y1="12" y2="32" class="net_49,50,51,52,53,54,55,56,57,58,59,60,61,62,63,64,65,66,67,68,69,70,71,72,73,74,75,76,77,78,79,80"/>
  <line x1="177" x2="202" y1="32" y2="32" class="net_49,50,51,52,53,54,55,56,57,58,59,60,61,62,63,64,65,66,67,68,69,70,71,72,73,74,75,76,77,78,79,80"/>
  <line x1="300" x2="339" y1="168" y2="168" class="net_121,122,123,124,125,126,127,128"/>
  <line x1="281" x2="310" y1="223.5" y2="223.5" class="net_18,19,20"/>
  <line x1="310" x2="310" y1="223.5" y2="183" class="net_18,19,20"/>
  <line x1="310" x2="339" y1="183" y2="183" class="net_18,19,20"/>
  <line x1="366" x2="404.6666666666667" y1="118" y2="118" class="net_129,130,131,132,133,134,135,136"/>
  <line x1="362" x2="376" y1="175.5" y2="175.5" class="net_81,82,83,84,85,86,87,88"/>
  <line x1="376" x2="376" y1="175.5" y2="138" class="net_81,82,83,84,85,86,87,88"/>
  <line x1="376" x2="404.6666666666667" y1="138" y2="138" class="net_81,82,83,84,85,86,87,88"/>
  <line x1="424.6666666666667" x2="467" y1="128" y2="128" class="net_3,4,5,6,7,8,9,10"/>
  <line x1="84" x2="144.5" y1="130" y2="130" class="net_11,12"/>
  <line x1="144.5" x2="144.5" y1="130" y2="118" class="net_11,12"/>
</svg>
