<svg xmlns="http://www.w3.org/2000/svg" xmlns:xlink="http://www.w3.org/1999/xlink" xmlns:s="https://github.com/nturley/netlistsvg" width="1165" height="353">
  <style>svg {
    stroke:#000;
    fill:none;
    background-color: white;
  }
  text {
    fill:#000;
    stroke:none;
    font-size:10px;
    font-weight: bold;
    font-family: "Courier New", monospace;
  }
  line {
      stroke-linecap: round;
  }
  .nodelabel {
    text-anchor: middle;
  }
  .inputPortLabel {
    text-anchor: end;
  }
  .splitjoinBody {
    fill:#000;
  }
  /* --- Brandon 的客製化顏色區隔 --- */
  /* 多路選擇器 (Mux) - 淺藍色 */
  [s\:type^="mux"] path { fill: #e1f5fe; }
  /* 邏輯閘 (And, Or, Xor, Not) - 淺綠色 */
  [s\:type="and"], [s\:type="nand"], [s\:type="andnot"],
  [s\:type="or"], [s\:type="reduce_nor"], [s\:type="ornot"],
  [s\:type="reduce_xor"], [s\:type="reduce_nxor"],
  [s\:type="not"], [s\:type="buf"] path { fill: #e8f5e9; }
  /* 觸發器 (DFF) - 淺橘色 */
  [s\:type^="dff"] rect, [s\:type^="dlatch"] rect { fill: #fff3e0; }
  /* 算術運算 (Add, Sub, Mul, Shl, Shr) - 淺紫色 */
  [s\:type="add"] circle, [s\:type="sub"] circle, [s\:type="mul"] circle,
  [s\:type="div"] circle, [s\:type="shl"] circle, [s\:type="shr"] circle,
  [s\:type="sshl"] circle, [s\:type="sshr"] circle { fill: #f3e5f5; }
  /* 輸入輸出端點 - 淺灰色 */
  [s\:type="inputExt"] path, [s\:type="outputExt"] path { fill: #eceff1; }</style>
  <g s:type="generic" transform="translate(89,55)" s:width="30" s:height="40" id="cell_$auto$ff.cc:337:slice$84">
    <text x="15" y="-4" class="nodelabel cell_$auto$ff.cc:337:slice$84" s:attribute="ref">$_SDFF_PP1_</text>
    <rect width="30" height="60" s:generic="body" class="cell_$auto$ff.cc:337:slice$84" fill="#fafafa"/>
    <g transform="translate(0,10)" s:x="0" s:y="10" s:pid="in0" id="port_$auto$ff.cc:337:slice$84~C">
      <text x="-3" y="-4" class="inputPortLabel cell_$auto$ff.cc:337:slice$84">C</text>
    </g>
    <g transform="translate(0,30)" s:x="0" s:y="10" s:pid="in0" id="port_$auto$ff.cc:337:slice$84~D">
      <text x="-3" y="-4" class="inputPortLabel cell_$auto$ff.cc:337:slice$84">D</text>
    </g>
    <g transform="translate(0,50)" s:x="0" s:y="10" s:pid="in0" id="port_$auto$ff.cc:337:slice$84~R">
      <text x="-3" y="-4" class="inputPortLabel cell_$auto$ff.cc:337:slice$84">R</text>
    </g>
    <g transform="translate(30,10)" s:x="30" s:y="10" s:pid="out0" id="port_$auto$ff.cc:337:slice$84~Q">
      <text x="5" y="-4" style="fill:#000; stroke:none" class="cell_$auto$ff.cc:337:slice$84">Q</text>
    </g>
  </g>
  <g s:type="generic" transform="translate(901,77.5)" s:width="30" s:height="40" id="cell_$auto$ff.cc:337:slice$85">
    <text x="15" y="-4" class="nodelabel cell_$auto$ff.cc:337:slice$85" s:attribute="ref">$_SDFF_PP0_</text>
    <rect width="30" height="60" s:generic="body" class="cell_$auto$ff.cc:337:slice$85" fill="#fafafa"/>
    <g transform="translate(0,10)" s:x="0" s:y="10" s:pid="in0" id="port_$auto$ff.cc:337:slice$85~C">
      <text x="-3" y="-4" class="inputPortLabel cell_$auto$ff.cc:337:slice$85">C</text>
    </g>
    <g transform="translate(0,30)" s:x="0" s:y="10" s:pid="in0" id="port_$auto$ff.cc:337:slice$85~D">
      <text x="-3" y="-4" class="inputPortLabel cell_$auto$ff.cc:337:slice$85">D</text>
    </g>
    <g transform="translate(0,50)" s:x="0" s:y="10" s:pid="in0" id="port_$auto$ff.cc:337:slice$85~R">
      <text x="-3" y="-4" class="inputPortLabel cell_$auto$ff.cc:337:slice$85">R</text>
    </g>
    <g transform="translate(30,10)" s:x="30" s:y="10" s:pid="out0" id="port_$auto$ff.cc:337:slice$85~Q">
      <text x="5" y="-4" style="fill:#000; stroke:none" class="cell_$auto$ff.cc:337:slice$85">Q</text>
    </g>
  </g>
  <g s:type="generic" transform="translate(715,158.5)" s:width="30" s:height="40" id="cell_$auto$ff.cc:337:slice$86">
    <text x="15" y="-4" class="nodelabel cell_$auto$ff.cc:337:slice$86" s:attribute="ref">$_SDFF_PP0_</text>
    <rect width="30" height="60" s:generic="body" class="cell_$auto$ff.cc:337:slice$86" fill="#fafafa"/>
    <g transform="translate(0,10)" s:x="0" s:y="10" s:pid="in0" id="port_$auto$ff.cc:337:slice$86~C">
      <text x="-3" y="-4" class="inputPortLabel cell_$auto$ff.cc:337:slice$86">C</text>
    </g>
    <g transform="translate(0,30)" s:x="0" s:y="10" s:pid="in0" id="port_$auto$ff.cc:337:slice$86~D">
      <text x="-3" y="-4" class="inputPortLabel cell_$auto$ff.cc:337:slice$86">D</text>
    </g>
    <g transform="translate(0,50)" s:x="0" s:y="10" s:pid="in0" id="port_$auto$ff.cc:337:slice$86~R">
      <text x="-3" y="-4" class="inputPortLabel cell_$auto$ff.cc:337:slice$86">R</text>
    </g>
    <g transform="translate(30,10)" s:x="30" s:y="10" s:pid="out0" id="port_$auto$ff.cc:337:slice$86~Q">
      <text x="5" y="-4" style="fill:#000; stroke:none" class="cell_$auto$ff.cc:337:slice$86">Q</text>
    </g>
  </g>
  <g s:type="generic" transform="translate(461,171)" s:width="30" s:height="40" id="cell_$auto$ff.cc:337:slice$87">
    <text x="15" y="-4" class="nodelabel cell_$auto$ff.cc:337:slice$87" s:attribute="ref">$_SDFF_PP0_</text>
    <rect width="30" height="60" s:generic="body" class="cell_$auto$ff.cc:337:slice$87" fill="#fafafa"/>
    <g transform="translate(0,10)" s:x="0" s:y="10" s:pid="in0" id="port_$auto$ff.cc:337:slice$87~C">
      <text x="-3" y="-4" class="inputPortLabel cell_$auto$ff.cc:337:slice$87">C</text>
    </g>
    <g transform="translate(0,30)" s:x="0" s:y="10" s:pid="in0" id="port_$auto$ff.cc:337:slice$87~D">
      <text x="-3" y="-4" class="inputPortLabel cell_$auto$ff.cc:337:slice$87">D</text>
    </g>
    <g transform="translate(0,50)" s:x="0" s:y="10" s:pid="in0" id="port_$auto$ff.cc:337:slice$87~R">
      <text x="-3" y="-4" class="inputPortLabel cell_$auto$ff.cc:337:slice$87">R</text>
    </g>
    <g transform="translate(30,10)" s:x="30" s:y="10" s:pid="out0" id="port_$auto$ff.cc:337:slice$87~Q">
      <text x="5" y="-4" style="fill:#000; stroke:none" class="cell_$auto$ff.cc:337:slice$87">Q</text>
    </g>
  </g>
  <g s:type="generic" transform="translate(275,242.5)" s:width="30" s:height="40" id="cell_$auto$ff.cc:337:slice$88">
    <text x="15" y="-4" class="nodelabel cell_$auto$ff.cc:337:slice$88" s:attribute="ref">$_SDFF_PP0_</text>
    <rect width="30" height="60" s:generic="body" class="cell_$auto$ff.cc:337:slice$88" fill="#fafafa"/>
    <g transform="translate(0,10)" s:x="0" s:y="10" s:pid="in0" id="port_$auto$ff.cc:337:slice$88~C">
      <text x="-3" y="-4" class="inputPortLabel cell_$auto$ff.cc:337:slice$88">C</text>
    </g>
    <g transform="translate(0,30)" s:x="0" s:y="10" s:pid="in0" id="port_$auto$ff.cc:337:slice$88~D">
      <text x="-3" y="-4" class="inputPortLabel cell_$auto$ff.cc:337:slice$88">D</text>
    </g>
    <g transform="translate(0,50)" s:x="0" s:y="10" s:pid="in0" id="port_$auto$ff.cc:337:slice$88~R">
      <text x="-3" y="-4" class="inputPortLabel cell_$auto$ff.cc:337:slice$88">R</text>
    </g>
    <g transform="translate(30,10)" s:x="30" s:y="10" s:pid="out0" id="port_$auto$ff.cc:337:slice$88~Q">
      <text x="5" y="-4" style="fill:#000; stroke:none" class="cell_$auto$ff.cc:337:slice$88">Q</text>
    </g>
  </g>
  <g s:type="reduce_xor" transform="translate(640,176.5)" s:width="33" s:height="25" id="cell_$auto$simplemap.cc:106:simplemap_bitop$89">
    <s:alias val="$xor"/>
    <s:alias val="$reduce_xor"/>
    <s:alias val="$_XOR_"/>
    <path d="M3,0 A30 25 0 0 1 3,25 A30 25 0 0 0 33,12.5 A30 25 0 0 0 3,0" class="cell_$auto$simplemap.cc:106:simplemap_bitop$89" fill="#e8f5e9"/>
    <path d="M0,0 A30 25 0 0 1 0,25" class="cell_$auto$simplemap.cc:106:simplemap_bitop$89"/>
    <g s:x="2" s:y="5" s:pid="A"/>
    <g s:x="2" s:y="20" s:pid="B"/>
    <g s:x="33" s:y="12.5" s:pid="Y"/>
  </g>
  <g s:type="inputExt" transform="translate(12,243)" s:width="30" s:height="20" id="cell_clk">
    <text x="15" y="-4" class="nodelabel cell_clk" s:attribute="ref">clk</text>
    <s:alias val="$_inputExt_"/>
    <path d="M0,0 L0,20 L15,20 L30,10 L15,0 Z" class="cell_clk" fill="#eceff1"/>
    <g s:x="30" s:y="10" s:pid="Y"/>
  </g>
  <g s:type="inputExt" transform="translate(12,308)" s:width="30" s:height="20" id="cell_reset">
    <text x="15" y="-4" class="nodelabel cell_reset" s:attribute="ref">reset</text>
    <s:alias val="$_inputExt_"/>
    <path d="M0,0 L0,20 L15,20 L30,10 L15,0 Z" class="cell_reset" fill="#eceff1"/>
    <g s:x="30" s:y="10" s:pid="Y"/>
  </g>
  <g s:type="outputExt" transform="translate(1123,129)" s:width="30" s:height="20" id="cell_q">
    <text x="15" y="-4" class="nodelabel cell_q" s:attribute="ref">q</text>
    <s:alias val="$_outputExt_"/>
    <path d="M30,0 L30,20 L15,20 L0,10 L15,0 Z" class="cell_q" fill="#eceff1"/>
    <g s:x="0" s:y="10" s:pid="A"/>
  </g>
  <g s:type="join" transform="translate(1080,118.5)" s:width="4" s:height="40" id="cell_$join$,4,5,6,7,8,">
    <rect width="5" height="100" class="splitjoinBody" s:generic="body"/>
    <s:alias val="$_join_"/>
    <g s:x="5" s:y="20" s:pid="out"/>
    <g transform="translate(0,10)" s:x="0" s:y="10" s:pid="in0">
      <text x="-3" y="-4" class="inputPortLabel">0</text>
    </g>
    <g transform="translate(0,30)" s:x="0" s:y="10" s:pid="in0">
      <text x="-3" y="-4" class="inputPortLabel">1</text>
    </g>
    <g transform="translate(0,50)" s:x="0" s:y="10" s:pid="in0">
      <text x="-3" y="-4" class="inputPortLabel">2</text>
    </g>
    <g transform="translate(0,70)" s:x="0" s:y="10" s:pid="in0">
      <text x="-3" y="-4" class="inputPortLabel">3</text>
    </g>
    <g transform="translate(0,90)" s:x="0" s:y="10" s:pid="in0">
      <text x="-3" y="-4" class="inputPortLabel">4</text>
    </g>
  </g>
  <line x1="42" x2="62" y1="253" y2="253" class="net_2"/>
  <line x1="62" x2="62" y1="253" y2="65.5" class="net_2"/>
  <circle cx="62" cy="253" r="2" style="fill:#000" class="net_2"/>
  <circle cx="62" cy="65.5" r="2" style="fill:#000" class="net_2"/>
  <line x1="62" x2="89" y1="65.5" y2="65.5" class="net_2"/>
  <line x1="42" x2="62" y1="253" y2="253" class="net_2"/>
  <line x1="62" x2="62" y1="253" y2="34" class="net_2"/>
  <line x1="62" x2="869" y1="34" y2="34" class="net_2"/>
  <line x1="869" x2="869" y1="34" y2="88" class="net_2"/>
  <line x1="869" x2="901" y1="88" y2="88" class="net_2"/>
  <line x1="42" x2="62" y1="253" y2="253" class="net_2"/>
  <line x1="62" x2="62" y1="253" y2="210.5" class="net_2"/>
  <line x1="62" x2="243" y1="210.5" y2="210.5" class="net_2"/>
  <line x1="243" x2="243" y1="210.5" y2="139" class="net_2"/>
  <line x1="243" x2="683" y1="139" y2="139" class="net_2"/>
  <line x1="683" x2="683" y1="139" y2="169" class="net_2"/>
  <circle cx="62" cy="210.5" r="2" style="fill:#000" class="net_2"/>
  <circle cx="243" cy="210.5" r="2" style="fill:#000" class="net_2"/>
  <line x1="683" x2="715" y1="169" y2="169" class="net_2"/>
  <line x1="42" x2="62" y1="253" y2="253" class="net_2"/>
  <line x1="62" x2="62" y1="253" y2="210.5" class="net_2"/>
  <line x1="62" x2="429" y1="210.5" y2="210.5" class="net_2"/>
  <line x1="429" x2="429" y1="210.5" y2="181.5" class="net_2"/>
  <line x1="429" x2="461" y1="181.5" y2="181.5" class="net_2"/>
  <line x1="42" x2="275" y1="253" y2="253" class="net_2"/>
  <line x1="932" x2="1055" y1="88" y2="88" class="net_5"/>
  <line x1="1055" x2="1055" y1="88" y2="23" class="net_5"/>
  <line x1="1055" x2="52" y1="23" y2="23" class="net_5"/>
  <line x1="52" x2="52" y1="23" y2="85.5" class="net_5"/>
  <circle cx="1055" cy="88" r="2" style="fill:#000" class="net_5"/>
  <line x1="52" x2="89" y1="85.5" y2="85.5" class="net_5"/>
  <line x1="932" x2="1055" y1="88" y2="88" class="net_5"/>
  <line x1="1055" x2="1055" y1="88" y2="149" class="net_5"/>
  <line x1="1055" x2="1080" y1="149" y2="149" class="net_5"/>
  <line x1="42" x2="72" y1="318" y2="318" class="net_3"/>
  <line x1="72" x2="72" y1="318" y2="105.5" class="net_3"/>
  <circle cx="72" cy="318" r="2" style="fill:#000" class="net_3"/>
  <line x1="72" x2="89" y1="105.5" y2="105.5" class="net_3"/>
  <line x1="42" x2="72" y1="318" y2="318" class="net_3"/>
  <line x1="72" x2="72" y1="318" y2="128" class="net_3"/>
  <circle cx="72" cy="128" r="2" style="fill:#000" class="net_3"/>
  <line x1="72" x2="901" y1="128" y2="128" class="net_3"/>
  <line x1="42" x2="683" y1="318" y2="318" class="net_3"/>
  <line x1="683" x2="683" y1="318" y2="209" class="net_3"/>
  <line x1="683" x2="715" y1="209" y2="209" class="net_3"/>
  <line x1="42" x2="72" y1="318" y2="318" class="net_3"/>
  <line x1="72" x2="72" y1="318" y2="221.5" class="net_3"/>
  <circle cx="72" cy="221.5" r="2" style="fill:#000" class="net_3"/>
  <line x1="72" x2="461" y1="221.5" y2="221.5" class="net_3"/>
  <line x1="42" x2="243" y1="318" y2="318" class="net_3"/>
  <line x1="243" x2="243" y1="318" y2="293" class="net_3"/>
  <circle cx="243" cy="318" r="2" style="fill:#000" class="net_3"/>
  <line x1="243" x2="275" y1="293" y2="293" class="net_3"/>
  <line x1="746" x2="869" y1="169" y2="169" class="net_6"/>
  <line x1="869" x2="869" y1="169" y2="108" class="net_6"/>
  <circle cx="869" cy="169" r="2" style="fill:#000" class="net_6"/>
  <line x1="869" x2="901" y1="108" y2="108" class="net_6"/>
  <line x1="746" x2="1080" y1="169" y2="169" class="net_6"/>
  <line x1="673" x2="715" y1="189" y2="189" class="net_9"/>
  <line x1="306" x2="439" y1="253" y2="253" class="net_8"/>
  <line x1="439" x2="439" y1="253" y2="201.5" class="net_8"/>
  <circle cx="439" cy="253" r="2" style="fill:#000" class="net_8"/>
  <line x1="439" x2="461" y1="201.5" y2="201.5" class="net_8"/>
  <line x1="306" x2="439" y1="253" y2="253" class="net_8"/>
  <line x1="439" x2="439" y1="253" y2="340" class="net_8"/>
  <line x1="439" x2="1080.5" y1="340" y2="340" class="net_8"/>
  <line x1="1080.5" x2="1080.5" y1="340" y2="209.5" class="net_8"/>
  <line x1="120" x2="253" y1="65.5" y2="65.5" class="net_4"/>
  <line x1="253" x2="253" y1="65.5" y2="273" class="net_4"/>
  <circle cx="253" cy="65.5" r="2" style="fill:#000" class="net_4"/>
  <line x1="253" x2="275" y1="273" y2="273" class="net_4"/>
  <line x1="120" x2="253" y1="65.5" y2="65.5" class="net_4"/>
  <line x1="253" x2="253" y1="65.5" y2="150" class="net_4"/>
  <line x1="253" x2="625" y1="150" y2="150" class="net_4"/>
  <line x1="625" x2="625" y1="150" y2="196.5" class="net_4"/>
  <circle cx="253" cy="150" r="2" style="fill:#000" class="net_4"/>
  <line x1="625" x2="642" y1="196.5" y2="196.5" class="net_4"/>
  <line x1="120" x2="253" y1="65.5" y2="65.5" class="net_4"/>
  <line x1="253" x2="253" y1="65.5" y2="12" class="net_4"/>
  <line x1="253" x2="1080.5" y1="12" y2="12" class="net_4"/>
  <line x1="1080.5" x2="1080.5" y1="12" y2="128.5" class="net_4"/>
  <line x1="492" x2="642" y1="181.5" y2="181.5" class="net_7"/>
  <line x1="492" x2="615" y1="181.5" y2="181.5" class="net_7"/>
  <line x1="615" x2="615" y1="181.5" y2="329" class="net_7"/>
  <line x1="615" x2="1055" y1="329" y2="329" class="net_7"/>
  <line x1="1055" x2="1055" y1="329" y2="189" class="net_7"/>
  <circle cx="615" cy="181.5" r="2" style="fill:#000" class="net_7"/>
  <line x1="1055" x2="1080" y1="189" y2="189" class="net_7"/>
  <line x1="1086" x2="1123" y1="139" y2="139" class="net_4,5,6,7,8"/>
</svg>
