<svg xmlns="http://www.w3.org/2000/svg" xmlns:xlink="http://www.w3.org/1999/xlink" xmlns:s="https://github.com/nturley/netlistsvg" width="333" height="230">
  <style>svg {
    stroke:#000;
    fill:none;
    background-color: white;
  }
  text {
    fill:#000;
    stroke:none;
    font-size:10px;
    font-weight: bold;
    font-family: "Courier New", monospace;
  }
  line {
      stroke-linecap: round;
  }
  .nodelabel {
    text-anchor: middle;
  }
  .inputPortLabel {
    text-anchor: end;
  }
  .splitjoinBody {
    fill:#000;
  }
  /* --- Brandon 的客製化顏色區隔 --- */
  /* 多路選擇器 (Mux) - 淺藍色 */
  [s\:type^="mux"] path { fill: #e1f5fe; }
  /* 邏輯閘 (And, Or, Xor, Not) - 淺綠色 */
  [s\:type="and"], [s\:type="nand"], [s\:type="andnot"],
  [s\:type="or"], [s\:type="reduce_nor"], [s\:type="ornot"],
  [s\:type="reduce_xor"], [s\:type="reduce_nxor"],
  [s\:type="not"], [s\:type="buf"] path { fill: #e8f5e9; }
  /* 觸發器 (DFF) - 淺橘色 */
  [s\:type^="dff"] rect, [s\:type^="dlatch"] rect { fill: #fff3e0; }
  /* 算術運算 (Add, Sub, Mul, Shl, Shr) - 淺紫色 */
  [s\:type="add"] circle, [s\:type="sub"] circle, [s\:type="mul"] circle,
  [s\:type="div"] circle, [s\:type="shl"] circle, [s\:type="shr"] circle,
  [s\:type="sshl"] circle, [s\:type="sshr"] circle { fill: #f3e5f5; }
  /* 輸入輸出端點 - 淺灰色 */
  [s\:type="inputExt"] path, [s\:type="outputExt"] path { fill: #eceff1; }</style>
  <g s:type="dff" transform="translate(225,22.5)" s:width="30" s:height="40" id="cell_$auto$ff.cc:337:slice$8">
    <s:alias val="$dff"/>
    <s:alias val="$_DFF_"/>
    <s:alias val="$_DFF_P_"/>
    <s:alias val="$adff"/>
    <s:alias val="$_DFF_"/>
    <s:alias val="$_DFF_P_"/>
    <s:alias val="$sdff"/>
    <s:alias val="$_DFF_"/>
    <s:alias val="$_DFF_P_"/>
    <rect width="30" height="40" x="0" y="0" class="cell_$auto$ff.cc:337:slice$8" fill="#fff3e0"/>
    <path d="M0,35 L5,30 L0,25" class="cell_$auto$ff.cc:337:slice$8"/>
    <g s:x="31" s:y="10" s:pid="Q"/>
    <g s:x="-1" s:y="30" s:pid="CLK"/>
    <g s:x="-1" s:y="30" s:pid="C"/>
    <g s:x="-1" s:y="10" s:pid="D"/>
    <g s:x="15" s:y="40" s:pid="ARST"/>
    <g s:x="15" s:y="40" s:pid="SRST"/>
  </g>
  <g s:type="reduce_xor" transform="translate(91,113)" s:width="33" s:height="25" id="cell_$xor$../rtl/top.v:31$2">
    <s:alias val="$xor"/>
    <s:alias val="$reduce_xor"/>
    <s:alias val="$_XOR_"/>
    <path d="M3,0 A30 25 0 0 1 3,25 A30 25 0 0 0 33,12.5 A30 25 0 0 0 3,0" class="cell_$xor$../rtl/top.v:31$2" fill="#e8f5e9"/>
    <path d="M0,0 A30 25 0 0 1 0,25" class="cell_$xor$../rtl/top.v:31$2"/>
    <g s:x="2" s:y="5" s:pid="A"/>
    <g s:x="2" s:y="20" s:pid="B"/>
    <g s:x="33" s:y="12.5" s:pid="Y"/>
  </g>
  <g s:type="inputExt" transform="translate(159,122)" s:width="30" s:height="20" id="cell_clk">
    <text x="15" y="-4" class="nodelabel cell_clk" s:attribute="ref">clk</text>
    <s:alias val="$_inputExt_"/>
    <path d="M0,0 L0,20 L15,20 L30,10 L15,0 Z" class="cell_clk" fill="#eceff1"/>
    <g s:x="30" s:y="10" s:pid="Y"/>
  </g>
  <g s:type="inputExt" transform="translate(159,187)" s:width="30" s:height="20" id="cell_reset">
    <text x="15" y="-4" class="nodelabel cell_reset" s:attribute="ref">reset</text>
    <s:alias val="$_inputExt_"/>
    <path d="M0,0 L0,20 L15,20 L30,10 L15,0 Z" class="cell_reset" fill="#eceff1"/>
    <g s:x="30" s:y="10" s:pid="Y"/>
  </g>
  <g s:type="outputExt" transform="translate(291,22.5)" s:width="30" s:height="20" id="cell_q">
    <text x="15" y="-4" class="nodelabel cell_q" s:attribute="ref">q</text>
    <s:alias val="$_outputExt_"/>
    <path d="M30,0 L30,20 L15,20 L0,10 L15,0 Z" class="cell_q" fill="#eceff1"/>
    <g s:x="0" s:y="10" s:pid="A"/>
  </g>
  <g s:type="join" transform="translate(178,12)" s:width="4" s:height="40" id="cell_$join$,5,6,9,8,4,">
    <rect width="5" height="80" class="splitjoinBody" s:generic="body"/>
    <s:alias val="$_join_"/>
    <g s:x="5" s:y="20" s:pid="out"/>
    <g transform="translate(0,10)" s:x="0" s:y="10" s:pid="in0">
      <text x="-3" y="-4" class="inputPortLabel">0:1</text>
    </g>
    <g transform="translate(0,30)" s:x="0" s:y="10" s:pid="in0">
      <text x="-3" y="-4" class="inputPortLabel">2</text>
    </g>
    <g transform="translate(0,50)" s:x="0" s:y="10" s:pid="in0">
      <text x="-3" y="-4" class="inputPortLabel">3</text>
    </g>
    <g transform="translate(0,70)" s:x="0" s:y="10" s:pid="in0">
      <text x="-3" y="-4" class="inputPortLabel">4</text>
    </g>
  </g>
  <g s:type="split" transform="translate(32,32)" s:width="5" s:height="40" id="cell_$split$,4,5,6,7,8,">
    <rect width="5" height="80" class="splitjoinBody" s:generic="body"/>
    <s:alias val="$_split_"/>
    <g s:x="0" s:y="20" s:pid="in"/>
    <g transform="translate(4,10)" s:x="4" s:y="10" s:pid="out0">
      <text x="5" y="-4">1:2</text>
    </g>
    <g transform="translate(4,30)" s:x="4" s:y="10" s:pid="out0">
      <text x="5" y="-4">4</text>
    </g>
    <g transform="translate(4,50)" s:x="4" s:y="10" s:pid="out0">
      <text x="5" y="-4">0</text>
    </g>
    <g transform="translate(4,70)" s:x="4" s:y="10" s:pid="out0">
      <text x="5" y="-4">3</text>
    </g>
  </g>
  <line x1="189" x2="199" y1="132" y2="132" class="net_2"/>
  <line x1="199" x2="199" y1="132" y2="52.5" class="net_2"/>
  <line x1="199" x2="224" y1="52.5" y2="52.5" class="net_2"/>
  <line x1="184" x2="224" y1="32.5" y2="32.5" class="net_5,6,9,8,4"/>
  <line x1="189" x2="240" y1="197" y2="197" class="net_3"/>
  <line x1="240" x2="240" y1="197" y2="62.5" class="net_3"/>
  <line x1="37" x2="66" y1="102.5" y2="102.5" class="net_7"/>
  <line x1="66" x2="66" y1="102.5" y2="118" class="net_7"/>
  <line x1="66" x2="93" y1="118" y2="118" class="net_7"/>
  <line x1="37" x2="76" y1="82.5" y2="82.5" class="net_4"/>
  <line x1="76" x2="76" y1="82.5" y2="133" class="net_4"/>
  <line x1="76" x2="93" y1="133" y2="133" class="net_4"/>
  <line x1="37" x2="76" y1="82.5" y2="82.5" class="net_4"/>
  <line x1="76" x2="76" y1="82.5" y2="102" class="net_4"/>
  <line x1="76" x2="178.5" y1="102" y2="102" class="net_4"/>
  <circle cx="76" cy="102" r="2" style="fill:#000" class="net_4"/>
  <line x1="178.5" x2="178.5" y1="102" y2="83" class="net_4"/>
  <line x1="256" x2="291" y1="32.5" y2="32.5" class="net_4,5,6,7,8"/>
  <line x1="256" x2="266" y1="32.5" y2="32.5" class="net_4,5,6,7,8"/>
  <line x1="266" x2="266" y1="32.5" y2="217" class="net_4,5,6,7,8"/>
  <line x1="266" x2="12" y1="217" y2="217" class="net_4,5,6,7,8"/>
  <line x1="12" x2="12" y1="217" y2="52.5" class="net_4,5,6,7,8"/>
  <circle cx="266" cy="32.5" r="2" style="fill:#000" class="net_4,5,6,7,8"/>
  <line x1="12" x2="32" y1="52.5" y2="52.5" class="net_4,5,6,7,8"/>
  <line x1="37" x2="134" y1="42.5" y2="42.5" class="net_5,6"/>
  <line x1="134" x2="134" y1="42.5" y2="22.5" class="net_5,6"/>
  <line x1="134" x2="178" y1="22.5" y2="22.5" class="net_5,6"/>
  <line x1="124" x2="144" y1="125.5" y2="125.5" class="net_9"/>
  <line x1="144" x2="144" y1="125.5" y2="42.5" class="net_9"/>
  <line x1="144" x2="178" y1="42.5" y2="42.5" class="net_9"/>
  <line x1="37" x2="178" y1="62.5" y2="62.5" class="net_8"/>
</svg>
