<svg xmlns="http://www.w3.org/2000/svg" xmlns:xlink="http://www.w3.org/1999/xlink" xmlns:s="https://github.com/nturley/netlistsvg" width="1085" height="486.5">
  <style>svg {
    stroke:#000;
    fill:none;
    background-color: white;
  }
  text {
    fill:#000;
    stroke:none;
    font-size:10px;
    font-weight: bold;
    font-family: "Courier New", monospace;
  }
  line {
      stroke-linecap: round;
  }
  .nodelabel {
    text-anchor: middle;
  }
  .inputPortLabel {
    text-anchor: end;
  }
  .splitjoinBody {
    fill:#000;
  }
  /* --- Brandon 的客製化顏色區隔 --- */
  /* 多路選擇器 (Mux) - 淺藍色 */
  [s\:type^="mux"] path { fill: #e1f5fe; }
  /* 邏輯閘 (And, Or, Xor, Not) - 淺綠色 */
  [s\:type="and"], [s\:type="nand"], [s\:type="andnot"],
  [s\:type="or"], [s\:type="reduce_nor"], [s\:type="ornot"],
  [s\:type="reduce_xor"], [s\:type="reduce_nxor"],
  [s\:type="not"], [s\:type="buf"] path { fill: #e8f5e9; }
  /* 觸發器 (DFF) - 淺橘色 */
  [s\:type^="dff"] rect, [s\:type^="dlatch"] rect { fill: #fff3e0; }
  /* 算術運算 (Add, Sub, Mul, Shl, Shr) - 淺紫色 */
  [s\:type="add"] circle, [s\:type="sub"] circle, [s\:type="mul"] circle,
  [s\:type="div"] circle, [s\:type="shl"] circle, [s\:type="shr"] circle,
  [s\:type="sshl"] circle, [s\:type="sshr"] circle { fill: #f3e5f5; }
  /* 輸入輸出端點 - 淺灰色 */
  [s\:type="inputExt"] path, [s\:type="outputExt"] path { fill: #eceff1; }</style>
  <g s:type="generic" transform="translate(578,217.5)" s:width="30" s:height="40" id="cell_$auto$ff.cc:337:slice$18">
    <text x="15" y="-4" class="nodelabel cell_$auto$ff.cc:337:slice$18" s:attribute="ref">$adffe</text>
    <rect width="30" height="80" s:generic="body" class="cell_$auto$ff.cc:337:slice$18" fill="#fafafa"/>
    <g transform="translate(0,10)" s:x="0" s:y="10" s:pid="in0" id="port_$auto$ff.cc:337:slice$18~ARST">
      <text x="-3" y="-4" class="inputPortLabel cell_$auto$ff.cc:337:slice$18">ARST</text>
    </g>
    <g transform="translate(0,30)" s:x="0" s:y="10" s:pid="in0" id="port_$auto$ff.cc:337:slice$18~CLK">
      <text x="-3" y="-4" class="inputPortLabel cell_$auto$ff.cc:337:slice$18">CLK</text>
    </g>
    <g transform="translate(0,50)" s:x="0" s:y="10" s:pid="in0" id="port_$auto$ff.cc:337:slice$18~D">
      <text x="-3" y="-4" class="inputPortLabel cell_$auto$ff.cc:337:slice$18">D</text>
    </g>
    <g transform="translate(0,70)" s:x="0" s:y="10" s:pid="in0" id="port_$auto$ff.cc:337:slice$18~EN">
      <text x="-3" y="-4" class="inputPortLabel cell_$auto$ff.cc:337:slice$18">EN</text>
    </g>
    <g transform="translate(30,10)" s:x="30" s:y="10" s:pid="out0" id="port_$auto$ff.cc:337:slice$18~Q">
      <text x="5" y="-4" style="fill:#000; stroke:none" class="cell_$auto$ff.cc:337:slice$18">Q</text>
    </g>
  </g>
  <g s:type="generic" transform="translate(797,34)" s:width="30" s:height="40" id="cell_$auto$ff.cc:337:slice$21">
    <text x="15" y="-4" class="nodelabel cell_$auto$ff.cc:337:slice$21" s:attribute="ref">$adffe</text>
    <rect width="30" height="80" s:generic="body" class="cell_$auto$ff.cc:337:slice$21" fill="#fafafa"/>
    <g transform="translate(0,10)" s:x="0" s:y="10" s:pid="in0" id="port_$auto$ff.cc:337:slice$21~ARST">
      <text x="-3" y="-4" class="inputPortLabel cell_$auto$ff.cc:337:slice$21">ARST</text>
    </g>
    <g transform="translate(0,30)" s:x="0" s:y="10" s:pid="in0" id="port_$auto$ff.cc:337:slice$21~CLK">
      <text x="-3" y="-4" class="inputPortLabel cell_$auto$ff.cc:337:slice$21">CLK</text>
    </g>
    <g transform="translate(0,50)" s:x="0" s:y="10" s:pid="in0" id="port_$auto$ff.cc:337:slice$21~D">
      <text x="-3" y="-4" class="inputPortLabel cell_$auto$ff.cc:337:slice$21">D</text>
    </g>
    <g transform="translate(0,70)" s:x="0" s:y="10" s:pid="in0" id="port_$auto$ff.cc:337:slice$21~EN">
      <text x="-3" y="-4" class="inputPortLabel cell_$auto$ff.cc:337:slice$21">EN</text>
    </g>
    <g transform="translate(30,10)" s:x="30" s:y="10" s:pid="out0" id="port_$auto$ff.cc:337:slice$21~Q">
      <text x="5" y="-4" style="fill:#000; stroke:none" class="cell_$auto$ff.cc:337:slice$21">Q</text>
    </g>
  </g>
  <g s:type="or" transform="translate(418,275.5)" s:width="30" s:height="25" id="cell_$auto$opt_dff.cc:248:make_patterns_logic$20">
    <s:alias val="$or"/>
    <s:alias val="$logic_or"/>
    <s:alias val="$_OR_"/>
    <s:alias val="$reduce_or"/>
    <s:alias val="$reduce_bool"/>
    <path d="M0,0 A30 25 0 0 1 0,25 A30 25 0 0 0 30,12.5 A30 25 0 0 0 0,0" class="cell_$auto$opt_dff.cc:248:make_patterns_logic$20" fill="#e8f5e9"/>
    <g s:x="2" s:y="5" s:pid="A"/>
    <g s:x="2" s:y="20" s:pid="B"/>
    <g s:x="30" s:y="12.5" s:pid="Y"/>
  </g>
  <g s:type="ne" transform="translate(419.6666666666667,352.5)" s:width="25" s:height="25" id="cell_$auto$opt_dff.cc:248:make_patterns_logic$25">
    <s:alias val="$ne"/>
    <s:alias val="$nex"/>
    <circle r="12.5" cx="12.5" cy="12.5" class="cell_$auto$opt_dff.cc:248:make_patterns_logic$25" fill="#e8eaf6"/>
    <line x1="7.5" x2="17.5" y1="10" y2="10" class="cell_$auto$opt_dff.cc:248:make_patterns_logic$25"/>
    <line x1="7.5" x2="17.5" y1="15" y2="15" class="cell_$auto$opt_dff.cc:248:make_patterns_logic$25"/>
    <line x1="9" x2="16" y1="18" y2="7" class="cell_$auto$opt_dff.cc:248:make_patterns_logic$25"/>
    <g s:x="2" s:y="5" s:pid="A"/>
    <g s:x="2" s:y="20" s:pid="B"/>
    <g s:x="25" s:y="12.5" s:pid="Y"/>
  </g>
  <g s:type="ne" transform="translate(419.6666666666667,427)" s:width="25" s:height="25" id="cell_$auto$opt_dff.cc:248:make_patterns_logic$27">
    <s:alias val="$ne"/>
    <s:alias val="$nex"/>
    <circle r="12.5" cx="12.5" cy="12.5" class="cell_$auto$opt_dff.cc:248:make_patterns_logic$27" fill="#e8eaf6"/>
    <line x1="7.5" x2="17.5" y1="10" y2="10" class="cell_$auto$opt_dff.cc:248:make_patterns_logic$27"/>
    <line x1="7.5" x2="17.5" y1="15" y2="15" class="cell_$auto$opt_dff.cc:248:make_patterns_logic$27"/>
    <line x1="9" x2="16" y1="18" y2="7" class="cell_$auto$opt_dff.cc:248:make_patterns_logic$27"/>
    <g s:x="2" s:y="5" s:pid="A"/>
    <g s:x="2" s:y="20" s:pid="B"/>
    <g s:x="25" s:y="12.5" s:pid="Y"/>
  </g>
  <g s:type="and" transform="translate(622.5,350)" s:width="30" s:height="25" id="cell_$auto$opt_dff.cc:273:make_patterns_logic$29">
    <s:alias val="$and"/>
    <s:alias val="$logic_and"/>
    <s:alias val="$_AND_"/>
    <s:alias val="$reduce_and"/>
    <path d="M0,0 L0,25 L15,25 A15 12.5 0 0 0 15,0 Z" class="cell_$auto$opt_dff.cc:273:make_patterns_logic$29" fill="#e8f5e9"/>
    <g s:x="0" s:y="5" s:pid="A"/>
    <g s:x="0" s:y="20" s:pid="B"/>
    <g s:x="30" s:y="12.5" s:pid="Y"/>
  </g>
  <g s:type="mux" transform="translate(421.3333333333333,92)" s:width="20" s:height="40" id="cell_$procmux$11">
    <s:alias val="$pmux"/>
    <s:alias val="$mux"/>
    <s:alias val="$_MUX_"/>
    <path d="M0,0 L20,10 L20,30 L0,40 Z" class="cell_$procmux$11" fill="#e1f5fe"/>
    <text x="5" y="32" class="nodelabel cell_$procmux$11" s:attribute="">1</text>
    <text x="5" y="13" class="nodelabel cell_$procmux$11" s:attribute="">0</text>
    <g s:x="0" s:y="10" s:pid="A"/>
    <g s:x="0" s:y="30" s:pid="B"/>
    <g s:x="10" s:y="35" s:pid="S"/>
    <g s:x="20" s:y="20" s:pid="Y"/>
  </g>
  <g s:type="mux" transform="translate(288,103)" s:width="20" s:height="40" id="cell_$procmux$3">
    <s:alias val="$pmux"/>
    <s:alias val="$mux"/>
    <s:alias val="$_MUX_"/>
    <path d="M0,0 L20,10 L20,30 L0,40 Z" class="cell_$procmux$3" fill="#e1f5fe"/>
    <text x="5" y="32" class="nodelabel cell_$procmux$3" s:attribute="">1</text>
    <text x="5" y="13" class="nodelabel cell_$procmux$3" s:attribute="">0</text>
    <g s:x="0" s:y="10" s:pid="A"/>
    <g s:x="0" s:y="30" s:pid="B"/>
    <g s:x="10" s:y="35" s:pid="S"/>
    <g s:x="20" s:y="20" s:pid="Y"/>
  </g>
  <g s:type="eq" transform="translate(171.33333333333331,355)" s:width="25" s:height="25" id="cell_$procmux$4_CMP0">
    <s:alias val="$eq"/>
    <s:alias val="$eqx"/>
    <circle r="12.5" cx="12.5" cy="12.5" class="cell_$procmux$4_CMP0" fill="#e8eaf6"/>
    <line x1="7.5" x2="17.5" y1="10" y2="10" class="cell_$procmux$4_CMP0"/>
    <line x1="7.5" x2="17.5" y1="15" y2="15" class="cell_$procmux$4_CMP0"/>
    <g s:x="2" s:y="5" s:pid="A"/>
    <g s:x="2" s:y="20" s:pid="B"/>
    <g s:x="25" s:y="12.5" s:pid="Y"/>
  </g>
  <g s:type="eq" transform="translate(171.33333333333331,429.5)" s:width="25" s:height="25" id="cell_$procmux$5_CMP0">
    <s:alias val="$eq"/>
    <s:alias val="$eqx"/>
    <circle r="12.5" cx="12.5" cy="12.5" class="cell_$procmux$5_CMP0" fill="#e8eaf6"/>
    <line x1="7.5" x2="17.5" y1="10" y2="10" class="cell_$procmux$5_CMP0"/>
    <line x1="7.5" x2="17.5" y1="15" y2="15" class="cell_$procmux$5_CMP0"/>
    <g s:x="2" s:y="5" s:pid="A"/>
    <g s:x="2" s:y="20" s:pid="B"/>
    <g s:x="25" s:y="12.5" s:pid="Y"/>
  </g>
  <g s:type="eq" transform="translate(171.33333333333331,170.5)" s:width="25" s:height="25" id="cell_$procmux$6_CMP0">
    <s:alias val="$eq"/>
    <s:alias val="$eqx"/>
    <circle r="12.5" cx="12.5" cy="12.5" class="cell_$procmux$6_CMP0" fill="#e8eaf6"/>
    <line x1="7.5" x2="17.5" y1="10" y2="10" class="cell_$procmux$6_CMP0"/>
    <line x1="7.5" x2="17.5" y1="15" y2="15" class="cell_$procmux$6_CMP0"/>
    <g s:x="2" s:y="5" s:pid="A"/>
    <g s:x="2" s:y="20" s:pid="B"/>
    <g s:x="25" s:y="12.5" s:pid="Y"/>
  </g>
  <g s:type="not" transform="translate(170,245.5)" s:width="30" s:height="20" id="cell_$procmux$7_CMP0">
    <s:alias val="$_NOT_"/>
    <s:alias val="$not"/>
    <s:alias val="$logic_not"/>
    <path d="M0,0 L0,20 L20,10 Z" class="cell_$procmux$7_CMP0" fill="#e8f5e9"/>
    <circle cx="24" cy="10" r="3" class="cell_$procmux$7_CMP0"/>
    <g s:x="-1" s:y="10" s:pid="A"/>
    <g s:x="27" s:y="10" s:pid="Y"/>
  </g>
  <g s:type="mux" transform="translate(353.66666666666663,82)" s:width="20" s:height="40" id="cell_$procmux$8">
    <s:alias val="$pmux"/>
    <s:alias val="$mux"/>
    <s:alias val="$_MUX_"/>
    <path d="M0,0 L20,10 L20,30 L0,40 Z" class="cell_$procmux$8" fill="#e1f5fe"/>
    <text x="5" y="32" class="nodelabel cell_$procmux$8" s:attribute="">1</text>
    <text x="5" y="13" class="nodelabel cell_$procmux$8" s:attribute="">0</text>
    <g s:x="0" s:y="10" s:pid="A"/>
    <g s:x="0" s:y="30" s:pid="B"/>
    <g s:x="10" s:y="35" s:pid="S"/>
    <g s:x="20" s:y="20" s:pid="Y"/>
  </g>
  <g s:type="inputExt" transform="translate(483,176.5)" s:width="30" s:height="20" id="cell_clk">
    <text x="15" y="-4" class="nodelabel cell_clk" s:attribute="ref">clk</text>
    <s:alias val="$_inputExt_"/>
    <path d="M0,0 L0,20 L15,20 L30,10 L15,0 Z" class="cell_clk" fill="#eceff1"/>
    <g s:x="30" s:y="10" s:pid="Y"/>
  </g>
  <g s:type="inputExt" transform="translate(483,34.5)" s:width="30" s:height="20" id="cell_rst_n">
    <text x="15" y="-4" class="nodelabel cell_rst_n" s:attribute="ref">rst_n</text>
    <s:alias val="$_inputExt_"/>
    <path d="M0,0 L0,20 L15,20 L30,10 L15,0 Z" class="cell_rst_n" fill="#eceff1"/>
    <g s:x="30" s:y="10" s:pid="Y"/>
  </g>
  <g s:type="inputExt" transform="translate(283,388.5)" s:width="30" s:height="20" id="cell_load">
    <text x="15" y="-4" class="nodelabel cell_load" s:attribute="ref">load</text>
    <s:alias val="$_inputExt_"/>
    <path d="M0,0 L0,20 L15,20 L30,10 L15,0 Z" class="cell_load" fill="#eceff1"/>
    <g s:x="30" s:y="10" s:pid="Y"/>
  </g>
  <g s:type="inputExt" transform="translate(283,173)" s:width="30" s:height="20" id="cell_ena">
    <text x="15" y="-4" class="nodelabel cell_ena" s:attribute="ref">ena</text>
    <s:alias val="$_inputExt_"/>
    <path d="M0,0 L0,20 L15,20 L30,10 L15,0 Z" class="cell_ena" fill="#eceff1"/>
    <g s:x="30" s:y="10" s:pid="Y"/>
  </g>
  <g s:type="inputExt" transform="translate(98,245.5)" s:width="30" s:height="20" id="cell_amount">
    <text x="15" y="-4" class="nodelabel cell_amount" s:attribute="ref">amount</text>
    <s:alias val="$_inputExt_"/>
    <path d="M0,0 L0,20 L15,20 L30,10 L15,0 Z" class="cell_amount" fill="#eceff1"/>
    <g s:x="30" s:y="10" s:pid="Y"/>
  </g>
  <g s:type="inputExt" transform="translate(348,203)" s:width="30" s:height="20" id="cell_data">
    <text x="15" y="-4" class="nodelabel cell_data" s:attribute="ref">data</text>
    <s:alias val="$_inputExt_"/>
    <path d="M0,0 L0,20 L15,20 L30,10 L15,0 Z" class="cell_data" fill="#eceff1"/>
    <g s:x="30" s:y="10" s:pid="Y"/>
  </g>
  <g s:type="outputExt" transform="translate(1043,238)" s:width="30" s:height="20" id="cell_q">
    <text x="15" y="-4" class="nodelabel cell_q" s:attribute="ref">q</text>
    <s:alias val="$_outputExt_"/>
    <path d="M30,0 L30,20 L15,20 L0,10 L15,0 Z" class="cell_q" fill="#eceff1"/>
    <g s:x="0" s:y="10" s:pid="A"/>
  </g>
  <g s:type="constant" transform="translate(98,454.5)" s:width="30" s:height="20" id="cell_10">
    <text x="15" y="-4" class="nodelabel cell_10" s:attribute="ref">10</text>
    <s:alias val="$_constant_"/>
    <rect width="30" height="20" class="cell_10" fill="#eceff1"/>
    <g s:x="31" s:y="10" s:pid="Y"/>
  </g>
  <g s:type="constant" transform="translate(12,22)" s:width="30" s:height="20" id="cell_00000000">
    <text x="15" y="-4" class="nodelabel cell_00000000" s:attribute="ref">0x0</text>
    <s:alias val="$_constant_"/>
    <rect width="30" height="20" class="cell_00000000" fill="#eceff1"/>
    <g s:x="31" s:y="10" s:pid="Y"/>
  </g>
  <g s:type="constant" transform="translate(55,22)" s:width="30" s:height="20" id="cell_0">
    <text x="15" y="-4" class="nodelabel cell_0" s:attribute="ref">0</text>
    <s:alias val="$_constant_"/>
    <rect width="30" height="20" class="cell_0" fill="#eceff1"/>
    <g s:x="31" s:y="10" s:pid="Y"/>
  </g>
  <g s:type="constant" transform="translate(98,365)" s:width="30" s:height="20" id="cell_11">
    <text x="15" y="-4" class="nodelabel cell_11" s:attribute="ref">11</text>
    <s:alias val="$_constant_"/>
    <rect width="30" height="20" class="cell_11" fill="#eceff1"/>
    <g s:x="31" s:y="10" s:pid="Y"/>
  </g>
  <g s:type="constant" transform="translate(98,180.5)" s:width="30" s:height="20" id="cell_01">
    <text x="15" y="-4" class="nodelabel cell_01" s:attribute="ref">01</text>
    <s:alias val="$_constant_"/>
    <rect width="30" height="20" class="cell_01" fill="#eceff1"/>
    <g s:x="31" s:y="10" s:pid="Y"/>
  </g>
  <g s:type="join" transform="translate(359,260)" s:width="4" s:height="40" id="cell_$join$,4,5,">
    <rect width="5" height="40" class="splitjoinBody" s:generic="body"/>
    <s:alias val="$_join_"/>
    <g s:x="5" s:y="20" s:pid="out"/>
    <g transform="translate(0,10)" s:x="0" s:y="10" s:pid="in0">
      <text x="-3" y="-4" class="inputPortLabel">0</text>
    </g>
    <g transform="translate(0,30)" s:x="0" s:y="10" s:pid="in0">
      <text x="-3" y="-4" class="inputPortLabel">1</text>
    </g>
  </g>
  <g s:type="join" transform="translate(359,337)" s:width="4" s:height="40" id="cell_$join$,4,202,">
    <rect width="5" height="40" class="splitjoinBody" s:generic="body"/>
    <s:alias val="$_join_"/>
    <g s:x="5" s:y="20" s:pid="out"/>
    <g transform="translate(0,10)" s:x="0" s:y="10" s:pid="in0">
      <text x="-3" y="-4" class="inputPortLabel">0</text>
    </g>
    <g transform="translate(0,30)" s:x="0" s:y="10" s:pid="in0">
      <text x="-3" y="-4" class="inputPortLabel">1</text>
    </g>
  </g>
  <g s:type="join" transform="translate(359,411.5)" s:width="4" s:height="40" id="cell_$join$,4,204,">
    <rect width="5" height="40" class="splitjoinBody" s:generic="body"/>
    <s:alias val="$_join_"/>
    <g s:x="5" s:y="20" s:pid="out"/>
    <g transform="translate(0,10)" s:x="0" s:y="10" s:pid="in0">
      <text x="-3" y="-4" class="inputPortLabel">0</text>
    </g>
    <g transform="translate(0,30)" s:x="0" s:y="10" s:pid="in0">
      <text x="-3" y="-4" class="inputPortLabel">1</text>
    </g>
  </g>
  <g s:type="join" transform="translate(493,334.5)" s:width="4" s:height="40" id="cell_$join$,205,203,199,">
    <rect width="5" height="60" class="splitjoinBody" s:generic="body"/>
    <s:alias val="$_join_"/>
    <g s:x="5" s:y="20" s:pid="out"/>
    <g transform="translate(0,10)" s:x="0" s:y="10" s:pid="in0">
      <text x="-3" y="-4" class="inputPortLabel">0</text>
    </g>
    <g transform="translate(0,30)" s:x="0" s:y="10" s:pid="in0">
      <text x="-3" y="-4" class="inputPortLabel">1</text>
    </g>
    <g transform="translate(0,50)" s:x="0" s:y="10" s:pid="in0">
      <text x="-3" y="-4" class="inputPortLabel">2</text>
    </g>
  </g>
  <g s:type="join" transform="translate(1067,24)" s:width="4" s:height="40" id="cell_$join$,80,81,82,83,84,85,86,87,88,89,90,91,92,93,94,95,96,97,98,99,100,101,102,103,104,105,106,107,108,109,110,111,112,113,114,115,116,117,118,119,120,121,122,123,124,125,126,127,128,129,130,131,132,133,134,135,135,135,135,135,135,135,135,x,73,74,75,76,77,78,79,80,81,82,83,84,85,86,87,88,89,90,91,92,93,94,95,96,97,98,99,100,101,102,103,104,105,106,107,108,109,110,111,112,113,114,115,116,117,118,119,120,121,122,123,124,125,126,127,128,129,130,131,132,133,134,135,x,340,341,342,343,344,345,346,347,72,73,74,75,76,77,78,79,80,81,82,83,84,85,86,87,88,89,90,91,92,93,94,95,96,97,98,99,100,101,102,103,104,105,106,107,108,109,110,111,112,113,114,115,116,117,118,119,120,121,122,123,124,125,126,127,348,72,73,74,75,76,77,78,79,80,81,82,83,84,85,86,87,88,89,90,91,92,93,94,95,96,97,98,99,100,101,102,103,104,105,106,107,108,109,110,111,112,113,114,115,116,117,118,119,120,121,122,123,124,125,126,127,128,129,130,131,132,133,134,">
    <rect width="5" height="40" class="splitjoinBody" s:generic="body"/>
    <s:alias val="$_join_"/>
    <g s:x="5" s:y="20" s:pid="out"/>
    <g transform="translate(0,10)" s:x="0" s:y="10" s:pid="in0">
      <text x="-3" y="-4" class="inputPortLabel">0:55</text>
    </g>
  </g>
  <g s:type="join" transform="translate(1001,14)" s:width="4" s:height="40" id="cell_$join$,80,81,82,83,84,85,86,87,88,89,90,91,92,93,94,95,96,97,98,99,100,101,102,103,104,105,106,107,108,109,110,111,112,113,114,115,116,117,118,119,120,121,122,123,124,125,126,127,128,129,130,131,132,133,134,135,">
    <rect width="5" height="40" class="splitjoinBody" s:generic="body"/>
    <s:alias val="$_join_"/>
    <g s:x="5" s:y="20" s:pid="out"/>
    <g transform="translate(0,10)" s:x="0" s:y="10" s:pid="in0">
      <text x="-3" y="-4" class="inputPortLabel">0:54</text>
    </g>
    <g transform="translate(0,30)" s:x="0" s:y="10" s:pid="in0">
      <text x="-3" y="-4" class="inputPortLabel">55</text>
    </g>
  </g>
  <g s:type="join" transform="translate(242,132.5)" s:width="4" s:height="40" id="cell_$join$,202,204,270,271,">
    <rect width="5" height="80" class="splitjoinBody" s:generic="body"/>
    <s:alias val="$_join_"/>
    <g s:x="5" s:y="20" s:pid="out"/>
    <g transform="translate(0,10)" s:x="0" s:y="10" s:pid="in0">
      <text x="-3" y="-4" class="inputPortLabel">0</text>
    </g>
    <g transform="translate(0,30)" s:x="0" s:y="10" s:pid="in0">
      <text x="-3" y="-4" class="inputPortLabel">1</text>
    </g>
    <g transform="translate(0,50)" s:x="0" s:y="10" s:pid="in0">
      <text x="-3" y="-4" class="inputPortLabel">2</text>
    </g>
    <g transform="translate(0,70)" s:x="0" s:y="10" s:pid="in0">
      <text x="-3" y="-4" class="inputPortLabel">3</text>
    </g>
  </g>
  <g s:type="join" transform="translate(1001,227.5)" s:width="4" s:height="40" id="cell_$join$,72,73,74,75,76,77,78,79,80,81,82,83,84,85,86,87,88,89,90,91,92,93,94,95,96,97,98,99,100,101,102,103,104,105,106,107,108,109,110,111,112,113,114,115,116,117,118,119,120,121,122,123,124,125,126,127,128,129,130,131,132,133,134,135,">
    <rect width="5" height="40" class="splitjoinBody" s:generic="body"/>
    <s:alias val="$_join_"/>
    <g s:x="5" s:y="20" s:pid="out"/>
    <g transform="translate(0,10)" s:x="0" s:y="10" s:pid="in0">
      <text x="-3" y="-4" class="inputPortLabel">0:62</text>
    </g>
    <g transform="translate(0,30)" s:x="0" s:y="10" s:pid="in0">
      <text x="-3" y="-4" class="inputPortLabel">63</text>
    </g>
  </g>
  <g s:type="split" transform="translate(483,91.5)" s:width="5" s:height="40" id="cell_$split$,136,137,138,139,140,141,142,143,144,145,146,147,148,149,150,151,152,153,154,155,156,157,158,159,160,161,162,163,164,165,166,167,168,169,170,171,172,173,174,175,176,177,178,179,180,181,182,183,184,185,186,187,188,189,190,191,192,193,194,195,196,197,198,200,">
    <rect width="5" height="40" class="splitjoinBody" s:generic="body"/>
    <s:alias val="$_split_"/>
    <g s:x="0" s:y="20" s:pid="in"/>
    <g transform="translate(4,10)" s:x="4" s:y="10" s:pid="out0">
      <text x="5" y="-4">0:62</text>
    </g>
    <g transform="translate(4,30)" s:x="4" s:y="10" s:pid="out0">
      <text x="5" y="-4">63</text>
    </g>
  </g>
  <g s:type="split" transform="translate(822,152)" s:width="5" s:height="40" id="cell_$split$,72,73,74,75,76,77,78,79,80,81,82,83,84,85,86,87,88,89,90,91,92,93,94,95,96,97,98,99,100,101,102,103,104,105,106,107,108,109,110,111,112,113,114,115,116,117,118,119,120,121,122,123,124,125,126,127,128,129,130,131,132,133,134,">
    <rect width="5" height="20" class="splitjoinBody" s:generic="body"/>
    <s:alias val="$_split_"/>
    <g s:x="0" s:y="20" s:pid="in"/>
    <g transform="translate(4,10)" s:x="4" s:y="10" s:pid="out0">
      <text x="5" y="-4">8:62</text>
    </g>
  </g>
  <line x1="513" x2="543" y1="44.5" y2="44.5" class="net_3"/>
  <line x1="543" x2="543" y1="44.5" y2="228" class="net_3"/>
  <circle cx="543" cy="44.5" r="2" style="fill:#000" class="net_3"/>
  <line x1="543" x2="578" y1="228" y2="228" class="net_3"/>
  <line x1="513" x2="797" y1="44.5" y2="44.5" class="net_3"/>
  <line x1="513" x2="533" y1="186.5" y2="186.5" class="net_2"/>
  <line x1="533" x2="533" y1="186.5" y2="248" class="net_2"/>
  <circle cx="533" cy="186.5" r="2" style="fill:#000" class="net_2"/>
  <line x1="533" x2="578" y1="248" y2="248" class="net_2"/>
  <line x1="513" x2="742" y1="186.5" y2="186.5" class="net_2"/>
  <line x1="742" x2="742" y1="186.5" y2="64.5" class="net_2"/>
  <line x1="742" x2="797" y1="64.5" y2="64.5" class="net_2"/>
  <line x1="488" x2="523" y1="102" y2="102" class="net_136,137,138,139,140,141,142,143,144,145,146,147,148,149,150,151,152,153,154,155,156,157,158,159,160,161,162,163,164,165,166,167,168,169,170,171,172,173,174,175,176,177,178,179,180,181,182,183,184,185,186,187,188,189,190,191,192,193,194,195,196,197,198"/>
  <line x1="523" x2="523" y1="102" y2="268" class="net_136,137,138,139,140,141,142,143,144,145,146,147,148,149,150,151,152,153,154,155,156,157,158,159,160,161,162,163,164,165,166,167,168,169,170,171,172,173,174,175,176,177,178,179,180,181,182,183,184,185,186,187,188,189,190,191,192,193,194,195,196,197,198"/>
  <line x1="523" x2="578" y1="268" y2="268" class="net_136,137,138,139,140,141,142,143,144,145,146,147,148,149,150,151,152,153,154,155,156,157,158,159,160,161,162,163,164,165,166,167,168,169,170,171,172,173,174,175,176,177,178,179,180,181,182,183,184,185,186,187,188,189,190,191,192,193,194,195,196,197,198"/>
  <line x1="448" x2="578" y1="288" y2="288" class="net_199"/>
  <line x1="448" x2="468" y1="288" y2="288" class="net_199"/>
  <line x1="468" x2="468" y1="288" y2="385" class="net_199"/>
  <circle cx="468" cy="288" r="2" style="fill:#000" class="net_199"/>
  <line x1="468" x2="493" y1="385" y2="385" class="net_199"/>
  <line x1="488" x2="732" y1="122" y2="122" class="net_200"/>
  <line x1="732" x2="732" y1="122" y2="84.5" class="net_200"/>
  <line x1="732" x2="797" y1="84.5" y2="84.5" class="net_200"/>
  <line x1="652.5" x2="752" y1="362.5" y2="362.5" class="net_201"/>
  <line x1="752" x2="752" y1="362.5" y2="104.5" class="net_201"/>
  <line x1="752" x2="797" y1="104.5" y2="104.5" class="net_201"/>
  <line x1="365" x2="420" y1="280.5" y2="280.5" class="net_4,5"/>
  <line x1="365" x2="421.6666666666667" y1="357.5" y2="357.5" class="net_4,202"/>
  <line x1="129" x2="408" y1="464.5" y2="464.5" class="net_336,337"/>
  <line x1="408" x2="408" y1="464.5" y2="372.5" class="net_336,337"/>
  <line x1="408" x2="421.6666666666667" y1="372.5" y2="372.5" class="net_336,337"/>
  <line x1="129" x2="408" y1="464.5" y2="464.5" class="net_336,337"/>
  <line x1="408" x2="408" y1="464.5" y2="447" class="net_336,337"/>
  <circle cx="408" cy="447" r="2" style="fill:#000" class="net_336,337"/>
  <line x1="408" x2="421.6666666666667" y1="447" y2="447" class="net_336,337"/>
  <line x1="129" x2="144" y1="464.5" y2="464.5" class="net_336,337"/>
  <line x1="144" x2="144" y1="464.5" y2="449.5" class="net_336,337"/>
  <circle cx="144" cy="464.5" r="2" style="fill:#000" class="net_336,337"/>
  <line x1="144" x2="173.33333333333331" y1="449.5" y2="449.5" class="net_336,337"/>
  <line x1="365" x2="421.6666666666667" y1="432" y2="432" class="net_4,204"/>
  <line x1="499" x2="622.5" y1="355" y2="355" class="net_205,203,199"/>
  <line x1="373.66666666666663" x2="421.3333333333333" y1="102" y2="102" class="net_206,207,208,209,210,211,212,213,214,215,216,217,218,219,220,221,222,223,224,225,226,227,228,229,230,231,232,233,234,235,236,237,238,239,240,241,242,243,244,245,246,247,248,249,250,251,252,253,254,255,256,257,258,259,260,261,262,263,264,265,266,267,268,269"/>
  <line x1="378" x2="388" y1="213" y2="213" class="net_8,9,10,11,12,13,14,15,16,17,18,19,20,21,22,23,24,25,26,27,28,29,30,31,32,33,34,35,36,37,38,39,40,41,42,43,44,45,46,47,48,49,50,51,52,53,54,55,56,57,58,59,60,61,62,63,64,65,66,67,68,69,70,71"/>
  <line x1="388" x2="388" y1="213" y2="122" class="net_8,9,10,11,12,13,14,15,16,17,18,19,20,21,22,23,24,25,26,27,28,29,30,31,32,33,34,35,36,37,38,39,40,41,42,43,44,45,46,47,48,49,50,51,52,53,54,55,56,57,58,59,60,61,62,63,64,65,66,67,68,69,70,71"/>
  <line x1="388" x2="421.3333333333333" y1="122" y2="122" class="net_8,9,10,11,12,13,14,15,16,17,18,19,20,21,22,23,24,25,26,27,28,29,30,31,32,33,34,35,36,37,38,39,40,41,42,43,44,45,46,47,48,49,50,51,52,53,54,55,56,57,58,59,60,61,62,63,64,65,66,67,68,69,70,71"/>
  <line x1="313" x2="398" y1="398.5" y2="398.5" class="net_4"/>
  <line x1="398" x2="398" y1="398.5" y2="142" class="net_4"/>
  <line x1="398" x2="431.3333333333333" y1="142" y2="142" class="net_4"/>
  <line x1="431.3333333333333" x2="431.3333333333333" y1="142" y2="127" class="net_4"/>
  <line x1="313" x2="323" y1="398.5" y2="398.5" class="net_4"/>
  <line x1="323" x2="323" y1="398.5" y2="270.5" class="net_4"/>
  <circle cx="323" cy="398.5" r="2" style="fill:#000" class="net_4"/>
  <line x1="323" x2="359" y1="270.5" y2="270.5" class="net_4"/>
  <line x1="313" x2="323" y1="398.5" y2="398.5" class="net_4"/>
  <line x1="323" x2="323" y1="398.5" y2="347.5" class="net_4"/>
  <circle cx="323" cy="347.5" r="2" style="fill:#000" class="net_4"/>
  <line x1="323" x2="359" y1="347.5" y2="347.5" class="net_4"/>
  <line x1="313" x2="323" y1="398.5" y2="398.5" class="net_4"/>
  <line x1="323" x2="323" y1="398.5" y2="422" class="net_4"/>
  <line x1="323" x2="359" y1="422" y2="422" class="net_4"/>
  <line x1="258" x2="258" y1="92" y2="113" class="net_x,x,x,x,x,x,x,x,x,x,x,x,x,x,x,x,x,x,x,x,x,x,x,x,x,x,x,x,x,x,x,x,x,x,x,x,x,x,x,x,x,x,x,x,x,x,x,x,x,x,x,x,x,x,x,x,x,x,x,x,x,x,x,x"/>
  <line x1="258" x2="288" y1="113" y2="113" class="net_x,x,x,x,x,x,x,x,x,x,x,x,x,x,x,x,x,x,x,x,x,x,x,x,x,x,x,x,x,x,x,x,x,x,x,x,x,x,x,x,x,x,x,x,x,x,x,x,x,x,x,x,x,x,x,x,x,x,x,x,x,x,x,x"/>
  <line x1="258" x2="353.66666666666663" y1="92" y2="92" class="net_x,x,x,x,x,x,x,x,x,x,x,x,x,x,x,x,x,x,x,x,x,x,x,x,x,x,x,x,x,x,x,x,x,x,x,x,x,x,x,x,x,x,x,x,x,x,x,x,x,x,x,x,x,x,x,x,x,x,x,x,x,x,x,x"/>
  <line x1="248" x2="298" y1="153" y2="153" class="net_202,204,270,271"/>
  <line x1="298" x2="298" y1="153" y2="138" class="net_202,204,270,271"/>
  <line x1="128" x2="144" y1="255.5" y2="255.5" class="net_6,7"/>
  <line x1="144" x2="144" y1="255.5" y2="360" class="net_6,7"/>
  <circle cx="144" cy="255.5" r="2" style="fill:#000" class="net_6,7"/>
  <circle cx="144" cy="360" r="2" style="fill:#000" class="net_6,7"/>
  <line x1="144" x2="173.33333333333331" y1="360" y2="360" class="net_6,7"/>
  <line x1="128" x2="144" y1="255.5" y2="255.5" class="net_6,7"/>
  <line x1="144" x2="144" y1="255.5" y2="434.5" class="net_6,7"/>
  <line x1="144" x2="173.33333333333331" y1="434.5" y2="434.5" class="net_6,7"/>
  <line x1="128" x2="144" y1="255.5" y2="255.5" class="net_6,7"/>
  <line x1="144" x2="144" y1="255.5" y2="175.5" class="net_6,7"/>
  <line x1="144" x2="173.33333333333331" y1="175.5" y2="175.5" class="net_6,7"/>
  <line x1="128" x2="169" y1="255.5" y2="255.5" class="net_6,7"/>
  <line x1="129" x2="173.33333333333331" y1="375" y2="375" class="net_349,350"/>
  <line x1="129" x2="173.33333333333331" y1="190.5" y2="190.5" class="net_353,354"/>
  <line x1="308" x2="323" y1="123" y2="123" class="net_272,273,274,275,276,277,278,279,280,281,282,283,284,285,286,287,288,289,290,291,292,293,294,295,296,297,298,299,300,301,302,303,304,305,306,307,308,309,310,311,312,313,314,315,316,317,318,319,320,321,322,323,324,325,326,327,328,329,330,331,332,333,334,335"/>
  <line x1="323" x2="323" y1="123" y2="112" class="net_272,273,274,275,276,277,278,279,280,281,282,283,284,285,286,287,288,289,290,291,292,293,294,295,296,297,298,299,300,301,302,303,304,305,306,307,308,309,310,311,312,313,314,315,316,317,318,319,320,321,322,323,324,325,326,327,328,329,330,331,332,333,334,335"/>
  <line x1="323" x2="353.66666666666663" y1="112" y2="112" class="net_272,273,274,275,276,277,278,279,280,281,282,283,284,285,286,287,288,289,290,291,292,293,294,295,296,297,298,299,300,301,302,303,304,305,306,307,308,309,310,311,312,313,314,315,316,317,318,319,320,321,322,323,324,325,326,327,328,329,330,331,332,333,334,335"/>
  <line x1="313" x2="363.66666666666663" y1="183" y2="183" class="net_5"/>
  <line x1="363.66666666666663" x2="363.66666666666663" y1="183" y2="117" class="net_5"/>
  <line x1="313" x2="333" y1="183" y2="183" class="net_5"/>
  <line x1="333" x2="333" y1="183" y2="290.5" class="net_5"/>
  <circle cx="333" cy="183" r="2" style="fill:#000" class="net_5"/>
  <line x1="333" x2="359" y1="290.5" y2="290.5" class="net_5"/>
  <line x1="1007" x2="1043" y1="248" y2="248" class="net_72,73,74,75,76,77,78,79,80,81,82,83,84,85,86,87,88,89,90,91,92,93,94,95,96,97,98,99,100,101,102,103,104,105,106,107,108,109,110,111,112,113,114,115,116,117,118,119,120,121,122,123,124,125,126,127,128,129,130,131,132,133,134,135"/>
  <line x1="196.33333333333331" x2="359" y1="367.5" y2="367.5" class="net_202"/>
  <line x1="196.33333333333331" x2="210" y1="367.5" y2="367.5" class="net_202"/>
  <line x1="210" x2="210" y1="367.5" y2="143" class="net_202"/>
  <circle cx="210" cy="367.5" r="2" style="fill:#000" class="net_202"/>
  <line x1="210" x2="242" y1="143" y2="143" class="net_202"/>
  <line x1="196.33333333333331" x2="359" y1="442" y2="442" class="net_204"/>
  <line x1="196.33333333333331" x2="220" y1="442" y2="442" class="net_204"/>
  <line x1="220" x2="220" y1="442" y2="163" class="net_204"/>
  <circle cx="220" cy="442" r="2" style="fill:#000" class="net_204"/>
  <line x1="220" x2="242" y1="163" y2="163" class="net_204"/>
  <line x1="444.6666666666667" x2="458" y1="439.5" y2="439.5" class="net_205"/>
  <line x1="458" x2="458" y1="439.5" y2="345" class="net_205"/>
  <line x1="458" x2="493" y1="345" y2="345" class="net_205"/>
  <line x1="444.6666666666667" x2="493" y1="365" y2="365" class="net_203"/>
  <line x1="1007" x2="1067" y1="34.5" y2="34.5" class="net_80,81,82,83,84,85,86,87,88,89,90,91,92,93,94,95,96,97,98,99,100,101,102,103,104,105,106,107,108,109,110,111,112,113,114,115,116,117,118,119,120,121,122,123,124,125,126,127,128,129,130,131,132,133,134,135"/>
  <line x1="827" x2="951" y1="162.5" y2="162.5" class="net_80,81,82,83,84,85,86,87,88,89,90,91,92,93,94,95,96,97,98,99,100,101,102,103,104,105,106,107,108,109,110,111,112,113,114,115,116,117,118,119,120,121,122,123,124,125,126,127,128,129,130,131,132,133,134"/>
  <line x1="951" x2="951" y1="162.5" y2="24.5" class="net_80,81,82,83,84,85,86,87,88,89,90,91,92,93,94,95,96,97,98,99,100,101,102,103,104,105,106,107,108,109,110,111,112,113,114,115,116,117,118,119,120,121,122,123,124,125,126,127,128,129,130,131,132,133,134"/>
  <line x1="951" x2="1001" y1="24.5" y2="24.5" class="net_80,81,82,83,84,85,86,87,88,89,90,91,92,93,94,95,96,97,98,99,100,101,102,103,104,105,106,107,108,109,110,111,112,113,114,115,116,117,118,119,120,121,122,123,124,125,126,127,128,129,130,131,132,133,134"/>
  <line x1="828" x2="1001" y1="44.5" y2="44.5" class="net_135"/>
  <line x1="828" x2="961" y1="44.5" y2="44.5" class="net_135"/>
  <line x1="961" x2="961" y1="44.5" y2="258" class="net_135"/>
  <circle cx="961" cy="44.5" r="2" style="fill:#000" class="net_135"/>
  <line x1="961" x2="1001" y1="258" y2="258" class="net_135"/>
  <line x1="196.33333333333331" x2="242" y1="183" y2="183" class="net_270"/>
  <line x1="197" x2="242.5" y1="255.5" y2="255.5" class="net_271"/>
  <line x1="242.5" x2="242.5" y1="255.5" y2="203.5" class="net_271"/>
  <line x1="609" x2="762" y1="228" y2="228" class="net_72,73,74,75,76,77,78,79,80,81,82,83,84,85,86,87,88,89,90,91,92,93,94,95,96,97,98,99,100,101,102,103,104,105,106,107,108,109,110,111,112,113,114,115,116,117,118,119,120,121,122,123,124,125,126,127,128,129,130,131,132,133,134"/>
  <line x1="762" x2="762" y1="228" y2="238" class="net_72,73,74,75,76,77,78,79,80,81,82,83,84,85,86,87,88,89,90,91,92,93,94,95,96,97,98,99,100,101,102,103,104,105,106,107,108,109,110,111,112,113,114,115,116,117,118,119,120,121,122,123,124,125,126,127,128,129,130,131,132,133,134"/>
  <circle cx="762" cy="228" r="2" style="fill:#000" class="net_72,73,74,75,76,77,78,79,80,81,82,83,84,85,86,87,88,89,90,91,92,93,94,95,96,97,98,99,100,101,102,103,104,105,106,107,108,109,110,111,112,113,114,115,116,117,118,119,120,121,122,123,124,125,126,127,128,129,130,131,132,133,134"/>
  <line x1="762" x2="1001" y1="238" y2="238" class="net_72,73,74,75,76,77,78,79,80,81,82,83,84,85,86,87,88,89,90,91,92,93,94,95,96,97,98,99,100,101,102,103,104,105,106,107,108,109,110,111,112,113,114,115,116,117,118,119,120,121,122,123,124,125,126,127,128,129,130,131,132,133,134"/>
  <line x1="609" x2="822.5" y1="228" y2="228" class="net_72,73,74,75,76,77,78,79,80,81,82,83,84,85,86,87,88,89,90,91,92,93,94,95,96,97,98,99,100,101,102,103,104,105,106,107,108,109,110,111,112,113,114,115,116,117,118,119,120,121,122,123,124,125,126,127,128,129,130,131,132,133,134"/>
  <line x1="822.5" x2="822.5" y1="228" y2="173" class="net_72,73,74,75,76,77,78,79,80,81,82,83,84,85,86,87,88,89,90,91,92,93,94,95,96,97,98,99,100,101,102,103,104,105,106,107,108,109,110,111,112,113,114,115,116,117,118,119,120,121,122,123,124,125,126,127,128,129,130,131,132,133,134"/>
  <line x1="441.3333333333333" x2="483" y1="112" y2="112" class="net_136,137,138,139,140,141,142,143,144,145,146,147,148,149,150,151,152,153,154,155,156,157,158,159,160,161,162,163,164,165,166,167,168,169,170,171,172,173,174,175,176,177,178,179,180,181,182,183,184,185,186,187,188,189,190,191,192,193,194,195,196,197,198,200"/>
</svg>
