<svg xmlns="http://www.w3.org/2000/svg" xmlns:xlink="http://www.w3.org/1999/xlink" xmlns:s="https://github.com/nturley/netlistsvg" width="1899" height="468">
  <style>svg {
    stroke:#000;
    fill:none;
    background-color: white;
  }
  text {
    fill:#000;
    stroke:none;
    font-size:10px;
    font-weight: bold;
    font-family: "Courier New", monospace;
  }
  line {
      stroke-linecap: round;
  }
  .nodelabel {
    text-anchor: middle;
  }
  .inputPortLabel {
    text-anchor: end;
  }
  .splitjoinBody {
    fill:#000;
  }
  /* --- Brandon 的客製化顏色區隔 --- */
  /* 多路選擇器 (Mux) - 淺藍色 */
  [s\:type^="mux"] path { fill: #e1f5fe; }
  /* 邏輯閘 (And, Or, Xor, Not) - 淺綠色 */
  [s\:type="and"], [s\:type="nand"], [s\:type="andnot"],
  [s\:type="or"], [s\:type="reduce_nor"], [s\:type="ornot"],
  [s\:type="reduce_xor"], [s\:type="reduce_nxor"],
  [s\:type="not"], [s\:type="buf"] path { fill: #e8f5e9; }
  /* 觸發器 (DFF) - 淺橘色 */
  [s\:type^="dff"] rect, [s\:type^="dlatch"] rect { fill: #fff3e0; }
  /* 算術運算 (Add, Sub, Mul, Shl, Shr) - 淺紫色 */
  [s\:type="add"] circle, [s\:type="sub"] circle, [s\:type="mul"] circle,
  [s\:type="div"] circle, [s\:type="shl"] circle, [s\:type="shr"] circle,
  [s\:type="sshl"] circle, [s\:type="sshr"] circle { fill: #f3e5f5; }
  /* 輸入輸出端點 - 淺灰色 */
  [s\:type="inputExt"] path, [s\:type="outputExt"] path { fill: #eceff1; }</style>
  <g s:type="mux" transform="translate(1675.3333333333333,22.5)" s:width="20" s:height="40" id="cell_$auto$simplemap.cc:298:simplemap_mux$107">
    <s:alias val="$pmux"/>
    <s:alias val="$mux"/>
    <s:alias val="$_MUX_"/>
    <path d="M0,0 L20,10 L20,30 L0,40 Z" class="cell_$auto$simplemap.cc:298:simplemap_mux$107" fill="#e1f5fe"/>
    <text x="5" y="32" class="nodelabel cell_$auto$simplemap.cc:298:simplemap_mux$107" s:attribute="">1</text>
    <text x="5" y="13" class="nodelabel cell_$auto$simplemap.cc:298:simplemap_mux$107" s:attribute="">0</text>
    <g s:x="0" s:y="10" s:pid="A"/>
    <g s:x="0" s:y="30" s:pid="B"/>
    <g s:x="10" s:y="35" s:pid="S"/>
    <g s:x="20" s:y="20" s:pid="Y"/>
  </g>
  <g s:type="mux" transform="translate(1675.3333333333333,107.5)" s:width="20" s:height="40" id="cell_$auto$simplemap.cc:298:simplemap_mux$109">
    <s:alias val="$pmux"/>
    <s:alias val="$mux"/>
    <s:alias val="$_MUX_"/>
    <path d="M0,0 L20,10 L20,30 L0,40 Z" class="cell_$auto$simplemap.cc:298:simplemap_mux$109" fill="#e1f5fe"/>
    <text x="5" y="32" class="nodelabel cell_$auto$simplemap.cc:298:simplemap_mux$109" s:attribute="">1</text>
    <text x="5" y="13" class="nodelabel cell_$auto$simplemap.cc:298:simplemap_mux$109" s:attribute="">0</text>
    <g s:x="0" s:y="10" s:pid="A"/>
    <g s:x="0" s:y="30" s:pid="B"/>
    <g s:x="10" s:y="35" s:pid="S"/>
    <g s:x="20" s:y="20" s:pid="Y"/>
  </g>
  <g s:type="mux" transform="translate(1675.3333333333333,226)" s:width="20" s:height="40" id="cell_$auto$simplemap.cc:298:simplemap_mux$111">
    <s:alias val="$pmux"/>
    <s:alias val="$mux"/>
    <s:alias val="$_MUX_"/>
    <path d="M0,0 L20,10 L20,30 L0,40 Z" class="cell_$auto$simplemap.cc:298:simplemap_mux$111" fill="#e1f5fe"/>
    <text x="5" y="32" class="nodelabel cell_$auto$simplemap.cc:298:simplemap_mux$111" s:attribute="">1</text>
    <text x="5" y="13" class="nodelabel cell_$auto$simplemap.cc:298:simplemap_mux$111" s:attribute="">0</text>
    <g s:x="0" s:y="10" s:pid="A"/>
    <g s:x="0" s:y="30" s:pid="B"/>
    <g s:x="10" s:y="35" s:pid="S"/>
    <g s:x="20" s:y="20" s:pid="Y"/>
  </g>
  <g s:type="mux" transform="translate(1675.3333333333333,351)" s:width="20" s:height="40" id="cell_$auto$simplemap.cc:298:simplemap_mux$113">
    <s:alias val="$pmux"/>
    <s:alias val="$mux"/>
    <s:alias val="$_MUX_"/>
    <path d="M0,0 L20,10 L20,30 L0,40 Z" class="cell_$auto$simplemap.cc:298:simplemap_mux$113" fill="#e1f5fe"/>
    <text x="5" y="32" class="nodelabel cell_$auto$simplemap.cc:298:simplemap_mux$113" s:attribute="">1</text>
    <text x="5" y="13" class="nodelabel cell_$auto$simplemap.cc:298:simplemap_mux$113" s:attribute="">0</text>
    <g s:x="0" s:y="10" s:pid="A"/>
    <g s:x="0" s:y="30" s:pid="B"/>
    <g s:x="10" s:y="35" s:pid="S"/>
    <g s:x="20" s:y="20" s:pid="Y"/>
  </g>
  <g s:type="mux" transform="translate(1802,42.5)" s:width="20" s:height="40" id="cell_$auto$simplemap.cc:298:simplemap_mux$115">
    <s:alias val="$pmux"/>
    <s:alias val="$mux"/>
    <s:alias val="$_MUX_"/>
    <path d="M0,0 L20,10 L20,30 L0,40 Z" class="cell_$auto$simplemap.cc:298:simplemap_mux$115" fill="#e1f5fe"/>
    <text x="5" y="32" class="nodelabel cell_$auto$simplemap.cc:298:simplemap_mux$115" s:attribute="">1</text>
    <text x="5" y="13" class="nodelabel cell_$auto$simplemap.cc:298:simplemap_mux$115" s:attribute="">0</text>
    <g s:x="0" s:y="10" s:pid="A"/>
    <g s:x="0" s:y="30" s:pid="B"/>
    <g s:x="10" s:y="35" s:pid="S"/>
    <g s:x="20" s:y="20" s:pid="Y"/>
  </g>
  <g s:type="mux" transform="translate(1740.3333333333333,32.5)" s:width="20" s:height="40" id="cell_$auto$simplemap.cc:298:simplemap_mux$123">
    <s:alias val="$pmux"/>
    <s:alias val="$mux"/>
    <s:alias val="$_MUX_"/>
    <path d="M0,0 L20,10 L20,30 L0,40 Z" class="cell_$auto$simplemap.cc:298:simplemap_mux$123" fill="#e1f5fe"/>
    <text x="5" y="32" class="nodelabel cell_$auto$simplemap.cc:298:simplemap_mux$123" s:attribute="">1</text>
    <text x="5" y="13" class="nodelabel cell_$auto$simplemap.cc:298:simplemap_mux$123" s:attribute="">0</text>
    <g s:x="0" s:y="10" s:pid="A"/>
    <g s:x="0" s:y="30" s:pid="B"/>
    <g s:x="10" s:y="35" s:pid="S"/>
    <g s:x="20" s:y="20" s:pid="Y"/>
  </g>
  <g s:type="mux" transform="translate(1740.3333333333333,236)" s:width="20" s:height="40" id="cell_$auto$simplemap.cc:298:simplemap_mux$127">
    <s:alias val="$pmux"/>
    <s:alias val="$mux"/>
    <s:alias val="$_MUX_"/>
    <path d="M0,0 L20,10 L20,30 L0,40 Z" class="cell_$auto$simplemap.cc:298:simplemap_mux$127" fill="#e1f5fe"/>
    <text x="5" y="32" class="nodelabel cell_$auto$simplemap.cc:298:simplemap_mux$127" s:attribute="">1</text>
    <text x="5" y="13" class="nodelabel cell_$auto$simplemap.cc:298:simplemap_mux$127" s:attribute="">0</text>
    <g s:x="0" s:y="10" s:pid="A"/>
    <g s:x="0" s:y="30" s:pid="B"/>
    <g s:x="10" s:y="35" s:pid="S"/>
    <g s:x="20" s:y="20" s:pid="Y"/>
  </g>
  <g s:type="generic" transform="translate(120,22)" s:width="30" s:height="40" id="cell_MEMORY_CIRCUIT[0].dff">
    <text x="15" y="-4" class="nodelabel cell_MEMORY_CIRCUIT[0].dff" s:attribute="ref">EN_DFF</text>
    <rect width="30" height="60" s:generic="body" class="cell_MEMORY_CIRCUIT[0].dff" fill="#fafafa"/>
    <g transform="translate(0,10)" s:x="0" s:y="10" s:pid="in0" id="port_MEMORY_CIRCUIT[0].dff~SI">
      <text x="-3" y="-4" class="inputPortLabel cell_MEMORY_CIRCUIT[0].dff">SI</text>
    </g>
    <g transform="translate(0,30)" s:x="0" s:y="10" s:pid="in0" id="port_MEMORY_CIRCUIT[0].dff~clk">
      <text x="-3" y="-4" class="inputPortLabel cell_MEMORY_CIRCUIT[0].dff">clk</text>
    </g>
    <g transform="translate(0,50)" s:x="0" s:y="10" s:pid="in0" id="port_MEMORY_CIRCUIT[0].dff~enable">
      <text x="-3" y="-4" class="inputPortLabel cell_MEMORY_CIRCUIT[0].dff">enable</text>
    </g>
    <g transform="translate(30,10)" s:x="30" s:y="10" s:pid="out0" id="port_MEMORY_CIRCUIT[0].dff~SO">
      <text x="5" y="-4" style="fill:#000; stroke:none" class="cell_MEMORY_CIRCUIT[0].dff">SO</text>
    </g>
  </g>
  <g s:type="generic" transform="translate(318,64.5)" s:width="30" s:height="40" id="cell_MEMORY_CIRCUIT[1].dff">
    <text x="15" y="-4" class="nodelabel cell_MEMORY_CIRCUIT[1].dff" s:attribute="ref">EN_DFF</text>
    <rect width="30" height="60" s:generic="body" class="cell_MEMORY_CIRCUIT[1].dff" fill="#fafafa"/>
    <g transform="translate(0,10)" s:x="0" s:y="10" s:pid="in0" id="port_MEMORY_CIRCUIT[1].dff~SI">
      <text x="-3" y="-4" class="inputPortLabel cell_MEMORY_CIRCUIT[1].dff">SI</text>
    </g>
    <g transform="translate(0,30)" s:x="0" s:y="10" s:pid="in0" id="port_MEMORY_CIRCUIT[1].dff~clk">
      <text x="-3" y="-4" class="inputPortLabel cell_MEMORY_CIRCUIT[1].dff">clk</text>
    </g>
    <g transform="translate(0,50)" s:x="0" s:y="10" s:pid="in0" id="port_MEMORY_CIRCUIT[1].dff~enable">
      <text x="-3" y="-4" class="inputPortLabel cell_MEMORY_CIRCUIT[1].dff">enable</text>
    </g>
    <g transform="translate(30,10)" s:x="30" s:y="10" s:pid="out0" id="port_MEMORY_CIRCUIT[1].dff~SO">
      <text x="5" y="-4" style="fill:#000; stroke:none" class="cell_MEMORY_CIRCUIT[1].dff">SO</text>
    </g>
  </g>
  <g s:type="generic" transform="translate(516,107)" s:width="30" s:height="40" id="cell_MEMORY_CIRCUIT[2].dff">
    <text x="15" y="-4" class="nodelabel cell_MEMORY_CIRCUIT[2].dff" s:attribute="ref">EN_DFF</text>
    <rect width="30" height="60" s:generic="body" class="cell_MEMORY_CIRCUIT[2].dff" fill="#fafafa"/>
    <g transform="translate(0,10)" s:x="0" s:y="10" s:pid="in0" id="port_MEMORY_CIRCUIT[2].dff~SI">
      <text x="-3" y="-4" class="inputPortLabel cell_MEMORY_CIRCUIT[2].dff">SI</text>
    </g>
    <g transform="translate(0,30)" s:x="0" s:y="10" s:pid="in0" id="port_MEMORY_CIRCUIT[2].dff~clk">
      <text x="-3" y="-4" class="inputPortLabel cell_MEMORY_CIRCUIT[2].dff">clk</text>
    </g>
    <g transform="translate(0,50)" s:x="0" s:y="10" s:pid="in0" id="port_MEMORY_CIRCUIT[2].dff~enable">
      <text x="-3" y="-4" class="inputPortLabel cell_MEMORY_CIRCUIT[2].dff">enable</text>
    </g>
    <g transform="translate(30,10)" s:x="30" s:y="10" s:pid="out0" id="port_MEMORY_CIRCUIT[2].dff~SO">
      <text x="5" y="-4" style="fill:#000; stroke:none" class="cell_MEMORY_CIRCUIT[2].dff">SO</text>
    </g>
  </g>
  <g s:type="generic" transform="translate(714,149.5)" s:width="30" s:height="40" id="cell_MEMORY_CIRCUIT[3].dff">
    <text x="15" y="-4" class="nodelabel cell_MEMORY_CIRCUIT[3].dff" s:attribute="ref">EN_DFF</text>
    <rect width="30" height="60" s:generic="body" class="cell_MEMORY_CIRCUIT[3].dff" fill="#fafafa"/>
    <g transform="translate(0,10)" s:x="0" s:y="10" s:pid="in0" id="port_MEMORY_CIRCUIT[3].dff~SI">
      <text x="-3" y="-4" class="inputPortLabel cell_MEMORY_CIRCUIT[3].dff">SI</text>
    </g>
    <g transform="translate(0,30)" s:x="0" s:y="10" s:pid="in0" id="port_MEMORY_CIRCUIT[3].dff~clk">
      <text x="-3" y="-4" class="inputPortLabel cell_MEMORY_CIRCUIT[3].dff">clk</text>
    </g>
    <g transform="translate(0,50)" s:x="0" s:y="10" s:pid="in0" id="port_MEMORY_CIRCUIT[3].dff~enable">
      <text x="-3" y="-4" class="inputPortLabel cell_MEMORY_CIRCUIT[3].dff">enable</text>
    </g>
    <g transform="translate(30,10)" s:x="30" s:y="10" s:pid="out0" id="port_MEMORY_CIRCUIT[3].dff~SO">
      <text x="5" y="-4" style="fill:#000; stroke:none" class="cell_MEMORY_CIRCUIT[3].dff">SO</text>
    </g>
  </g>
  <g s:type="generic" transform="translate(912,225.5)" s:width="30" s:height="40" id="cell_MEMORY_CIRCUIT[4].dff">
    <text x="15" y="-4" class="nodelabel cell_MEMORY_CIRCUIT[4].dff" s:attribute="ref">EN_DFF</text>
    <rect width="30" height="60" s:generic="body" class="cell_MEMORY_CIRCUIT[4].dff" fill="#fafafa"/>
    <g transform="translate(0,10)" s:x="0" s:y="10" s:pid="in0" id="port_MEMORY_CIRCUIT[4].dff~SI">
      <text x="-3" y="-4" class="inputPortLabel cell_MEMORY_CIRCUIT[4].dff">SI</text>
    </g>
    <g transform="translate(0,30)" s:x="0" s:y="10" s:pid="in0" id="port_MEMORY_CIRCUIT[4].dff~clk">
      <text x="-3" y="-4" class="inputPortLabel cell_MEMORY_CIRCUIT[4].dff">clk</text>
    </g>
    <g transform="translate(0,50)" s:x="0" s:y="10" s:pid="in0" id="port_MEMORY_CIRCUIT[4].dff~enable">
      <text x="-3" y="-4" class="inputPortLabel cell_MEMORY_CIRCUIT[4].dff">enable</text>
    </g>
    <g transform="translate(30,10)" s:x="30" s:y="10" s:pid="out0" id="port_MEMORY_CIRCUIT[4].dff~SO">
      <text x="5" y="-4" style="fill:#000; stroke:none" class="cell_MEMORY_CIRCUIT[4].dff">SO</text>
    </g>
  </g>
  <g s:type="generic" transform="translate(1110,285.5)" s:width="30" s:height="40" id="cell_MEMORY_CIRCUIT[5].dff">
    <text x="15" y="-4" class="nodelabel cell_MEMORY_CIRCUIT[5].dff" s:attribute="ref">EN_DFF</text>
    <rect width="30" height="60" s:generic="body" class="cell_MEMORY_CIRCUIT[5].dff" fill="#fafafa"/>
    <g transform="translate(0,10)" s:x="0" s:y="10" s:pid="in0" id="port_MEMORY_CIRCUIT[5].dff~SI">
      <text x="-3" y="-4" class="inputPortLabel cell_MEMORY_CIRCUIT[5].dff">SI</text>
    </g>
    <g transform="translate(0,30)" s:x="0" s:y="10" s:pid="in0" id="port_MEMORY_CIRCUIT[5].dff~clk">
      <text x="-3" y="-4" class="inputPortLabel cell_MEMORY_CIRCUIT[5].dff">clk</text>
    </g>
    <g transform="translate(0,50)" s:x="0" s:y="10" s:pid="in0" id="port_MEMORY_CIRCUIT[5].dff~enable">
      <text x="-3" y="-4" class="inputPortLabel cell_MEMORY_CIRCUIT[5].dff">enable</text>
    </g>
    <g transform="translate(30,10)" s:x="30" s:y="10" s:pid="out0" id="port_MEMORY_CIRCUIT[5].dff~SO">
      <text x="5" y="-4" style="fill:#000; stroke:none" class="cell_MEMORY_CIRCUIT[5].dff">SO</text>
    </g>
  </g>
  <g s:type="generic" transform="translate(1308,350.5)" s:width="30" s:height="40" id="cell_MEMORY_CIRCUIT[6].dff">
    <text x="15" y="-4" class="nodelabel cell_MEMORY_CIRCUIT[6].dff" s:attribute="ref">EN_DFF</text>
    <rect width="30" height="60" s:generic="body" class="cell_MEMORY_CIRCUIT[6].dff" fill="#fafafa"/>
    <g transform="translate(0,10)" s:x="0" s:y="10" s:pid="in0" id="port_MEMORY_CIRCUIT[6].dff~SI">
      <text x="-3" y="-4" class="inputPortLabel cell_MEMORY_CIRCUIT[6].dff">SI</text>
    </g>
    <g transform="translate(0,30)" s:x="0" s:y="10" s:pid="in0" id="port_MEMORY_CIRCUIT[6].dff~clk">
      <text x="-3" y="-4" class="inputPortLabel cell_MEMORY_CIRCUIT[6].dff">clk</text>
    </g>
    <g transform="translate(0,50)" s:x="0" s:y="10" s:pid="in0" id="port_MEMORY_CIRCUIT[6].dff~enable">
      <text x="-3" y="-4" class="inputPortLabel cell_MEMORY_CIRCUIT[6].dff">enable</text>
    </g>
    <g transform="translate(30,10)" s:x="30" s:y="10" s:pid="out0" id="port_MEMORY_CIRCUIT[6].dff~SO">
      <text x="5" y="-4" style="fill:#000; stroke:none" class="cell_MEMORY_CIRCUIT[6].dff">SO</text>
    </g>
  </g>
  <g s:type="generic" transform="translate(1506,393)" s:width="30" s:height="40" id="cell_MEMORY_CIRCUIT[7].dff">
    <text x="15" y="-4" class="nodelabel cell_MEMORY_CIRCUIT[7].dff" s:attribute="ref">EN_DFF</text>
    <rect width="30" height="60" s:generic="body" class="cell_MEMORY_CIRCUIT[7].dff" fill="#fafafa"/>
    <g transform="translate(0,10)" s:x="0" s:y="10" s:pid="in0" id="port_MEMORY_CIRCUIT[7].dff~SI">
      <text x="-3" y="-4" class="inputPortLabel cell_MEMORY_CIRCUIT[7].dff">SI</text>
    </g>
    <g transform="translate(0,30)" s:x="0" s:y="10" s:pid="in0" id="port_MEMORY_CIRCUIT[7].dff~clk">
      <text x="-3" y="-4" class="inputPortLabel cell_MEMORY_CIRCUIT[7].dff">clk</text>
    </g>
    <g transform="translate(0,50)" s:x="0" s:y="10" s:pid="in0" id="port_MEMORY_CIRCUIT[7].dff~enable">
      <text x="-3" y="-4" class="inputPortLabel cell_MEMORY_CIRCUIT[7].dff">enable</text>
    </g>
    <g transform="translate(30,10)" s:x="30" s:y="10" s:pid="out0" id="port_MEMORY_CIRCUIT[7].dff~SO">
      <text x="5" y="-4" style="fill:#000; stroke:none" class="cell_MEMORY_CIRCUIT[7].dff">SO</text>
    </g>
  </g>
  <g s:type="inputExt" transform="translate(12,170)" s:width="30" s:height="20" id="cell_clk">
    <text x="15" y="-4" class="nodelabel cell_clk" s:attribute="ref">clk</text>
    <s:alias val="$_inputExt_"/>
    <path d="M0,0 L0,20 L15,20 L30,10 L15,0 Z" class="cell_clk" fill="#eceff1"/>
    <g s:x="30" s:y="10" s:pid="Y"/>
  </g>
  <g s:type="inputExt" transform="translate(12,235)" s:width="30" s:height="20" id="cell_enable">
    <text x="15" y="-4" class="nodelabel cell_enable" s:attribute="ref">enable</text>
    <s:alias val="$_inputExt_"/>
    <path d="M0,0 L0,20 L15,20 L30,10 L15,0 Z" class="cell_enable" fill="#eceff1"/>
    <g s:x="30" s:y="10" s:pid="Y"/>
  </g>
  <g s:type="inputExt" transform="translate(12,22.5)" s:width="30" s:height="20" id="cell_S">
    <text x="15" y="-4" class="nodelabel cell_S" s:attribute="ref">S</text>
    <s:alias val="$_inputExt_"/>
    <path d="M0,0 L0,20 L15,20 L30,10 L15,0 Z" class="cell_S" fill="#eceff1"/>
    <g s:x="30" s:y="10" s:pid="Y"/>
  </g>
  <g s:type="inputExt" transform="translate(1737,326)" s:width="30" s:height="20" id="cell_A">
    <text x="15" y="-4" class="nodelabel cell_A" s:attribute="ref">A</text>
    <s:alias val="$_inputExt_"/>
    <path d="M0,0 L0,20 L15,20 L30,10 L15,0 Z" class="cell_A" fill="#eceff1"/>
    <g s:x="30" s:y="10" s:pid="Y"/>
  </g>
  <g s:type="inputExt" transform="translate(1672,296)" s:width="30" s:height="20" id="cell_B">
    <text x="15" y="-4" class="nodelabel cell_B" s:attribute="ref">B</text>
    <s:alias val="$_inputExt_"/>
    <path d="M0,0 L0,20 L15,20 L30,10 L15,0 Z" class="cell_B" fill="#eceff1"/>
    <g s:x="30" s:y="10" s:pid="Y"/>
  </g>
  <g s:type="inputExt" transform="translate(1506,266)" s:width="30" s:height="20" id="cell_C">
    <text x="15" y="-4" class="nodelabel cell_C" s:attribute="ref">C</text>
    <s:alias val="$_inputExt_"/>
    <path d="M0,0 L0,20 L15,20 L30,10 L15,0 Z" class="cell_C" fill="#eceff1"/>
    <g s:x="30" s:y="10" s:pid="Y"/>
  </g>
  <g s:type="outputExt" transform="translate(1857,52.5)" s:width="30" s:height="20" id="cell_Z">
    <text x="15" y="-4" class="nodelabel cell_Z" s:attribute="ref">Z</text>
    <s:alias val="$_outputExt_"/>
    <path d="M30,0 L30,20 L15,20 L0,10 L15,0 Z" class="cell_Z" fill="#eceff1"/>
    <g s:x="0" s:y="10" s:pid="A"/>
  </g>
  <line x1="151" x2="1675.3333333333333" y1="32.5" y2="32.5" class="net_9"/>
  <line x1="151" x2="256" y1="32.5" y2="32.5" class="net_9"/>
  <line x1="256" x2="256" y1="32.5" y2="75" class="net_9"/>
  <circle cx="256" cy="32.5" r="2" style="fill:#000" class="net_9"/>
  <line x1="256" x2="318" y1="75" y2="75" class="net_9"/>
  <line x1="349" x2="1642" y1="75" y2="75" class="net_10"/>
  <line x1="1642" x2="1642" y1="75" y2="52.5" class="net_10"/>
  <line x1="1642" x2="1675.3333333333333" y1="52.5" y2="52.5" class="net_10"/>
  <line x1="349" x2="454" y1="75" y2="75" class="net_10"/>
  <line x1="454" x2="454" y1="75" y2="117.5" class="net_10"/>
  <circle cx="454" cy="75" r="2" style="fill:#000" class="net_10"/>
  <line x1="454" x2="516" y1="117.5" y2="117.5" class="net_10"/>
  <line x1="1536" x2="1652" y1="276" y2="276" class="net_7"/>
  <line x1="1652" x2="1652" y1="276" y2="97.5" class="net_7"/>
  <line x1="1652" x2="1685.3333333333333" y1="97.5" y2="97.5" class="net_7"/>
  <circle cx="1652" cy="276" r="2" style="fill:#000" class="net_7"/>
  <line x1="1685.3333333333333" x2="1685.3333333333333" y1="97.5" y2="57.5" class="net_7"/>
  <line x1="1536" x2="1652" y1="276" y2="276" class="net_7"/>
  <line x1="1652" x2="1652" y1="276" y2="216" class="net_7"/>
  <line x1="1652" x2="1685.3333333333333" y1="216" y2="216" class="net_7"/>
  <circle cx="1652" cy="216" r="2" style="fill:#000" class="net_7"/>
  <line x1="1685.3333333333333" x2="1685.3333333333333" y1="216" y2="142.5" class="net_7"/>
  <line x1="1536" x2="1685.3333333333333" y1="276" y2="276" class="net_7"/>
  <line x1="1685.3333333333333" x2="1685.3333333333333" y1="276" y2="261" class="net_7"/>
  <line x1="1536" x2="1652" y1="276" y2="276" class="net_7"/>
  <line x1="1652" x2="1652" y1="276" y2="401" class="net_7"/>
  <line x1="1652" x2="1685.3333333333333" y1="401" y2="401" class="net_7"/>
  <line x1="1685.3333333333333" x2="1685.3333333333333" y1="401" y2="386" class="net_7"/>
  <line x1="547" x2="1675.3333333333333" y1="117.5" y2="117.5" class="net_12"/>
  <line x1="547" x2="652" y1="117.5" y2="117.5" class="net_12"/>
  <line x1="652" x2="652" y1="117.5" y2="160" class="net_12"/>
  <circle cx="652" cy="117.5" r="2" style="fill:#000" class="net_12"/>
  <line x1="652" x2="714" y1="160" y2="160" class="net_12"/>
  <line x1="745" x2="1662" y1="160" y2="160" class="net_13"/>
  <line x1="1662" x2="1662" y1="160" y2="137.5" class="net_13"/>
  <line x1="1662" x2="1675.3333333333333" y1="137.5" y2="137.5" class="net_13"/>
  <line x1="745" x2="850" y1="160" y2="160" class="net_13"/>
  <line x1="850" x2="850" y1="160" y2="236" class="net_13"/>
  <circle cx="850" cy="160" r="2" style="fill:#000" class="net_13"/>
  <line x1="850" x2="912" y1="236" y2="236" class="net_13"/>
  <line x1="943" x2="1675.3333333333333" y1="236" y2="236" class="net_15"/>
  <line x1="943" x2="1048" y1="236" y2="236" class="net_15"/>
  <line x1="1048" x2="1048" y1="236" y2="296" class="net_15"/>
  <circle cx="1048" cy="236" r="2" style="fill:#000" class="net_15"/>
  <line x1="1048" x2="1110" y1="296" y2="296" class="net_15"/>
  <line x1="1141" x2="1642" y1="296" y2="296" class="net_16"/>
  <line x1="1642" x2="1642" y1="296" y2="256" class="net_16"/>
  <line x1="1642" x2="1675.3333333333333" y1="256" y2="256" class="net_16"/>
  <line x1="1141" x2="1246" y1="296" y2="296" class="net_16"/>
  <line x1="1246" x2="1246" y1="296" y2="361" class="net_16"/>
  <circle cx="1246" cy="296" r="2" style="fill:#000" class="net_16"/>
  <line x1="1246" x2="1308" y1="361" y2="361" class="net_16"/>
  <line x1="1339" x2="1675.3333333333333" y1="361" y2="361" class="net_18"/>
  <line x1="1339" x2="1444" y1="361" y2="361" class="net_18"/>
  <line x1="1444" x2="1444" y1="361" y2="403.5" class="net_18"/>
  <circle cx="1444" cy="361" r="2" style="fill:#000" class="net_18"/>
  <line x1="1444" x2="1506" y1="403.5" y2="403.5" class="net_18"/>
  <line x1="1537" x2="1642" y1="403.5" y2="403.5" class="net_19"/>
  <line x1="1642" x2="1642" y1="403.5" y2="381" class="net_19"/>
  <line x1="1642" x2="1675.3333333333333" y1="381" y2="381" class="net_19"/>
  <line x1="1760.3333333333333" x2="1802" y1="52.5" y2="52.5" class="net_21"/>
  <line x1="1760.3333333333333" x2="1777" y1="256" y2="256" class="net_22"/>
  <line x1="1777" x2="1777" y1="256" y2="72.5" class="net_22"/>
  <line x1="1777" x2="1802" y1="72.5" y2="72.5" class="net_22"/>
  <line x1="1767" x2="1812" y1="336" y2="336" class="net_5"/>
  <line x1="1812" x2="1812" y1="336" y2="77.5" class="net_5"/>
  <line x1="1695.3333333333333" x2="1740.3333333333333" y1="42.5" y2="42.5" class="net_11"/>
  <line x1="1695.3333333333333" x2="1712" y1="127.5" y2="127.5" class="net_14"/>
  <line x1="1712" x2="1712" y1="127.5" y2="62.5" class="net_14"/>
  <line x1="1712" x2="1740.3333333333333" y1="62.5" y2="62.5" class="net_14"/>
  <line x1="1702" x2="1712" y1="306" y2="306" class="net_6"/>
  <line x1="1712" x2="1712" y1="306" y2="226" class="net_6"/>
  <line x1="1712" x2="1750.3333333333333" y1="226" y2="226" class="net_6"/>
  <circle cx="1712" cy="306" r="2" style="fill:#000" class="net_6"/>
  <line x1="1750.3333333333333" x2="1750.3333333333333" y1="226" y2="67.5" class="net_6"/>
  <line x1="1702" x2="1750.3333333333333" y1="306" y2="306" class="net_6"/>
  <line x1="1750.3333333333333" x2="1750.3333333333333" y1="306" y2="271" class="net_6"/>
  <line x1="1695.3333333333333" x2="1740.3333333333333" y1="246" y2="246" class="net_17"/>
  <line x1="1695.3333333333333" x2="1722" y1="371" y2="371" class="net_20"/>
  <line x1="1722" x2="1722" y1="371" y2="266" class="net_20"/>
  <line x1="1722" x2="1740.3333333333333" y1="266" y2="266" class="net_20"/>
  <line x1="42" x2="120" y1="32.5" y2="32.5" class="net_4"/>
  <line x1="42" x2="68" y1="180" y2="180" class="net_2"/>
  <line x1="68" x2="68" y1="180" y2="52.5" class="net_2"/>
  <circle cx="68" cy="180" r="2" style="fill:#000" class="net_2"/>
  <line x1="68" x2="120" y1="52.5" y2="52.5" class="net_2"/>
  <line x1="42" x2="68" y1="180" y2="180" class="net_2"/>
  <line x1="68" x2="68" y1="180" y2="95" class="net_2"/>
  <circle cx="68" cy="95" r="2" style="fill:#000" class="net_2"/>
  <line x1="68" x2="318" y1="95" y2="95" class="net_2"/>
  <line x1="42" x2="68" y1="180" y2="180" class="net_2"/>
  <line x1="68" x2="68" y1="180" y2="137.5" class="net_2"/>
  <circle cx="68" cy="137.5" r="2" style="fill:#000" class="net_2"/>
  <line x1="68" x2="516" y1="137.5" y2="137.5" class="net_2"/>
  <line x1="42" x2="714" y1="180" y2="180" class="net_2"/>
  <line x1="42" x2="68" y1="180" y2="180" class="net_2"/>
  <line x1="68" x2="68" y1="180" y2="256" class="net_2"/>
  <circle cx="68" cy="256" r="2" style="fill:#000" class="net_2"/>
  <line x1="68" x2="912" y1="256" y2="256" class="net_2"/>
  <line x1="42" x2="68" y1="180" y2="180" class="net_2"/>
  <line x1="68" x2="68" y1="180" y2="316" class="net_2"/>
  <circle cx="68" cy="316" r="2" style="fill:#000" class="net_2"/>
  <line x1="68" x2="1110" y1="316" y2="316" class="net_2"/>
  <line x1="42" x2="68" y1="180" y2="180" class="net_2"/>
  <line x1="68" x2="68" y1="180" y2="381" class="net_2"/>
  <circle cx="68" cy="381" r="2" style="fill:#000" class="net_2"/>
  <line x1="68" x2="1308" y1="381" y2="381" class="net_2"/>
  <line x1="42" x2="68" y1="180" y2="180" class="net_2"/>
  <line x1="68" x2="68" y1="180" y2="423.5" class="net_2"/>
  <line x1="68" x2="1506" y1="423.5" y2="423.5" class="net_2"/>
  <line x1="42" x2="58" y1="245" y2="245" class="net_3"/>
  <line x1="58" x2="58" y1="245" y2="72.5" class="net_3"/>
  <circle cx="58" cy="245" r="2" style="fill:#000" class="net_3"/>
  <line x1="58" x2="120" y1="72.5" y2="72.5" class="net_3"/>
  <line x1="42" x2="58" y1="245" y2="245" class="net_3"/>
  <line x1="58" x2="58" y1="245" y2="115" class="net_3"/>
  <circle cx="58" cy="115" r="2" style="fill:#000" class="net_3"/>
  <line x1="58" x2="318" y1="115" y2="115" class="net_3"/>
  <line x1="42" x2="58" y1="245" y2="245" class="net_3"/>
  <line x1="58" x2="58" y1="245" y2="157.5" class="net_3"/>
  <circle cx="58" cy="157.5" r="2" style="fill:#000" class="net_3"/>
  <line x1="58" x2="516" y1="157.5" y2="157.5" class="net_3"/>
  <line x1="42" x2="652" y1="245" y2="245" class="net_3"/>
  <line x1="652" x2="652" y1="245" y2="200" class="net_3"/>
  <line x1="652" x2="714" y1="200" y2="200" class="net_3"/>
  <line x1="42" x2="58" y1="245" y2="245" class="net_3"/>
  <line x1="58" x2="58" y1="245" y2="276" class="net_3"/>
  <circle cx="58" cy="276" r="2" style="fill:#000" class="net_3"/>
  <line x1="58" x2="912" y1="276" y2="276" class="net_3"/>
  <line x1="42" x2="58" y1="245" y2="245" class="net_3"/>
  <line x1="58" x2="58" y1="245" y2="336" class="net_3"/>
  <circle cx="58" cy="336" r="2" style="fill:#000" class="net_3"/>
  <line x1="58" x2="1110" y1="336" y2="336" class="net_3"/>
  <line x1="42" x2="58" y1="245" y2="245" class="net_3"/>
  <line x1="58" x2="58" y1="245" y2="401" class="net_3"/>
  <circle cx="58" cy="401" r="2" style="fill:#000" class="net_3"/>
  <line x1="58" x2="1308" y1="401" y2="401" class="net_3"/>
  <line x1="42" x2="58" y1="245" y2="245" class="net_3"/>
  <line x1="58" x2="58" y1="245" y2="443.5" class="net_3"/>
  <line x1="58" x2="1506" y1="443.5" y2="443.5" class="net_3"/>
  <line x1="1822" x2="1857" y1="62.5" y2="62.5" class="net_8"/>
</svg>
