<svg xmlns="http://www.w3.org/2000/svg" xmlns:xlink="http://www.w3.org/1999/xlink" xmlns:s="https://github.com/nturley/netlistsvg" width="1954" height="589.5">
  <style>svg {
    stroke:#000;
    fill:none;
    background-color: white;
  }
  text {
    fill:#000;
    stroke:none;
    font-size:10px;
    font-weight: bold;
    font-family: "Courier New", monospace;
  }
  line {
      stroke-linecap: round;
  }
  .nodelabel {
    text-anchor: middle;
  }
  .inputPortLabel {
    text-anchor: end;
  }
  .splitjoinBody {
    fill:#000;
  }
  /* --- Brandon 的客製化顏色區隔 --- */
  /* 多路選擇器 (Mux) - 淺藍色 */
  [s\:type^="mux"] path { fill: #e1f5fe; }
  /* 邏輯閘 (And, Or, Xor, Not) - 淺綠色 */
  [s\:type="and"], [s\:type="nand"], [s\:type="andnot"],
  [s\:type="or"], [s\:type="reduce_nor"], [s\:type="ornot"],
  [s\:type="reduce_xor"], [s\:type="reduce_nxor"],
  [s\:type="not"], [s\:type="buf"] path { fill: #e8f5e9; }
  /* 觸發器 (DFF) - 淺橘色 */
  [s\:type^="dff"] rect, [s\:type^="dlatch"] rect { fill: #fff3e0; }
  /* 算術運算 (Add, Sub, Mul, Shl, Shr) - 淺紫色 */
  [s\:type="add"] circle, [s\:type="sub"] circle, [s\:type="mul"] circle,
  [s\:type="div"] circle, [s\:type="shl"] circle, [s\:type="shr"] circle,
  [s\:type="sshl"] circle, [s\:type="sshr"] circle { fill: #f3e5f5; }
  /* 輸入輸出端點 - 淺灰色 */
  [s\:type="inputExt"] path, [s\:type="outputExt"] path { fill: #eceff1; }</style>
  <g s:type="generic" transform="translate(1727,462)" s:width="30" s:height="40" id="cell_$shiftx$../rtl/top.v:33$1">
    <text x="15" y="-4" class="nodelabel cell_$shiftx$../rtl/top.v:33$1" s:attribute="ref">$shiftx</text>
    <rect width="30" height="40" s:generic="body" class="cell_$shiftx$../rtl/top.v:33$1" fill="#fafafa"/>
    <g transform="translate(0,10)" s:x="0" s:y="10" s:pid="in0" id="port_$shiftx$../rtl/top.v:33$1~A">
      <text x="-3" y="-4" class="inputPortLabel cell_$shiftx$../rtl/top.v:33$1">A</text>
    </g>
    <g transform="translate(0,30)" s:x="0" s:y="10" s:pid="in0" id="port_$shiftx$../rtl/top.v:33$1~B">
      <text x="-3" y="-4" class="inputPortLabel cell_$shiftx$../rtl/top.v:33$1">B</text>
    </g>
    <g transform="translate(30,10)" s:x="30" s:y="10" s:pid="out0" id="port_$shiftx$../rtl/top.v:33$1~Y">
      <text x="5" y="-4" style="fill:#000; stroke:none" class="cell_$shiftx$../rtl/top.v:33$1">Y</text>
    </g>
  </g>
  <g s:type="generic" transform="translate(120,22)" s:width="30" s:height="40" id="cell_MEMORY_CIRCUIT[0].dff">
    <text x="15" y="-4" class="nodelabel cell_MEMORY_CIRCUIT[0].dff" s:attribute="ref">EN_DFF</text>
    <rect width="30" height="60" s:generic="body" class="cell_MEMORY_CIRCUIT[0].dff" fill="#fafafa"/>
    <g transform="translate(0,10)" s:x="0" s:y="10" s:pid="in0" id="port_MEMORY_CIRCUIT[0].dff~SI">
      <text x="-3" y="-4" class="inputPortLabel cell_MEMORY_CIRCUIT[0].dff">SI</text>
    </g>
    <g transform="translate(0,30)" s:x="0" s:y="10" s:pid="in0" id="port_MEMORY_CIRCUIT[0].dff~clk">
      <text x="-3" y="-4" class="inputPortLabel cell_MEMORY_CIRCUIT[0].dff">clk</text>
    </g>
    <g transform="translate(0,50)" s:x="0" s:y="10" s:pid="in0" id="port_MEMORY_CIRCUIT[0].dff~enable">
      <text x="-3" y="-4" class="inputPortLabel cell_MEMORY_CIRCUIT[0].dff">enable</text>
    </g>
    <g transform="translate(30,10)" s:x="30" s:y="10" s:pid="out0" id="port_MEMORY_CIRCUIT[0].dff~SO">
      <text x="5" y="-4" style="fill:#000; stroke:none" class="cell_MEMORY_CIRCUIT[0].dff">SO</text>
    </g>
  </g>
  <g s:type="generic" transform="translate(318,64.5)" s:width="30" s:height="40" id="cell_MEMORY_CIRCUIT[1].dff">
    <text x="15" y="-4" class="nodelabel cell_MEMORY_CIRCUIT[1].dff" s:attribute="ref">EN_DFF</text>
    <rect width="30" height="60" s:generic="body" class="cell_MEMORY_CIRCUIT[1].dff" fill="#fafafa"/>
    <g transform="translate(0,10)" s:x="0" s:y="10" s:pid="in0" id="port_MEMORY_CIRCUIT[1].dff~SI">
      <text x="-3" y="-4" class="inputPortLabel cell_MEMORY_CIRCUIT[1].dff">SI</text>
    </g>
    <g transform="translate(0,30)" s:x="0" s:y="10" s:pid="in0" id="port_MEMORY_CIRCUIT[1].dff~clk">
      <text x="-3" y="-4" class="inputPortLabel cell_MEMORY_CIRCUIT[1].dff">clk</text>
    </g>
    <g transform="translate(0,50)" s:x="0" s:y="10" s:pid="in0" id="port_MEMORY_CIRCUIT[1].dff~enable">
      <text x="-3" y="-4" class="inputPortLabel cell_MEMORY_CIRCUIT[1].dff">enable</text>
    </g>
    <g transform="translate(30,10)" s:x="30" s:y="10" s:pid="out0" id="port_MEMORY_CIRCUIT[1].dff~SO">
      <text x="5" y="-4" style="fill:#000; stroke:none" class="cell_MEMORY_CIRCUIT[1].dff">SO</text>
    </g>
  </g>
  <g s:type="generic" transform="translate(516,107)" s:width="30" s:height="40" id="cell_MEMORY_CIRCUIT[2].dff">
    <text x="15" y="-4" class="nodelabel cell_MEMORY_CIRCUIT[2].dff" s:attribute="ref">EN_DFF</text>
    <rect width="30" height="60" s:generic="body" class="cell_MEMORY_CIRCUIT[2].dff" fill="#fafafa"/>
    <g transform="translate(0,10)" s:x="0" s:y="10" s:pid="in0" id="port_MEMORY_CIRCUIT[2].dff~SI">
      <text x="-3" y="-4" class="inputPortLabel cell_MEMORY_CIRCUIT[2].dff">SI</text>
    </g>
    <g transform="translate(0,30)" s:x="0" s:y="10" s:pid="in0" id="port_MEMORY_CIRCUIT[2].dff~clk">
      <text x="-3" y="-4" class="inputPortLabel cell_MEMORY_CIRCUIT[2].dff">clk</text>
    </g>
    <g transform="translate(0,50)" s:x="0" s:y="10" s:pid="in0" id="port_MEMORY_CIRCUIT[2].dff~enable">
      <text x="-3" y="-4" class="inputPortLabel cell_MEMORY_CIRCUIT[2].dff">enable</text>
    </g>
    <g transform="translate(30,10)" s:x="30" s:y="10" s:pid="out0" id="port_MEMORY_CIRCUIT[2].dff~SO">
      <text x="5" y="-4" style="fill:#000; stroke:none" class="cell_MEMORY_CIRCUIT[2].dff">SO</text>
    </g>
  </g>
  <g s:type="generic" transform="translate(714,149.5)" s:width="30" s:height="40" id="cell_MEMORY_CIRCUIT[3].dff">
    <text x="15" y="-4" class="nodelabel cell_MEMORY_CIRCUIT[3].dff" s:attribute="ref">EN_DFF</text>
    <rect width="30" height="60" s:generic="body" class="cell_MEMORY_CIRCUIT[3].dff" fill="#fafafa"/>
    <g transform="translate(0,10)" s:x="0" s:y="10" s:pid="in0" id="port_MEMORY_CIRCUIT[3].dff~SI">
      <text x="-3" y="-4" class="inputPortLabel cell_MEMORY_CIRCUIT[3].dff">SI</text>
    </g>
    <g transform="translate(0,30)" s:x="0" s:y="10" s:pid="in0" id="port_MEMORY_CIRCUIT[3].dff~clk">
      <text x="-3" y="-4" class="inputPortLabel cell_MEMORY_CIRCUIT[3].dff">clk</text>
    </g>
    <g transform="translate(0,50)" s:x="0" s:y="10" s:pid="in0" id="port_MEMORY_CIRCUIT[3].dff~enable">
      <text x="-3" y="-4" class="inputPortLabel cell_MEMORY_CIRCUIT[3].dff">enable</text>
    </g>
    <g transform="translate(30,10)" s:x="30" s:y="10" s:pid="out0" id="port_MEMORY_CIRCUIT[3].dff~SO">
      <text x="5" y="-4" style="fill:#000; stroke:none" class="cell_MEMORY_CIRCUIT[3].dff">SO</text>
    </g>
  </g>
  <g s:type="generic" transform="translate(912,192)" s:width="30" s:height="40" id="cell_MEMORY_CIRCUIT[4].dff">
    <text x="15" y="-4" class="nodelabel cell_MEMORY_CIRCUIT[4].dff" s:attribute="ref">EN_DFF</text>
    <rect width="30" height="60" s:generic="body" class="cell_MEMORY_CIRCUIT[4].dff" fill="#fafafa"/>
    <g transform="translate(0,10)" s:x="0" s:y="10" s:pid="in0" id="port_MEMORY_CIRCUIT[4].dff~SI">
      <text x="-3" y="-4" class="inputPortLabel cell_MEMORY_CIRCUIT[4].dff">SI</text>
    </g>
    <g transform="translate(0,30)" s:x="0" s:y="10" s:pid="in0" id="port_MEMORY_CIRCUIT[4].dff~clk">
      <text x="-3" y="-4" class="inputPortLabel cell_MEMORY_CIRCUIT[4].dff">clk</text>
    </g>
    <g transform="translate(0,50)" s:x="0" s:y="10" s:pid="in0" id="port_MEMORY_CIRCUIT[4].dff~enable">
      <text x="-3" y="-4" class="inputPortLabel cell_MEMORY_CIRCUIT[4].dff">enable</text>
    </g>
    <g transform="translate(30,10)" s:x="30" s:y="10" s:pid="out0" id="port_MEMORY_CIRCUIT[4].dff~SO">
      <text x="5" y="-4" style="fill:#000; stroke:none" class="cell_MEMORY_CIRCUIT[4].dff">SO</text>
    </g>
  </g>
  <g s:type="generic" transform="translate(1110,234.5)" s:width="30" s:height="40" id="cell_MEMORY_CIRCUIT[5].dff">
    <text x="15" y="-4" class="nodelabel cell_MEMORY_CIRCUIT[5].dff" s:attribute="ref">EN_DFF</text>
    <rect width="30" height="60" s:generic="body" class="cell_MEMORY_CIRCUIT[5].dff" fill="#fafafa"/>
    <g transform="translate(0,10)" s:x="0" s:y="10" s:pid="in0" id="port_MEMORY_CIRCUIT[5].dff~SI">
      <text x="-3" y="-4" class="inputPortLabel cell_MEMORY_CIRCUIT[5].dff">SI</text>
    </g>
    <g transform="translate(0,30)" s:x="0" s:y="10" s:pid="in0" id="port_MEMORY_CIRCUIT[5].dff~clk">
      <text x="-3" y="-4" class="inputPortLabel cell_MEMORY_CIRCUIT[5].dff">clk</text>
    </g>
    <g transform="translate(0,50)" s:x="0" s:y="10" s:pid="in0" id="port_MEMORY_CIRCUIT[5].dff~enable">
      <text x="-3" y="-4" class="inputPortLabel cell_MEMORY_CIRCUIT[5].dff">enable</text>
    </g>
    <g transform="translate(30,10)" s:x="30" s:y="10" s:pid="out0" id="port_MEMORY_CIRCUIT[5].dff~SO">
      <text x="5" y="-4" style="fill:#000; stroke:none" class="cell_MEMORY_CIRCUIT[5].dff">SO</text>
    </g>
  </g>
  <g s:type="generic" transform="translate(1308,277)" s:width="30" s:height="40" id="cell_MEMORY_CIRCUIT[6].dff">
    <text x="15" y="-4" class="nodelabel cell_MEMORY_CIRCUIT[6].dff" s:attribute="ref">EN_DFF</text>
    <rect width="30" height="60" s:generic="body" class="cell_MEMORY_CIRCUIT[6].dff" fill="#fafafa"/>
    <g transform="translate(0,10)" s:x="0" s:y="10" s:pid="in0" id="port_MEMORY_CIRCUIT[6].dff~SI">
      <text x="-3" y="-4" class="inputPortLabel cell_MEMORY_CIRCUIT[6].dff">SI</text>
    </g>
    <g transform="translate(0,30)" s:x="0" s:y="10" s:pid="in0" id="port_MEMORY_CIRCUIT[6].dff~clk">
      <text x="-3" y="-4" class="inputPortLabel cell_MEMORY_CIRCUIT[6].dff">clk</text>
    </g>
    <g transform="translate(0,50)" s:x="0" s:y="10" s:pid="in0" id="port_MEMORY_CIRCUIT[6].dff~enable">
      <text x="-3" y="-4" class="inputPortLabel cell_MEMORY_CIRCUIT[6].dff">enable</text>
    </g>
    <g transform="translate(30,10)" s:x="30" s:y="10" s:pid="out0" id="port_MEMORY_CIRCUIT[6].dff~SO">
      <text x="5" y="-4" style="fill:#000; stroke:none" class="cell_MEMORY_CIRCUIT[6].dff">SO</text>
    </g>
  </g>
  <g s:type="generic" transform="translate(1506,319.5)" s:width="30" s:height="40" id="cell_MEMORY_CIRCUIT[7].dff">
    <text x="15" y="-4" class="nodelabel cell_MEMORY_CIRCUIT[7].dff" s:attribute="ref">EN_DFF</text>
    <rect width="30" height="60" s:generic="body" class="cell_MEMORY_CIRCUIT[7].dff" fill="#fafafa"/>
    <g transform="translate(0,10)" s:x="0" s:y="10" s:pid="in0" id="port_MEMORY_CIRCUIT[7].dff~SI">
      <text x="-3" y="-4" class="inputPortLabel cell_MEMORY_CIRCUIT[7].dff">SI</text>
    </g>
    <g transform="translate(0,30)" s:x="0" s:y="10" s:pid="in0" id="port_MEMORY_CIRCUIT[7].dff~clk">
      <text x="-3" y="-4" class="inputPortLabel cell_MEMORY_CIRCUIT[7].dff">clk</text>
    </g>
    <g transform="translate(0,50)" s:x="0" s:y="10" s:pid="in0" id="port_MEMORY_CIRCUIT[7].dff~enable">
      <text x="-3" y="-4" class="inputPortLabel cell_MEMORY_CIRCUIT[7].dff">enable</text>
    </g>
    <g transform="translate(30,10)" s:x="30" s:y="10" s:pid="out0" id="port_MEMORY_CIRCUIT[7].dff~SO">
      <text x="5" y="-4" style="fill:#000; stroke:none" class="cell_MEMORY_CIRCUIT[7].dff">SO</text>
    </g>
  </g>
  <g s:type="inputExt" transform="translate(12,340)" s:width="30" s:height="20" id="cell_clk">
    <text x="15" y="-4" class="nodelabel cell_clk" s:attribute="ref">clk</text>
    <s:alias val="$_inputExt_"/>
    <path d="M0,0 L0,20 L15,20 L30,10 L15,0 Z" class="cell_clk" fill="#eceff1"/>
    <g s:x="30" s:y="10" s:pid="Y"/>
  </g>
  <g s:type="inputExt" transform="translate(12,405)" s:width="30" s:height="20" id="cell_enable">
    <text x="15" y="-4" class="nodelabel cell_enable" s:attribute="ref">enable</text>
    <s:alias val="$_inputExt_"/>
    <path d="M0,0 L0,20 L15,20 L30,10 L15,0 Z" class="cell_enable" fill="#eceff1"/>
    <g s:x="30" s:y="10" s:pid="Y"/>
  </g>
  <g s:type="inputExt" transform="translate(12,22.5)" s:width="30" s:height="20" id="cell_S">
    <text x="15" y="-4" class="nodelabel cell_S" s:attribute="ref">S</text>
    <s:alias val="$_inputExt_"/>
    <path d="M0,0 L0,20 L15,20 L30,10 L15,0 Z" class="cell_S" fill="#eceff1"/>
    <g s:x="30" s:y="10" s:pid="Y"/>
  </g>
  <g s:type="inputExt" transform="translate(1506,557.5)" s:width="30" s:height="20" id="cell_A">
    <text x="15" y="-4" class="nodelabel cell_A" s:attribute="ref">A</text>
    <s:alias val="$_inputExt_"/>
    <path d="M0,0 L0,20 L15,20 L30,10 L15,0 Z" class="cell_A" fill="#eceff1"/>
    <g s:x="30" s:y="10" s:pid="Y"/>
  </g>
  <g s:type="inputExt" transform="translate(1506,492.5)" s:width="30" s:height="20" id="cell_B">
    <text x="15" y="-4" class="nodelabel cell_B" s:attribute="ref">B</text>
    <s:alias val="$_inputExt_"/>
    <path d="M0,0 L0,20 L15,20 L30,10 L15,0 Z" class="cell_B" fill="#eceff1"/>
    <g s:x="30" s:y="10" s:pid="Y"/>
  </g>
  <g s:type="inputExt" transform="translate(1506,427.5)" s:width="30" s:height="20" id="cell_C">
    <text x="15" y="-4" class="nodelabel cell_C" s:attribute="ref">C</text>
    <s:alias val="$_inputExt_"/>
    <path d="M0,0 L0,20 L15,20 L30,10 L15,0 Z" class="cell_C" fill="#eceff1"/>
    <g s:x="30" s:y="10" s:pid="Y"/>
  </g>
  <g s:type="outputExt" transform="translate(1912,462.5)" s:width="30" s:height="20" id="cell_Z">
    <text x="15" y="-4" class="nodelabel cell_Z" s:attribute="ref">Z</text>
    <s:alias val="$_outputExt_"/>
    <path d="M30,0 L30,20 L15,20 L0,10 L15,0 Z" class="cell_Z" fill="#eceff1"/>
    <g s:x="0" s:y="10" s:pid="A"/>
  </g>
  <g s:type="join" transform="translate(1677,112)" s:width="4" s:height="40" id="cell_$join$,9,10,11,12,13,14,15,16,">
    <rect width="5" height="160" class="splitjoinBody" s:generic="body"/>
    <s:alias val="$_join_"/>
    <g s:x="5" s:y="20" s:pid="out"/>
    <g transform="translate(0,10)" s:x="0" s:y="10" s:pid="in0">
      <text x="-3" y="-4" class="inputPortLabel">0</text>
    </g>
    <g transform="translate(0,30)" s:x="0" s:y="10" s:pid="in0">
      <text x="-3" y="-4" class="inputPortLabel">1</text>
    </g>
    <g transform="translate(0,50)" s:x="0" s:y="10" s:pid="in0">
      <text x="-3" y="-4" class="inputPortLabel">2</text>
    </g>
    <g transform="translate(0,70)" s:x="0" s:y="10" s:pid="in0">
      <text x="-3" y="-4" class="inputPortLabel">3</text>
    </g>
    <g transform="translate(0,90)" s:x="0" s:y="10" s:pid="in0">
      <text x="-3" y="-4" class="inputPortLabel">4</text>
    </g>
    <g transform="translate(0,110)" s:x="0" s:y="10" s:pid="in0">
      <text x="-3" y="-4" class="inputPortLabel">5</text>
    </g>
    <g transform="translate(0,130)" s:x="0" s:y="10" s:pid="in0">
      <text x="-3" y="-4" class="inputPortLabel">6</text>
    </g>
    <g transform="translate(0,150)" s:x="0" s:y="10" s:pid="in0">
      <text x="-3" y="-4" class="inputPortLabel">7</text>
    </g>
  </g>
  <g s:type="join" transform="translate(1679,472)" s:width="4" s:height="40" id="cell_$join$,7,6,5,">
    <rect width="5" height="60" class="splitjoinBody" s:generic="body"/>
    <s:alias val="$_join_"/>
    <g s:x="5" s:y="20" s:pid="out"/>
    <g transform="translate(0,10)" s:x="0" s:y="10" s:pid="in0">
      <text x="-3" y="-4" class="inputPortLabel">0</text>
    </g>
    <g transform="translate(0,30)" s:x="0" s:y="10" s:pid="in0">
      <text x="-3" y="-4" class="inputPortLabel">1</text>
    </g>
    <g transform="translate(0,50)" s:x="0" s:y="10" s:pid="in0">
      <text x="-3" y="-4" class="inputPortLabel">2</text>
    </g>
  </g>
  <line x1="1683" x2="1695" y1="132.5" y2="132.5" class="net_9,10,11,12,13,14,15,16"/>
  <line x1="1695" x2="1695" y1="132.5" y2="472.5" class="net_9,10,11,12,13,14,15,16"/>
  <line x1="1695" x2="1727" y1="472.5" y2="472.5" class="net_9,10,11,12,13,14,15,16"/>
  <line x1="1685" x2="1727" y1="492.5" y2="492.5" class="net_7,6,5"/>
  <line x1="42" x2="120" y1="32.5" y2="32.5" class="net_4"/>
  <line x1="42" x2="58" y1="350" y2="350" class="net_2"/>
  <line x1="58" x2="58" y1="350" y2="52.5" class="net_2"/>
  <circle cx="58" cy="350" r="2" style="fill:#000" class="net_2"/>
  <line x1="58" x2="120" y1="52.5" y2="52.5" class="net_2"/>
  <line x1="42" x2="58" y1="350" y2="350" class="net_2"/>
  <line x1="58" x2="58" y1="350" y2="95" class="net_2"/>
  <circle cx="58" cy="95" r="2" style="fill:#000" class="net_2"/>
  <line x1="58" x2="318" y1="95" y2="95" class="net_2"/>
  <line x1="42" x2="58" y1="350" y2="350" class="net_2"/>
  <line x1="58" x2="58" y1="350" y2="137.5" class="net_2"/>
  <circle cx="58" cy="137.5" r="2" style="fill:#000" class="net_2"/>
  <line x1="58" x2="516" y1="137.5" y2="137.5" class="net_2"/>
  <line x1="42" x2="58" y1="350" y2="350" class="net_2"/>
  <line x1="58" x2="58" y1="350" y2="180" class="net_2"/>
  <circle cx="58" cy="180" r="2" style="fill:#000" class="net_2"/>
  <line x1="58" x2="714" y1="180" y2="180" class="net_2"/>
  <line x1="42" x2="58" y1="350" y2="350" class="net_2"/>
  <line x1="58" x2="58" y1="350" y2="222.5" class="net_2"/>
  <circle cx="58" cy="222.5" r="2" style="fill:#000" class="net_2"/>
  <line x1="58" x2="912" y1="222.5" y2="222.5" class="net_2"/>
  <line x1="42" x2="58" y1="350" y2="350" class="net_2"/>
  <line x1="58" x2="58" y1="350" y2="265" class="net_2"/>
  <circle cx="58" cy="265" r="2" style="fill:#000" class="net_2"/>
  <line x1="58" x2="1110" y1="265" y2="265" class="net_2"/>
  <line x1="42" x2="58" y1="350" y2="350" class="net_2"/>
  <line x1="58" x2="58" y1="350" y2="307.5" class="net_2"/>
  <circle cx="58" cy="307.5" r="2" style="fill:#000" class="net_2"/>
  <line x1="58" x2="1308" y1="307.5" y2="307.5" class="net_2"/>
  <line x1="42" x2="1506" y1="350" y2="350" class="net_2"/>
  <line x1="42" x2="68" y1="415" y2="415" class="net_3"/>
  <line x1="68" x2="68" y1="415" y2="72.5" class="net_3"/>
  <circle cx="68" cy="415" r="2" style="fill:#000" class="net_3"/>
  <line x1="68" x2="120" y1="72.5" y2="72.5" class="net_3"/>
  <line x1="42" x2="68" y1="415" y2="415" class="net_3"/>
  <line x1="68" x2="68" y1="415" y2="126.5" class="net_3"/>
  <line x1="68" x2="256" y1="126.5" y2="126.5" class="net_3"/>
  <line x1="256" x2="256" y1="126.5" y2="115" class="net_3"/>
  <circle cx="68" cy="126.5" r="2" style="fill:#000" class="net_3"/>
  <line x1="256" x2="318" y1="115" y2="115" class="net_3"/>
  <line x1="42" x2="68" y1="415" y2="415" class="net_3"/>
  <line x1="68" x2="68" y1="415" y2="169" class="net_3"/>
  <line x1="68" x2="454" y1="169" y2="169" class="net_3"/>
  <line x1="454" x2="454" y1="169" y2="157.5" class="net_3"/>
  <circle cx="68" cy="169" r="2" style="fill:#000" class="net_3"/>
  <line x1="454" x2="516" y1="157.5" y2="157.5" class="net_3"/>
  <line x1="42" x2="68" y1="415" y2="415" class="net_3"/>
  <line x1="68" x2="68" y1="415" y2="211.5" class="net_3"/>
  <line x1="68" x2="652" y1="211.5" y2="211.5" class="net_3"/>
  <line x1="652" x2="652" y1="211.5" y2="200" class="net_3"/>
  <circle cx="68" cy="211.5" r="2" style="fill:#000" class="net_3"/>
  <line x1="652" x2="714" y1="200" y2="200" class="net_3"/>
  <line x1="42" x2="68" y1="415" y2="415" class="net_3"/>
  <line x1="68" x2="68" y1="415" y2="254" class="net_3"/>
  <line x1="68" x2="850" y1="254" y2="254" class="net_3"/>
  <line x1="850" x2="850" y1="254" y2="242.5" class="net_3"/>
  <circle cx="68" cy="254" r="2" style="fill:#000" class="net_3"/>
  <line x1="850" x2="912" y1="242.5" y2="242.5" class="net_3"/>
  <line x1="42" x2="68" y1="415" y2="415" class="net_3"/>
  <line x1="68" x2="68" y1="415" y2="296.5" class="net_3"/>
  <line x1="68" x2="1048" y1="296.5" y2="296.5" class="net_3"/>
  <line x1="1048" x2="1048" y1="296.5" y2="285" class="net_3"/>
  <circle cx="68" cy="296.5" r="2" style="fill:#000" class="net_3"/>
  <line x1="1048" x2="1110" y1="285" y2="285" class="net_3"/>
  <line x1="42" x2="68" y1="415" y2="415" class="net_3"/>
  <line x1="68" x2="68" y1="415" y2="339" class="net_3"/>
  <line x1="68" x2="1246" y1="339" y2="339" class="net_3"/>
  <line x1="1246" x2="1246" y1="339" y2="327.5" class="net_3"/>
  <circle cx="68" cy="339" r="2" style="fill:#000" class="net_3"/>
  <line x1="1246" x2="1308" y1="327.5" y2="327.5" class="net_3"/>
  <line x1="42" x2="1444" y1="415" y2="415" class="net_3"/>
  <line x1="1444" x2="1444" y1="415" y2="370" class="net_3"/>
  <line x1="1444" x2="1506" y1="370" y2="370" class="net_3"/>
  <line x1="151" x2="256" y1="32.5" y2="32.5" class="net_9"/>
  <line x1="256" x2="256" y1="32.5" y2="75" class="net_9"/>
  <circle cx="256" cy="32.5" r="2" style="fill:#000" class="net_9"/>
  <line x1="256" x2="318" y1="75" y2="75" class="net_9"/>
  <line x1="151" x2="1677.5" y1="32.5" y2="32.5" class="net_9"/>
  <line x1="1677.5" x2="1677.5" y1="32.5" y2="122" class="net_9"/>
  <line x1="349" x2="454" y1="75" y2="75" class="net_10"/>
  <line x1="454" x2="454" y1="75" y2="117.5" class="net_10"/>
  <circle cx="454" cy="75" r="2" style="fill:#000" class="net_10"/>
  <line x1="454" x2="516" y1="117.5" y2="117.5" class="net_10"/>
  <line x1="349" x2="1662" y1="75" y2="75" class="net_10"/>
  <line x1="1662" x2="1662" y1="75" y2="142.5" class="net_10"/>
  <line x1="1662" x2="1677" y1="142.5" y2="142.5" class="net_10"/>
  <line x1="547" x2="652" y1="117.5" y2="117.5" class="net_11"/>
  <line x1="652" x2="652" y1="117.5" y2="160" class="net_11"/>
  <circle cx="652" cy="117.5" r="2" style="fill:#000" class="net_11"/>
  <line x1="652" x2="714" y1="160" y2="160" class="net_11"/>
  <line x1="547" x2="1652" y1="117.5" y2="117.5" class="net_11"/>
  <line x1="1652" x2="1652" y1="117.5" y2="162.5" class="net_11"/>
  <line x1="1652" x2="1677" y1="162.5" y2="162.5" class="net_11"/>
  <line x1="745" x2="850" y1="160" y2="160" class="net_12"/>
  <line x1="850" x2="850" y1="160" y2="202.5" class="net_12"/>
  <circle cx="850" cy="160" r="2" style="fill:#000" class="net_12"/>
  <line x1="850" x2="912" y1="202.5" y2="202.5" class="net_12"/>
  <line x1="745" x2="1642" y1="160" y2="160" class="net_12"/>
  <line x1="1642" x2="1642" y1="160" y2="182.5" class="net_12"/>
  <line x1="1642" x2="1677" y1="182.5" y2="182.5" class="net_12"/>
  <line x1="943" x2="1048" y1="202.5" y2="202.5" class="net_13"/>
  <line x1="1048" x2="1048" y1="202.5" y2="245" class="net_13"/>
  <circle cx="1048" cy="202.5" r="2" style="fill:#000" class="net_13"/>
  <line x1="1048" x2="1110" y1="245" y2="245" class="net_13"/>
  <line x1="943" x2="1677" y1="202.5" y2="202.5" class="net_13"/>
  <line x1="1141" x2="1246" y1="245" y2="245" class="net_14"/>
  <line x1="1246" x2="1246" y1="245" y2="287.5" class="net_14"/>
  <circle cx="1246" cy="245" r="2" style="fill:#000" class="net_14"/>
  <line x1="1246" x2="1308" y1="287.5" y2="287.5" class="net_14"/>
  <line x1="1141" x2="1642" y1="245" y2="245" class="net_14"/>
  <line x1="1642" x2="1642" y1="245" y2="222.5" class="net_14"/>
  <line x1="1642" x2="1677" y1="222.5" y2="222.5" class="net_14"/>
  <line x1="1339" x2="1444" y1="287.5" y2="287.5" class="net_15"/>
  <line x1="1444" x2="1444" y1="287.5" y2="330" class="net_15"/>
  <circle cx="1444" cy="287.5" r="2" style="fill:#000" class="net_15"/>
  <line x1="1444" x2="1506" y1="330" y2="330" class="net_15"/>
  <line x1="1339" x2="1652" y1="287.5" y2="287.5" class="net_15"/>
  <line x1="1652" x2="1652" y1="287.5" y2="242.5" class="net_15"/>
  <line x1="1652" x2="1677" y1="242.5" y2="242.5" class="net_15"/>
  <line x1="1758" x2="1912" y1="472.5" y2="472.5" class="net_8"/>
  <line x1="1537" x2="1677.5" y1="330" y2="330" class="net_16"/>
  <line x1="1677.5" x2="1677.5" y1="330" y2="263" class="net_16"/>
  <line x1="1536" x2="1642" y1="437.5" y2="437.5" class="net_7"/>
  <line x1="1642" x2="1642" y1="437.5" y2="482.5" class="net_7"/>
  <line x1="1642" x2="1679" y1="482.5" y2="482.5" class="net_7"/>
  <line x1="1536" x2="1679" y1="502.5" y2="502.5" class="net_6"/>
  <line x1="1536" x2="1642" y1="567.5" y2="567.5" class="net_5"/>
  <line x1="1642" x2="1642" y1="567.5" y2="522.5" class="net_5"/>
  <line x1="1642" x2="1679" y1="522.5" y2="522.5" class="net_5"/>
</svg>
